<?xml version="1.0" encoding="utf-8"?>
<!-- Generator: Adobe Illustrator 17.0.0, SVG Export Plug-In . SVG Version: 6.00 Build 0)  -->
<!DOCTYPE svg PUBLIC "-//W3C//DTD SVG 1.1//EN" "http://www.w3.org/Graphics/SVG/1.1/DTD/svg11.dtd">
<svg version="1.1" id="图层_1" xmlns="http://www.w3.org/2000/svg" xmlns:xlink="http://www.w3.org/1999/xlink" x="0px" y="0px"
	 width="96px" height="112.164px" viewBox="30.5 -33.664 96 112.164" enable-background="new 30.5 -33.664 96 112.164"
	 xml:space="preserve">
<g>
	<path fill-rule="evenodd" clip-rule="evenodd" fill="#FFFFFF" d="M35.5,78.25c-2.619,0-4.75-2.131-4.75-4.75v-90
		c0-2.619,2.131-4.75,4.75-4.75h35.215l6.878-11.915l6.879,11.915H121.5c2.619,0,4.75,2.131,4.75,4.75v90
		c0,2.619-2.131,4.75-4.75,4.75H35.5z"/>
	<path fill="#B9B9B9" d="M77.594-32.664l6.59,11.414L84.328-21h0.289H121.5c2.481,0,4.5,2.019,4.5,4.5v90c0,2.481-2.019,4.5-4.5,4.5
		h-86c-2.481,0-4.5-2.019-4.5-4.5v-90c0-2.481,2.019-4.5,4.5-4.5h35.071h0.289l0.144-0.25L77.594-32.664 M77.594-33.664L70.571-21.5
		H35.5c-2.761,0-5,2.238-5,5v90c0,2.761,2.239,5,5,5h86c2.761,0,5-2.238,5-5v-90c0-2.762-2.239-5-5-5H84.617L77.594-33.664
		L77.594-33.664z"/>
</g>
<g>
	<path fill="#484848" d="M85.993,22.969c0.896,0,1.648,0,2.514,0c0-1.699,0-3.33,0-5.125c-0.779-0.034-1.605-0.071-2.572-0.113
		c0-2.716,0-5.384,0-8.186c-0.972,0-1.802,0-2.681,0c0-1.058,0-1.978,0-2.972c0.998,0,1.917,0,2.943,0c0,0.893,0,1.684,0,2.582
		c0.827,0,1.547,0,2.421,0c0-1.749,0-3.477,0-5.277c0.977-0.044,1.809-0.082,2.764-0.125c0-0.902,0-1.732,0-2.647
		c1.053,0,1.979,0,3.052,0c0,1.731,0,3.458,0,5.33c0.916,0.044,1.695,0.081,2.591,0.124c0,0.95,0,1.866,0,2.909
		c-0.768,0.049-1.59,0.101-2.547,0.162c0,0.9,0,1.729,0,2.682c-1.871,0-3.605,0-5.45,0c0,0.803,0,1.482,0,2.371
		c1.739,0,3.502,0,5.35,0c0,1.12,0,2.038,0,3.095c-0.877,0-1.706,0-2.604,0c0,0.87,0,1.603,0,2.421c1.681,0,3.307,0,5.068,0
		c0-2.716,0-5.347,0-8.079c1.056,0,1.98,0,3.03,0c0.042,0.829,0.085,1.654,0.13,2.54c1.681,0,3.274,0,5.045,0c0-0.822,0-1.64,0-2.55
		c2.902,0,5.628,0,8.461,0c0,0.933,0,1.843,0,2.93c-1.764,0-3.491,0-5.254,0c0,2.709,0,5.244,0,7.891c1.76,0,3.447,0,5.29,0
		c0.041,0.927,0.078,1.754,0.122,2.758c1.777,0,3.546,0,5.405,0c0,2.003,0,3.828,0,5.731c-0.887,0.044-1.676,0.082-2.597,0.128
		c0,2.691,0,5.32,0,8.091c-0.949,0.047-1.776,0.089-2.731,0.136c0,2.587,0,5.149,0,7.844c1.75,0,3.482,0,5.3,0
		c0,1.058,0,1.987,0,3.076c-0.824,0-1.647,0-2.546,0c0,1.788,0,3.418,0,5.157c0.836,0,1.624,0,2.553,0c0,2.868,0,5.628,0,8.514
		c-0.833,0-1.617,0-2.583,0c0,1.882,0,3.65,0,5.491c-1.108,0-2.036,0-3.1,0c0-1.769,0-3.497,0-5.33c-0.812,0-1.493,0-2.357,0
		c-0.054,0.829-0.11,1.695-0.172,2.649c-0.855,0-1.647,0-2.592,0c0,0.915,0,1.741,0,2.691c-1.975,0-3.799,0-5.776,0
		c0-2.77,0-5.516,0-8.384c0.841-0.039,1.629-0.075,2.516-0.116c0-0.749,0-1.48,0-2.3c-1.62,0-3.252,0-4.985,0
		c-0.042,0.851-0.082,1.678-0.13,2.659c-1.785,0-3.513,0-5.318,0c0,0.842,0,1.529,0,2.357c1.747,0,3.478,0,5.298,0
		c0,1.96,0,3.785,0,5.763c-3.678,0-7.378,0-11.159,0c0-0.933,0-1.812,0-2.844c0.813-0.042,1.642-0.086,2.65-0.138
		c0-1.749,0-3.519,0-5.38c1.006-0.052,1.839-0.095,2.744-0.142c0-2.595,0-5.116,0-7.741c-0.747,0-1.481,0-2.332,0
		c0,0.782,0,1.57,0,2.509c-0.931,0.043-1.758,0.081-2.779,0.128c0,1.783,0,3.55,0,5.394c-0.976,0.06-1.764,0.108-2.682,0.164
		c0,0.828,0,1.611,0,2.544c-0.95,0-1.776,0-2.716,0c0,0.912,0,1.677,0,2.535c0.853,0.039,1.684,0.077,2.586,0.118
		c0,0.952,0,1.836,0,2.831c-0.964,0-1.928,0-2.994,0c0-0.855,0-1.647,0-2.521c-0.83,0-1.563,0-2.44,0c0,0.812,0,1.596,0,2.506
		c-1.047,0-1.954,0-2.969,0c0-1.839,0-3.661,0-5.614c1.75,0,3.474,0,5.306,0c0-0.848,0-1.571,0-2.394
		c-0.836-0.051-1.665-0.102-2.601-0.159c0-1.878,0-3.698,0-5.7c0.84,0,1.705,0,2.679,0c0-0.965,0-1.753,0-2.676
		c1.071,0,2.027,0,3.035,0c0.043,0.889,0.081,1.679,0.122,2.545c0.75,0,1.437,0,2.222,0c0-1.645,0-3.272,0-5.02
		c-0.804,0-1.592,0-2.514,0c-0.061-0.969-0.116-1.832-0.175-2.763c-1.699,0-3.329,0-5.081,0c-0.044,0.9-0.085,1.731-0.131,2.679
		c-0.835,0-1.622,0-2.57,0c0,2.784,0,5.452,0,8.241c-0.991,0-1.822,0-2.754,0c-0.05,0.945-0.094,1.775-0.142,2.694
		c-0.87,0.052-1.701,0.103-2.674,0.161c0,1.808,0,3.536,0,5.383c-0.931,0-1.719,0-2.63,0c-0.048,0.937-0.09,1.76-0.138,2.692
		c-2.779,0-5.506,0-8.369,0c0-3.708,0-7.358,0-11.127c0.794-0.037,1.577-0.073,2.499-0.116c0.041-0.859,0.081-1.687,0.127-2.633
		c0.933,0,1.853,0,2.893,0c0,0.887,0,1.846,0,2.913c-0.804,0.041-1.634,0.082-2.549,0.128c0,1.684,0,3.314,0,5.015
		c1.719,0,3.354,0,5.133,0c0-1.791,0-3.519,0-5.363c0.932,0,1.722,0,2.63,0c0.041-0.939,0.078-1.77,0.121-2.739
		c0.858-0.038,1.689-0.075,2.629-0.117c0-0.722,0-1.444,0-2.319c-1.742,0-3.47,0-5.322,0c0-0.981,0-1.814,0-2.758
		c-0.964,0-1.801,0-2.767,0c0-0.94,0-1.771,0-2.707c-0.852,0-1.577,0-2.433,0c-0.047,0.851-0.093,1.685-0.144,2.602
		c-0.914,0-1.796,0-2.846,0c0-1.687,0-3.407,0-5.287c-0.881-0.041-1.608-0.076-2.522-0.119c0,0.912,0,1.728,0,2.63
		c-1.999,0-3.817,0-5.717,0c-0.043-0.861-0.082-1.644-0.126-2.516c-0.808,0-1.538,0-2.403,0c0,0.822,0,1.605,0,2.484
		c-1.049,0-1.968,0-2.983,0c0-0.907,0-1.788,0-2.82c0.837-0.043,1.666-0.085,2.574-0.132c0-3.506,0-6.988,0-10.569
		c-0.852-0.044-1.68-0.086-2.665-0.136c0-1.779,0-3.505,0-5.369c-2.785,0-5.411,0-8.148,0c0-2.007,0-3.871,0-5.884
		c1.848,0,3.575,0,5.379,0c0.052-0.926,0.096-1.71,0.145-2.582c0.832-0.055,1.614-0.106,2.51-0.165c0-1.66,0-3.283,0-5.037
		c-0.707,0-1.422,0-2.238,0c0,0.826,0,1.617,0,2.521c-1.958,0-3.822,0-5.799,0c0-1.829,0-3.652,0-5.571c3.73,0,7.356,0,11.136,0
		c0,1.75,0,3.476,0,5.294c0.881,0,1.613,0,2.471,0c0.048-0.807,0.097-1.637,0.154-2.604c0.802,0,1.585,0,2.54,0
		c0.05-0.945,0.093-1.764,0.141-2.679c1.002,0,1.918,0,2.908,0c0,0.951,0,1.83,0,2.818c-0.842,0.06-1.665,0.119-2.575,0.184
		c0,0.761,0,1.449,0,2.313c1.749,0,3.516,0,5.363,0c0,1.092,0,2.017,0,3.111c-2.657,0-5.325,0-8.07,0c0,1.796,0,3.424,0,5.122
		c0.748,0,1.436,0,2.229,0c0.048-0.855,0.094-1.681,0.147-2.626c3.726,0,7.385,0,11.179,0c0,0.857,0,1.688,0,2.605
		c0.908,0,1.683,0,2.543,0c0-1.754,0-3.448,0-5.308c1.802,0,3.525,0,5.381,0c0-0.985,0-1.813,0-2.764
		c1-0.053,1.873-0.098,2.865-0.151c0-0.898,0-1.732,0-2.627c0.907-0.047,1.695-0.087,2.566-0.132c0-0.745,0-1.432,0-2.252
		c-0.823-0.042-1.65-0.084-2.537-0.129c0-1.92,0-3.79,0-5.708c0.991,0,1.871,0,2.898,0c0,1.798,0,3.527,0,5.402
		c0.966,0.044,1.795,0.082,2.712,0.124c0,0.953,0,1.871,0,2.852c-0.879,0.055-1.708,0.106-2.608,0.162c0,2.594,0,5.082,0,7.752
		c0.805,0.046,1.629,0.093,2.637,0.15c0,0.848,0,1.712,0,2.645c0.915,0,1.649,0,2.465,0C85.906,24.802,85.945,23.972,85.993,22.969z
		 M96.93,28.805c0-1.11,0-2.033,0-2.96c1.952,0,3.813,0,5.7,0c0.056,0.926,0.105,1.749,0.158,2.614
		c0.937,0.047,1.717,0.085,2.631,0.131c0,0.905,0,1.686,0,2.603c0.971,0,1.801,0,2.8,0c0,1.002,0,1.868,0,2.825
		c0.964,0,1.755,0,2.61,0c0.063,0.919,0.12,1.748,0.182,2.649c0.782,0,1.467,0,2.205,0c0-1.741,0-3.405,0-5.126
		c-0.892-0.039-1.678-0.074-2.601-0.115c0-1.834,0-3.558,0-5.423c-0.97,0-1.797,0-2.771,0c0-0.968,0-1.792,0-2.647
		c-6.36,0-12.569,0-18.972,0c0,2.75,0,5.407,0,8.031c-1.074,0-1.951,0-2.876,0c-0.042-0.882-0.079-1.667-0.115-2.435
		c-1.804,0-3.469,0-5.116,0c0,0.787,0,1.433,0,2.228c0.905,0,1.731,0,2.714,0c0,2.82,0,5.492,0,8.134c0.893,0,1.621,0,2.407,0
		c0.042-0.889,0.078-1.67,0.117-2.503c0.912-0.05,1.697-0.093,2.536-0.139c0.053-0.923,0.1-1.751,0.156-2.725
		c1.855,0,3.627,0,5.358,0c0-0.888,0-1.614,0-2.407c-0.924-0.04-1.748-0.076-2.541-0.111c0-1.981,0-3.801,0-5.585
		c1.026,0,1.946,0,3.02,0c0,1.824,0,3.549,0,5.396c0.943,0,1.726,0,2.518,0c0,2.894,0,5.653,0,8.381c-1.013,0-1.892,0-2.811,0
		c-0.054-0.88-0.102-1.665-0.15-2.44c-1.784,0-3.451,0-5.101,0c0,3.526,0,6.916,0,10.363c0.839,0,1.6,0,2.474,0
		c0-0.9,0-1.685,0-2.504c0.939-0.063,1.767-0.119,2.624-0.177c0.047-0.92,0.088-1.745,0.13-2.575c1.026,0,1.909,0,2.868,0
		c0.046,0.888,0.088,1.713,0.133,2.592c0.851,0,1.58,0,2.48,0c0-1.86,0-3.629,0-5.498c0.962,0,1.751,0,2.594,0
		c0.075-0.922,0.142-1.743,0.21-2.578c0.928-0.052,1.713-0.095,2.486-0.138c0-0.855,0-1.585,0-2.458c-1.822,0-3.548,0-5.413,0
		c0-1.872,0-3.598,0-5.402C98.634,28.805,97.839,28.805,96.93,28.805z M72.09,28.76c-2.791,0-5.414,0-8.1,0
		c-0.05-0.954-0.093-1.782-0.136-2.619c-2.644,0-5.206,0-7.869,0c0.037,0.846,0.069,1.57,0.106,2.423c1.897,0,3.621,0,5.398,0
		c0.041,0.915,0.075,1.7,0.116,2.626c1.801,0,3.525,0,5.314,0c0.049,1.009,0.091,1.875,0.131,2.684c1.787,0,3.417,0,5.041,0
		C72.09,32.173,72.09,30.581,72.09,28.76z M80.331,23.349c-0.813,0-1.495,0-2.246,0c-0.052,0.913-0.1,1.741-0.15,2.608
		c-1.016,0-1.941,0-3.006,0c0-0.889,0-1.719,0-2.986c-0.978,0.349-2.295,0.518-2.358,0.895c-0.247,1.492-0.102,3.049-0.102,4.588
		c1.051,0.051,1.839,0.09,2.761,0.135c0,1.809,0,3.539,0,5.315c1.771,0,3.402,0,5.063,0c0-0.808,0-1.537,0-2.339
		c-0.865-0.052-1.648-0.099-2.47-0.148c0-0.995,0-1.906,0-2.847c0.892-0.042,1.677-0.08,2.508-0.119
		C80.331,26.708,80.331,25.109,80.331,23.349z M105.004,55.828c0-2.674,0-5.2,0-7.756c-2.643,0-5.198,0-7.766,0
		c0,2.644,0,5.167,0,7.756C99.856,55.828,102.383,55.828,105.004,55.828z M50.563,33.897c3.612,0,7.084,0,10.587,0
		c0-0.811,0-1.535,0-2.456c-1.845,0-3.601,0-5.392,0c-0.046-0.973-0.083-1.75-0.12-2.526c-1.773,0-3.396,0-5.075,0
		C50.563,30.606,50.563,32.195,50.563,33.897z M80.339,45.339c-0.924-0.048-1.711-0.089-2.587-0.134c0-1.003,0-1.934,0-2.915
		c0.89-0.051,1.72-0.099,2.526-0.146c0-0.848,0-1.58,0-2.314c-1.73,0-3.353,0-4.962,0c0,3.593,0,7.074,0,10.537
		c0.834,0,1.57,0,2.409,0c0-0.932,0-1.773,0-2.654c0.932-0.042,1.761-0.08,2.613-0.119C80.339,46.795,80.339,46.144,80.339,45.339z
		 M102.751,44.897c2.67,0,5.187,0,7.769,0c0-1.736,0-3.393,0-5.066c-0.825,0-1.544,0-2.393,0c0,0.94,0,1.769,0,2.606
		c-1.058,0-1.982,0-3.094,0c0-0.924,0-1.784,0-2.601c-0.87,0-1.55,0-2.282,0C102.751,41.547,102.751,43.141,102.751,44.897z
		 M72.06,44.906c0-0.849,0-1.574,0-2.4c-0.881,0-1.67,0-2.522,0c0-1.069,0-2.033,0-3.157c0.92,0,1.742,0,2.508,0
		c0-0.845,0-1.528,0-2.193c-1.733,0-3.354,0-4.974,0c0,2.635,0,5.159,0,7.751C68.745,44.906,70.329,44.906,72.06,44.906z
		 M50.146,28.438c0-2.661,0-5.191,0-7.761c-0.796,0-1.518,0-2.293,0c-0.058,0.872-0.11,1.654-0.168,2.529
		c-0.896,0.04-1.717,0.076-2.511,0.111c0,0.897,0,1.624,0,2.458c0.89,0,1.678,0,2.515,0c0.062,0.934,0.116,1.762,0.176,2.662
		C48.644,28.438,49.331,28.438,50.146,28.438z M111.044,59.03c0,0.845,0,1.565,0,2.328c0.9,0.055,1.678,0.102,2.624,0.159
		c0,0.915,0,1.73,0,2.51c0.907,0,1.636,0,2.354,0c0-1.725,0-3.343,0-4.997C114.326,59.03,112.736,59.03,111.044,59.03z
		 M61.166,42.143c0-1.695,0-3.313,0-4.984c-1.74,0-3.395,0-5.067,0c0,0.798,0,1.479,0,2.198c0.923,0.052,1.749,0.098,2.688,0.151
		c0,0.938,0,1.766,0,2.635C59.637,42.143,60.365,42.143,61.166,42.143z M61.599,36.631c1.791,0,3.407,0,4.991,0
		c0-0.846,0-1.572,0-2.267c-1.733,0-3.359,0-4.991,0C61.599,35.161,61.599,35.859,61.599,36.631z M58.412,42.594
		c-1.77,0-3.392,0-5.002,0c0,0.814,0,1.537,0,2.28c1.722,0,3.341,0,5.002,0C58.412,44.076,58.412,43.381,58.412,42.594z
		 M105.478,61.799c0,0.865,0,1.542,0,2.223c1.758,0,3.416,0,5.048,0c0-0.798,0-1.481,0-2.223
		C108.814,61.799,107.193,61.799,105.478,61.799z M113.235,55.893c0-1.811,0-3.433,0-5.079c-0.778,0-1.464,0-2.233,0
		c0,1.687,0,3.305,0,4.995c0.286,0.033,0.509,0.075,0.734,0.08C112.201,55.901,112.666,55.893,113.235,55.893z M72.622,34.341
		c-0.42,2.469-0.173,2.71,2.241,2.22c0-0.718,0-1.446,0-2.22C74.062,34.341,73.335,34.341,72.622,34.341z M94.083,9.196
		c0-0.789,0-1.511,0-2.309c-0.804,0-1.528,0-2.308,0c0,0.809,0,1.533,0,2.309C92.579,9.196,93.309,9.196,94.083,9.196z
		 M102.314,20.204c0-0.813,0-1.542,0-2.345c-0.775,0-1.504,0-2.259,0c0,0.83,0,1.593,0,2.345
		C100.861,20.204,101.55,20.204,102.314,20.204z M110.491,58.62c0-0.844,0-1.602,0-2.353c-0.811,0-1.496,0-2.198,0
		c0,0.851,0,1.616,0,2.353C109.1,58.62,109.792,58.62,110.491,58.62z M72.093,48.048c-0.841,0-1.516,0-2.237,0
		c0,0.823,0,1.549,0,2.3c0.796,0,1.509,0,2.237,0C72.093,49.544,72.093,48.851,72.093,48.048z M63.867,42.619
		c-0.852,0-1.563,0-2.202,0c0,0.833,0,1.552,0,2.249c0.8,0,1.473,0,2.202,0C63.867,44.073,63.867,43.384,63.867,42.619z
		 M107.803,39.373c0-0.837,0-1.516,0-2.191c-0.848,0-1.604,0-2.304,0c0,0.817,0,1.49,0,2.191
		C106.312,39.373,107.006,39.373,107.803,39.373z"/>
	<path fill="#484848" d="M75.114,9.538c-0.85,0-1.643,0-2.563,0c-0.064,0.953-0.123,1.822-0.185,2.745c-0.961,0-1.846,0-2.845,0
		c0-0.847,0-1.681,0-2.625c-0.873,0-1.636,0-2.526,0c0,0.866,0,1.698,0,2.613c-0.946,0.052-1.774,0.098-2.683,0.147
		c0,0.753,0,1.438,0,2.25c0.881,0.04,1.707,0.077,2.597,0.117c0,1.014,0,1.935,0,2.927c-0.98,0-1.901,0-2.907,0
		c-0.058-0.876-0.112-1.703-0.171-2.602c-0.857-0.054-1.642-0.103-2.51-0.158c0-0.941,0-1.819,0-2.85c0.799,0,1.576,0,2.476,0
		c0-0.872,0-1.599,0-2.509c-0.763,0-1.581,0-2.488,0c0-1.098,0-2.015,0-3.019c0.872-0.049,1.656-0.093,2.525-0.141
		c0-0.749,0-1.436,0-2.252c-0.782,0-1.564,0-2.487,0c0-2.88,0-5.636,0-8.504c0.903,0,1.815,0,2.801,0
		c0.053,0.832,0.103,1.617,0.159,2.506c0.884,0.062,1.711,0.12,2.633,0.185c0,0.85,0,1.639,0,2.541c0.868,0,1.637,0,2.553,0
		c0-1.738,0-3.461,0-5.288c1.827,0,3.515,0,5.381,0c0-0.964,0-1.83,0-2.818c1.005,0,1.839,0,2.757,0
		c0.049-0.94,0.092-1.764,0.139-2.657c0.964,0,1.841,0,2.816,0c0,0.936,0,1.815,0,2.883c-0.776,0-1.593,0-2.491,0
		c0,0.917,0,1.647,0,2.519c0.835,0,1.616,0,2.515,0c0.047,0.912,0.087,1.692,0.135,2.637c0.768,0.036,1.494,0.07,2.404,0.113
		c0-1.865,0-3.633,0-5.526c1.006,0,1.837,0,2.779,0c0-0.912,0-1.697,0-2.62c3.765,0,7.418,0,11.146,0c0,0.957,0,1.84,0,2.877
		c-1.732,0-3.458,0-5.324,0c0,1.876,0,3.603,0,5.452c-0.955,0.061-1.778,0.114-2.762,0.178c-0.044,0.852-0.086,1.673-0.136,2.636
		c-1.778,0-3.506,0-5.353,0c0,0.973,0,1.804,0,2.725c-1.045,0-1.971,0-3.074,0c0-1.732,0-3.5,0-5.353c-0.86,0-1.546,0-2.353,0
		c0,0.836,0,1.621,0,2.524c-1.072,0-2.027,0-3.095,0c0-0.789,0-1.577,0-2.489c-0.826,0-1.548,0-2.399,0c0,1.644,0,3.301,0,5.068
		c0.849,0,1.638,0,2.535,0C75.114,5.694,75.114,7.514,75.114,9.538z M72.079,4.231c-1.736,0-3.394,0-5,0c0,0.808,0,1.496,0,2.211
		c0.928,0.05,1.76,0.094,2.637,0.141c0.046,0.925,0.087,1.751,0.13,2.609c0.789,0,1.474,0,2.233,0
		C72.079,7.502,72.079,5.882,72.079,4.231z M88.559-6.805c-0.72,0-1.431,0-2.21,0c0,1.684,0,3.34,0,4.986c0.792,0,1.473,0,2.21,0
		C88.559-3.507,88.559-5.095,88.559-6.805z M66.631,6.985c-2.429-0.472-2.681-0.223-2.235,2.164c0.752,0,1.506,0,2.235,0
		C66.631,8.347,66.631,7.659,66.631,6.985z"/>
	<path fill="#484848" d="M39.318,9.455c0-6.408,0-12.8,0-19.316c6.5,0,12.898,0,19.367,0c0,6.463,0,12.837,0,19.316
		C52.252,9.455,45.843,9.455,39.318,9.455z M55.566,6.421c0-4.542,0-8.903,0-13.219c-4.501,0-8.866,0-13.214,0
		c0,4.464,0,8.799,0,13.219C46.801,6.421,51.166,6.421,55.566,6.421z"/>
	<path fill="#484848" d="M99.745-9.875c6.411,0,12.808,0,19.325,0c0,6.509,0,12.907,0,19.37c-6.475,0-12.848,0-19.325,0
		C99.745,3.055,99.745-3.352,99.745-9.875z M116.004,6.429c0-4.554,0-8.919,0-13.276c-4.459,0-8.794,0-13.181,0
		c0,4.479,0,8.878,0,13.276C107.284,6.429,111.617,6.429,116.004,6.429z"/>
	<path fill="#484848" d="M39.337,50.494c6.497,0,12.835,0,19.295,0c0,6.418,0,12.825,0,19.37c-6.371,0-12.767,0-19.295,0
		C39.337,63.406,39.337,57.019,39.337,50.494z M42.368,53.566c0,4.512,0,8.879,0,13.265c4.472,0,8.841,0,13.231,0
		c0-4.47,0-8.835,0-13.265C51.166,53.566,46.833,53.566,42.368,53.566z"/>
	<path fill="#484848" d="M110.66,20.639c0-1.161,0-2.088,0-3.134c1.829,0,3.559,0,5.437,0c0-1.835,0-3.556,0-5.377
		c1.061,0,1.973,0,2.969,0c0,1.902,0,3.723,0,5.647c-0.88,0-1.669,0-2.553,0c0,0.83,0,1.561,0,2.424
		c0.803,0.054,1.63,0.11,2.536,0.171c0,0.922,0,1.799,0,2.783c-0.957,0-1.865,0-2.864,0c-0.037-0.824-0.073-1.607-0.114-2.514
		C114.279,20.639,112.552,20.639,110.66,20.639z"/>
	<path fill="#484848" d="M45.005,33.908c0,1.148,0,2.07,0,3.064c-0.986,0-1.909,0-2.96,0c0-0.839,0-1.668,0-2.634
		c-0.945-0.044-1.772-0.083-2.713-0.127c0-0.995,0-1.957,0-2.968c1.004,0,1.885,0,2.9,0c0,0.886,0,1.716,0,2.665
		C43.189,33.908,44.021,33.908,45.005,33.908z"/>
	<path fill="#484848" d="M61.285-6.991c0-1.024,0-1.868,0-2.84c1.879,0,3.693,0,5.603,0c0,0.929,0,1.84,0,2.84
		C65.034-6.991,63.217-6.991,61.285-6.991z"/>
	<path fill="#484848" d="M42.17,42.445c-0.938,0-1.822,0-2.836,0c0-0.979,0-1.94,0-2.965c0.979,0,1.859,0,2.836,0
		C42.17,40.435,42.17,41.359,42.17,42.445z"/>
	<path fill="#484848" d="M44.993,47.886c-0.998,0-1.924,0-2.931,0c0-0.927,0-1.808,0-2.837c0.939,0,1.896,0,2.931,0
		C44.993,45.954,44.993,46.834,44.993,47.886z"/>
	<path fill="#484848" d="M47.68,42.445c-0.992,0-1.867,0-2.832,0c0-0.979,0-1.9,0-2.925c0.919,0,1.828,0,2.832,0
		C47.68,40.474,47.68,41.394,47.68,42.445z"/>
	<path fill="#484848" d="M99.707,53.372c0-0.928,0-1.811,0-2.809c0.95,0,1.898,0,2.918,0c0,0.926,0,1.803,0,2.809
		C101.697,53.372,100.789,53.372,99.707,53.372z"/>
	<path fill="#484848" d="M53.283-4.333c0,2.834,0,5.522,0,8.337c-2.774,0-5.529,0-8.409,0c0-2.718,0-5.471,0-8.337
		C47.635-4.333,50.391-4.333,53.283-4.333z"/>
	<path fill="#484848" d="M105.177-4.354c2.845,0,5.569,0,8.377,0c0,2.806,0,5.53,0,8.369c-2.756,0-5.514,0-8.377,0
		C105.177,1.27,105.177-1.485,105.177-4.354z"/>
	<path fill="#484848" d="M53.224,64.403c-2.825,0-5.515,0-8.336,0c0-2.788,0-5.545,0-8.414c2.718,0,5.476,0,8.336,0
		C53.224,58.745,53.224,61.501,53.224,64.403z"/>
</g>
</svg>
