<svg id="图层_1" data-name="图层 1" xmlns="http://www.w3.org/2000/svg" viewBox="0 0 100.11 100.16"><defs><style>.cls-1{fill:#555;}.cls-2{fill:#fff;}</style></defs><title>ewm-img01</title><path class="cls-1" d="M51.77.05h7V3.5h3.43V6.93h3.42c0,.2,0,.37,0,.54q0,1.46,0,2.92H62.17v3.42H65.6V10.39H69V6.94h3.43v3.45H69.09v3.46h3.39V17.3H69.09v3.46h3.39v3.46H69.06v3.42H65.6V24.23H62.18v3.42H65.6v3.42h6.88V27.69h3.46v3.39h6.88v-3.4H93.16v3.45H86.29V41.44h6.9v3.42h6.92v7H96.66V62.16H93.21V72.47h6.9v3.48H96.69v3.43h3.42v3.48H96.69v3.43h3.42v6.91H96.66v6.89H93.21v-.33q0-2.91,0-5.81c0-.25,0-.5,0-.75h3.42v-6.9H89.77v3.44h3.41c0,.2,0,.37,0,.54q0,1.46,0,2.92H89.75v6.88H86.32V93.2H89.7V89.77H82.84v10.3H76V96.63h3.42V89.71H82.8V86.29H75.92v3.47H65.6v6.86H69v-3.4h3.43v6.85H62.12v-6.9H55.25V89.77H48.34v3.42H44.86V89.77H41.49v6.88h3.39v3.43H41.43V96.69H38v3.39H27.68V86.29H41.45V82.83h3.46V89.7h3.46V82.83H65.58c0,.19,0,.36,0,.53q0,1.46,0,2.92H58.74V89.7H65.6V86.28H69V79.4H65.63V75.94H69V62.14H72.5V69H76v-6.9h3.4V51.82H72.52v3.45h3.39v3.46H62.14v3.43h-3.4v3.45h6.83V72.5H58.74V76h3.39v3.43H58.68V75.92H55.26V72.51H51.8v3.42H48.32v3.49H38v3.4H34.52V79.4H31.09V75.92H27.66V72.48H20.74V69.08H10.38v3.4H3.52V69h6.87V62.14H6.91V58.71H.09V55.28H7v3.39h6.89V55.28h3.46v10.3h3.46V62.12h3.4v-3.4H20.77V55.28h3.45v3.4h3.46V51.77h6.83V48.35H24.2v3.44H17.32V48.34h6.84V44.88H20.78V41.42h3.39V38H17.31V34.54H13.83V31.11H.08V27.68H13.88V31.1h3.43v3.4H27.68V27.66h3.4V24.2H27.69V20.74h3.39V17.28H27.69V6.94h3.45v3.48h3.42v3.4H38V6.91H48.36V3.48h3.41ZM38,75.94H34.57v3.42H38c0-1.16,0-2.29,0-3.42h3.42V72.52H38ZM55.25,10.39H41.7l-.22,0v6.91h3.39V13.86h3.45c0,.19,0,.36,0,.53q0,1.46,0,2.92H44.92v6.86h3.44v-.33q0-2.92,0-5.84c0-.23,0-.46,0-.69h3.48V31.08h3.46V27.65h3.4V24.2h-3.4V20.74h3.4V13.85H55.27c0-.2,0-.37,0-.54q0-1.46,0-2.92h6.85V6.95H58.69V3.54H55.24v.33q0,2.92,0,5.84C55.24,9.93,55.25,10.16,55.25,10.39ZM48.34,48.34h3.48v3.43h3.46V48.34H58.7V41.46h3.46v3.42h6.91v6.89h3.4V44.89H82.85v3.47h3.43v6.92h3.49v3.4h3.42V51.8H89.72V44.89H86.29V41.45H75.94V31.14H72.49v3.42H55.24v6.91H41.48v6.86h3.4V44.89h3.45c0,.19,0,.36,0,.53q0,1.46,0,2.92H44.92v3.42h3.42ZM31.13,38H27.66v6.86H31.1V41.46h3.46v3.39H38V38H48.36V34.51h3.41v-3.4H44.86V24.23h-3.4v3.38H38V24.22H34.55v3.42h-3.4V31.1h3.39v3.46H31.13Zm17.2,17.26H41.49v3.46H48.3v3.46H44.91V69h3.42v3.4h3.46V69h3.45V65.58H51.78V51.82H48.33ZM82.8,72.51H72.52V82.79H82.8ZM31.1,69.05h3.47v3.39H38V69h3.41V65.57H38v-3.4H34.54v3.41H27.66v6.86H31.1Zm51.75,0H89.7V62.14H86.29v-3.4H82.83v3.42h-3.4v3.46h3.41ZM58.73,55.25H55.26V62.1H58.7V58.68h3.43V55.25h3.46V51.8H62.12V48.34H58.73Zm-17.3,0V48.35H38v3.47h-3.4v6.85H38V55.26Zm-6.85-38v3.45H38v3.41h3.43V17.31ZM38,93.18H34.51V89.77H31.14v6.85H38ZM89.77,75.94v6.85h3.42V75.94ZM86.28,86.28H89.7V82.85H86.28Zm-20.69-69H62.17v3.42H65.6Zm13.83,31v3.42H82.8V48.34ZM65.61,20.79v3.38H69V20.79Zm-24.18,38H38v3.37h3.42ZM20.8,65.59V69h3.37V65.59ZM62.11,24.17V20.8H58.74v3.37Zm-27.6-3.37H31.15v3.37h3.37Z" transform="translate(0 -0.05)"/><path class="cls-2" d="M17.32,48.34v3.45H24.2V48.35H34.51v3.42H27.68v6.91H24.22v-3.4H20.77v3.43h3.39v3.4h-3.4v3.47H17.31V55.28H13.85v3.39H7V55.28H.09v3.43H6.91v3.43h3.47V69H3.52v3.45h6.86v-3.4H20.74v3.41h6.92v3.43h3.43V79.4h3.43v3.42H38v-3.4H48.32V75.93H51.8V72.51h3.46v3.41h3.42v3.46h3.45V76H58.74V72.5h6.83V65.61H58.74V62.16h3.4V58.73H75.91V55.27H72.52V51.82h6.85V62.11H76V69H72.5V62.14H69V75.94H65.63V79.4H69v6.88H65.6q0-1.46,0-2.92c0-.17,0-.34,0-.53H48.36V89.7H44.91V82.83H41.45v3.45H27.68v13.79H38V96.69h3.46v3.39h3.45V96.65H41.49V89.77h3.37v3.43h3.48c0,.11,0,.21,0,.32q0,3.13,0,6.26v.3h6.89v-.33q0-3,0-5.92c0-.21,0-.43,0-.64h6.86v6.9H72.48V93.22H69v3.4H65.6V89.76H75.92V86.29H82.8v3.42H79.39v6.92H76v3.44h6.87V89.77H89.7V93.2H86.32v6.88h3.43V93.19H93.2c0,.25,0,.5,0,.75q0,2.91,0,5.81v.33h3.45V93.19h3.45v7H0V99.8Q0,50,0,.29A1.16,1.16,0,0,1,.05.05C.06.17.07.3.07.42q0,11.72,0,23.44c0,.11,0,.22,0,.33H24.21v-.36q0-11.71,0-23.41c0-.12,0-.25,0-.37h3.43V3.51h6.9c0-.12,0-.22,0-.33q0-1.56,0-3.13h17.2V3.48H48.36V6.91H38v6.9H34.56v-3.4H31.14V6.94H27.69V17.28h3.38v3.46H27.69V24.2h3.39v3.46h-3.4V34.5H17.31V31.1H13.88V27.68H.08v3.43H13.83v3.43h3.49V38h6.85v3.45H20.78v3.46h3.38v3.46H17.31c0-.11,0-.21,0-.32q0-3.14,0-6.27v-.3H13.83v3.43h-3.4v6.91h3.45V48.34ZM.08,100.08H24.19V76H.08ZM10.37,38V34.54H.08v6.93h3.4v6.89H.08v3.43H7V38ZM.08,62.14v3.42H3.51V62.14Zm20.68-31h3.42V27.68H20.77Z" transform="translate(0 -0.05)"/><path class="cls-2" d="M65.6,10.39q0-1.46,0-2.92c0-.17,0-.34,0-.54H62.17V3.5H58.74V.05H65.6V3.51h6.9c0-.12,0-.22,0-.33q0-1.56,0-3.13h3.43c0,.12,0,.25,0,.37q0,11.71,0,23.41v.37h24.16v3.43H96.63v6.88H89.75V38h6.9v3.47h3.46v3.38H93.19V41.44h-6.9V31.13h6.87V27.68H82.82v3.4H75.94V27.69H72.48v3.38H65.6V27.65h3.46V24.22h3.42V20.76H69.09V17.3h3.39V13.85H69.09V10.39h3.39V6.94H69v3.45H65.6Z" transform="translate(0 -0.05)"/><path class="cls-1" d="M24.22.05c0,.12,0,.25,0,.37q0,11.71,0,23.41v.36H.07c0-.11,0-.22,0-.33Q.07,12.14.07.42C.07.3.06.17.05.05ZM3.54,3.53V20.73h17.2V3.53Z" transform="translate(0 -0.05)"/><path class="cls-1" d="M100.11,24.22H76v-.37Q76,12.13,76,.42c0-.12,0-.25,0-.37h24.17ZM79.43,3.53V20.73H96.62V3.53Z" transform="translate(0 -0.05)"/><path class="cls-2" d="M100.11,72.45h-6.9V62.16h3.45V51.82h3.45Z" transform="translate(0 -0.05)"/><path class="cls-1" d="M100.11,41.48H96.65V38h-6.9V34.53h6.88V27.65h3.48v6.91H96.69V38h3.42Z" transform="translate(0 -0.05)"/><path class="cls-1" d="M34.57.05q0,1.56,0,3.13c0,.1,0,.21,0,.33h-6.9V.05Z" transform="translate(0 -0.05)"/><path class="cls-1" d="M72.51.05q0,1.56,0,3.13c0,.1,0,.21,0,.33H65.6V.05Z" transform="translate(0 -0.05)"/><path class="cls-2" d="M100.11,38H96.69V34.56h3.42Z" transform="translate(0 -0.05)"/><path class="cls-2" d="M100.11,79.37H96.69V75.94h3.42Z" transform="translate(0 -0.05)"/><path class="cls-2" d="M100.11,86.28H96.69V82.85h3.42Z" transform="translate(0 -0.05)"/><path class="cls-2" d="M48.34,48.34q0-1.46,0-2.92c0-.17,0-.34,0-.53H44.88v3.44h-3.4V41.47H55.24V34.56H72.49V31.14h3.45V41.45H86.29v3.43h3.43V51.8h3.47v6.88H89.77v-3.4H86.28V48.36H82.85V44.89H72.48v6.87h-3.4V44.87H62.16V41.46H58.7v6.88H55.28v3.43H51.82V48.34H48.34Z" transform="translate(0 -0.05)"/><path class="cls-2" d="M31.13,38V34.56h3.41V31.1H31.15V27.64h3.4V24.22H38v3.39h3.46V24.23h3.4v6.88h6.91v3.4H48.36V38H38v6.85H34.56V41.46H31.1v3.39H27.66V38Z" transform="translate(0 -0.05)"/><path class="cls-2" d="M55.25,10.39q0,1.46,0,2.92c0,.17,0,.34,0,.54h3.41v6.89h-3.4V24.2h3.4v3.45h-3.4v3.43H51.82V17.31H48.34q0-1.46,0-2.92c0-.17,0-.34,0-.53H44.87v3.45H41.49V10.4l.22,0H55.25Z" transform="translate(0 -0.05)"/><path class="cls-2" d="M48.33,55.25V51.82h3.45V65.58h3.47V69H51.79v3.42H48.34V69H44.91V62.16H48.3V58.71H41.49V55.25Z" transform="translate(0 -0.05)"/><path class="cls-2" d="M82.8,72.51V82.79H72.52V72.51ZM76,76v3.42h3.42V76Z" transform="translate(0 -0.05)"/><path class="cls-2" d="M31.1,69.05v3.4H27.66V65.59h6.88V62.17H38v3.4h3.42V69H38v3.42H34.56V69.05Z" transform="translate(0 -0.05)"/><path class="cls-2" d="M82.84,69v-3.4H79.43V62.16h3.4V58.74h3.46v3.4H89.7V69Z" transform="translate(0 -0.05)"/><path class="cls-2" d="M58.73,55.25V48.34h3.39V51.8h3.47v3.45H62.13v3.43H58.7V62.1H55.26V55.25Z" transform="translate(0 -0.05)"/><path class="cls-2" d="M41.42,55.26H38v3.41H34.57V51.82H38V48.35h3.45Z" transform="translate(0 -0.05)"/><path class="cls-2" d="M93.2,93.19q0-1.46,0-2.92c0-.17,0-.34,0-.54H89.77V86.29h6.85v6.9H93.2Z" transform="translate(0 -0.05)"/><path class="cls-2" d="M55.25,10.39c0-.23,0-.46,0-.69q0-2.92,0-5.84V3.54h3.45V6.95h3.42v3.45H55.25Z" transform="translate(0 -0.05)"/><path class="cls-2" d="M34.57,17.31h6.85v6.86H38V20.75H34.57Z" transform="translate(0 -0.05)"/><path class="cls-2" d="M38,93.18v3.44H31.14V89.77h3.37v3.41Z" transform="translate(0 -0.05)"/><path class="cls-2" d="M48.34,93.19V89.77h6.91v3.42H48.34Z" transform="translate(0 -0.05)"/><path class="cls-2" d="M48.34,17.31c0,.23,0,.46,0,.69q0,2.92,0,5.84v.33H44.92V17.31h3.42Z" transform="translate(0 -0.05)"/><path class="cls-2" d="M89.77,75.94h3.42v6.85H89.77Z" transform="translate(0 -0.05)"/><path class="cls-2" d="M65.6,86.28V89.7H58.74V86.28H65.6Z" transform="translate(0 -0.05)"/><path class="cls-2" d="M65.6,10.39v3.42H62.17V10.39H65.6Z" transform="translate(0 -0.05)"/><path class="cls-2" d="M65.6,27.65H62.18V24.23H65.6v3.42Z" transform="translate(0 -0.05)"/><path class="cls-2" d="M86.28,86.28V82.85H89.7v3.42Z" transform="translate(0 -0.05)"/><path class="cls-2" d="M38,75.94v3.42H34.57V75.94H38Z" transform="translate(0 -0.05)"/><path class="cls-2" d="M48.34,48.34v3.42H44.92V48.34h3.42Z" transform="translate(0 -0.05)"/><path class="cls-2" d="M38,75.94V72.52h3.42v3.42H38Z" transform="translate(0 -0.05)"/><path class="cls-2" d="M65.6,17.31v3.42H62.17V17.31Z" transform="translate(0 -0.05)"/><path class="cls-2" d="M79.43,48.34H82.8v3.42H79.43Z" transform="translate(0 -0.05)"/><path class="cls-2" d="M65.61,20.79H69v3.38H65.61Z" transform="translate(0 -0.05)"/><path class="cls-2" d="M41.43,58.74v3.37H38V58.74Z" transform="translate(0 -0.05)"/><path class="cls-2" d="M20.8,65.59h3.37V69H20.8Z" transform="translate(0 -0.05)"/><path class="cls-2" d="M62.11,24.17H58.74V20.8h3.37Z" transform="translate(0 -0.05)"/><path class="cls-2" d="M34.51,20.79v3.37H31.15V20.79Z" transform="translate(0 -0.05)"/><path class="cls-1" d="M.08,100.08V76H24.19v24.11ZM20.74,79.42H3.55v17.2H20.74Z" transform="translate(0 -0.05)"/><path class="cls-1" d="M10.37,38H7v13.8H.08V48.36h3.4V41.47H.08V34.54H10.37Z" transform="translate(0 -0.05)"/><path class="cls-1" d="M17.32,48.34H13.87v3.45H10.42V44.88h3.4V41.45H17.3v.3q0,3.14,0,6.27c0,.11,0,.21,0,.32Z" transform="translate(0 -0.05)"/><path class="cls-1" d="M48.34,93.19h6.91c0,.21,0,.43,0,.64q0,3,0,5.92v.33H48.35v-.3q0-3.13,0-6.26C48.35,93.41,48.34,93.3,48.34,93.19Z" transform="translate(0 -0.05)"/><path class="cls-1" d="M.08,62.14H3.51v3.42H.08Z" transform="translate(0 -0.05)"/><path class="cls-1" d="M20.77,31.1V27.68h3.42V31.1Z" transform="translate(0 -0.05)"/><path class="cls-2" d="M3.54,3.53h17.2V20.73H3.54Zm3.4,13.74H17.28V6.94H6.94Z" transform="translate(0 -0.05)"/><path class="cls-2" d="M79.43,3.53H96.62V20.73H79.43Zm3.4,3.4V17.27H93.17V6.94Z" transform="translate(0 -0.05)"/><path class="cls-1" d="M76,76h3.42v3.42H76Z" transform="translate(0 -0.05)"/><path class="cls-2" d="M20.74,79.42v17.2H3.55V79.42ZM6.94,93.16H17.28V82.83H6.94Z" transform="translate(0 -0.05)"/><path class="cls-1" d="M6.94,17.28V6.94H17.28V17.28Z" transform="translate(0 -0.05)"/><path class="cls-1" d="M82.83,6.94H93.17V17.27H82.83Z" transform="translate(0 -0.05)"/><path class="cls-1" d="M6.94,93.16V82.83H17.28V93.16Z" transform="translate(0 -0.05)"/></svg>