<?xml version="1.0" encoding="utf-8"?>
<!-- Generator: Adobe Illustrator 22.0.0, SVG Export Plug-In . SVG Version: 6.00 Build 0)  -->
<svg version="1.1" id="图层_1" xmlns="http://www.w3.org/2000/svg" xmlns:xlink="http://www.w3.org/1999/xlink" x="0px" y="0px"
	 viewBox="0 0 359 23" style="enable-background:new 0 0 359 23;" xml:space="preserve">
<style type="text/css">
	.st0{fill:#4D4E4E;}
</style>
<g>
	<path class="st0" d="M33.3,18.4c0.9-0.7,1.8-1.3,2.6-1.8c0.1,0.5,0.2,0.8,0.3,1.2c-1.1,0.7-2,1.3-2.8,1.9c-0.4,0.3-0.7,0.6-0.9,0.9
		l-0.9-0.9c0.5-0.6,0.7-1.2,0.6-2v-7.7H30V9h3.3V18.4z M33.4,6.5c-0.8-1-1.7-2-2.7-3.1l0.8-0.6c0.9,0.9,1.8,1.9,2.8,2.9L33.4,6.5z
		 M35.2,4.3v-1h10.4v5.5c0,3.4,0.1,5.8,0.2,7.2c0.1,1.3,0.5,2.4,1,3.2c0.2,0.4,0.4,0.5,0.7,0.5c0.2-0.1,0.4-0.3,0.4-0.7
		c0.1-0.8,0.2-1.9,0.3-3.3c0.3,0.1,0.6,0.2,1,0.3c-0.1,1.4-0.2,2.4-0.3,3.2c-0.2,1.2-0.6,1.8-1.4,1.8c-0.7,0-1.3-0.4-1.7-1.3
		c-0.5-0.9-0.8-2.1-1-3.5c-0.2-1.4-0.3-3.7-0.3-7.1V4.3h-4.8v6.5h3.6v1h-3.6v9.3h-1.1v-9.3H35v-1h3.7V4.3H35.2z"/>
	<path class="st0" d="M68.9,15.5c0.2,0.1,0.5,0.2,1,0.4c-0.2,1.3-0.4,2.2-0.6,2.8c-0.4,1.2-1.2,1.8-2.6,1.8c-1,0-1.8-0.3-2.6-0.9
		c-2.1-1.4-3.2-4.3-3.3-8.7c0-0.9,0-2.7,0-5.5c0-0.3,0-0.6,0-0.7h-9.6V3.7H62c0,0.3,0,0.8,0,1.6c0,0.6,0,1.3,0,2.1
		c0,0.7,0,1.2,0,1.7c2-1.4,3.9-2.8,5.6-4.3l0.9,0.8c-1.6,1.2-3.4,2.5-5.6,4.1c2.5,1.2,4.6,2.2,6.1,3l-0.7,1
		c-1.4-0.8-3.5-1.9-6.3-3.4c0,0.1,0,0.2,0,0.3c0,0.2,0,0.4,0,0.5c0.1,3.9,1,6.4,2.7,7.6c0.6,0.5,1.3,0.7,2.1,0.7
		c0.8,0,1.4-0.4,1.6-1.3C68.6,17.2,68.8,16.3,68.9,15.5z"/>
	<path class="st0" d="M72.2,5.2h2c0.2-0.8,0.4-1.8,0.7-2.9l1,0.2c-0.1,0.5-0.3,1.2-0.6,2.1c-0.1,0.3-0.1,0.5-0.2,0.6h3.5v0.9h-3.8
		c-0.5,1.7-1,3.4-1.6,5.3h2.1V8.3h1v3.1h1.8v0.9h-1.8v3.5c0.1,0,0.1,0,0.3,0c0.8-0.1,1.4-0.2,1.8-0.3c-0.1,0.4-0.1,0.7-0.1,1
		c-0.2,0-0.5,0.1-0.9,0.1c-0.5,0.1-0.8,0.1-1.1,0.1v4.3h-1v-4.2c-1,0.1-2,0.3-3.2,0.5l-0.2-1c0.4,0,0.9-0.1,1.6-0.2
		c0.8-0.1,1.4-0.2,1.8-0.2v-3.6h-3.1v-1c0.5-1.6,1-3.3,1.6-5.2h-1.7V5.2z M90.4,8.6c-2.6-1.3-4.6-2.9-5.9-4.8
		c-1.3,1.9-3.3,3.6-5.9,5.2c-0.2-0.3-0.4-0.5-0.7-0.9c3-1.6,5.1-3.6,6.4-5.9l1.1,0.2c0,0.1-0.1,0.1-0.2,0.3
		c-0.1,0.2-0.2,0.3-0.2,0.4c1.5,2.2,3.5,3.7,5.9,4.7C90.9,7.8,90.7,8.1,90.4,8.6z M80.2,21.1h-1V9.9h4.9v9.2c0,1.2-0.6,1.8-1.8,1.8
		c-0.2,0-0.4,0-0.6,0c-0.1,0-0.2,0-0.3,0c-0.1,0-0.2,0-0.4,0c0-0.3-0.1-0.6-0.2-1c0.2,0,0.4,0,0.5,0c0.1,0,0.2,0,0.3,0
		c0.1,0,0.2,0,0.4,0c0.7,0,1-0.3,1-1v-2.3h-3V21.1z M80.2,10.8v2h3v-2H80.2z M80.2,13.7v2.1h3v-2.1H80.2z M81.4,7.2h6.1v0.9h-6.1
		V7.2z M86,10.6H87v6.9H86V10.6z M89,9.6h1v9.1c0.1,1.5-0.6,2.2-2.2,2.2c-0.2,0-0.5,0-0.7,0c-0.1,0-0.2,0-0.3,0c-0.1,0-0.3,0-0.5,0
		c0-0.3-0.1-0.7-0.2-1c0.2,0,0.4,0,0.7,0c0.1,0,0.3,0,0.4,0c0.1,0,0.3,0,0.6,0c0.5,0,0.8-0.1,1-0.3c0.2-0.2,0.3-0.5,0.3-1.1V9.6z"/>
	<path class="st0" d="M98.7,3.2l0.8-0.7c1.7,1.3,3.2,3.5,4.6,6.7c2,4.8,4.6,8.2,7.8,10c-0.3,0.4-0.6,0.7-0.9,1.1
		c-3.2-2.3-5.8-5.8-7.8-10.5c-0.4-0.8-0.6-1.3-0.8-1.7c-1.5,5.2-4.3,9.3-8.4,12.4c-0.3-0.3-0.6-0.7-0.9-1c4.3-2.9,7.1-7.2,8.6-12.7
		C100.8,5.2,99.8,4,98.7,3.2z"/>
	<path class="st0" d="M117.1,11c-1-0.9-2-1.7-3-2.5l0.7-0.7c1.1,0.8,2.1,1.6,3.1,2.4L117.1,11z M114.4,20.5c0.9-2.3,1.7-4.7,2.4-7.2
		c0.3,0.2,0.7,0.3,1.1,0.5c-0.6,1.8-1.4,4.1-2.3,7.1L114.4,20.5z M117.9,6c-1.1-1.1-2.1-2-2.9-2.7l0.8-0.7c0.9,0.8,1.9,1.6,3,2.6
		L117.9,6z M119.1,11.4h6.3V6.9H120v-1h5.4V2.3h1.1v3.7h5.5v1h-5.5v4.5h6.4v1h-8l1.1,0.4c-1.3,2.1-2.9,4.1-4.6,6.1
		c0.3,0,0.7,0,1.3,0c3.3-0.1,5.7-0.2,7.1-0.3c-0.7-0.9-1.5-2-2.5-3.3l0.9-0.6c1.1,1.3,2.5,3.1,4.3,5.6l-0.9,0.6
		c-0.3-0.5-0.7-1-1-1.4c-2.8,0.1-5.7,0.2-8.4,0.4c-0.8,0-1.5,0.1-2,0.2l-0.6-1.1c0.4-0.2,0.9-0.6,1.4-1.2c1.5-1.6,2.7-3.4,3.9-5.4
		h-5.8V11.4z"/>
	<path class="st0" d="M145.4,21.3h-0.8l1.6-5h1.1L145.4,21.3z"/>
	<path class="st0" d="M166.9,17.8c1.2-0.9,2.2-1.7,3.2-2.5c0.1,0.4,0.2,0.8,0.4,1.1c-1.1,0.7-2.2,1.6-3.5,2.6
		c-0.3,0.3-0.7,0.6-0.9,0.9l-0.9-0.9c0.3-0.3,0.4-0.5,0.5-0.8c0.1-0.3,0.2-0.6,0.2-1V10H163V9h3.8V17.8z M168.1,6.8
		c-1-1.1-2.1-2.2-3.1-3.2l0.8-0.7C166.9,4,168,5,169,6L168.1,6.8z M174.3,2.5h1.1v5.7h5.5v1.1h-5.5v9.5h6.5v1.1h-12.6v-1.1h5V2.5z"
		/>
	<path class="st0" d="M184.1,5.2h2c0.2-0.8,0.4-1.8,0.7-2.9l1,0.2c-0.1,0.5-0.3,1.2-0.6,2.1c-0.1,0.3-0.1,0.5-0.2,0.6h3.5v0.9h-3.8
		c-0.5,1.7-1,3.4-1.6,5.3h2.1V8.3h1v3.1h1.8v0.9h-1.8v3.5c0.1,0,0.1,0,0.3,0c0.8-0.1,1.4-0.2,1.8-0.3c-0.1,0.4-0.1,0.7-0.1,1
		c-0.2,0-0.5,0.1-0.9,0.1c-0.5,0.1-0.8,0.1-1.1,0.1v4.3h-1v-4.2c-1,0.1-2,0.3-3.2,0.5l-0.2-1c0.4,0,0.9-0.1,1.6-0.2
		c0.8-0.1,1.4-0.2,1.8-0.2v-3.6h-3.1v-1c0.5-1.6,1-3.3,1.6-5.2h-1.7V5.2z M202.3,8.6c-2.6-1.3-4.6-2.9-5.9-4.8
		c-1.3,1.9-3.3,3.6-5.9,5.2c-0.2-0.3-0.4-0.5-0.7-0.9c3-1.6,5.1-3.6,6.4-5.9l1.1,0.2c0,0.1-0.1,0.1-0.2,0.3
		c-0.1,0.2-0.2,0.3-0.2,0.4c1.5,2.2,3.5,3.7,5.9,4.7C202.8,7.8,202.6,8.1,202.3,8.6z M192.1,21.1h-1V9.9h4.9v9.2
		c0,1.2-0.6,1.8-1.8,1.8c-0.2,0-0.4,0-0.6,0c-0.1,0-0.2,0-0.3,0c-0.1,0-0.2,0-0.4,0c0-0.3-0.1-0.6-0.2-1c0.2,0,0.4,0,0.5,0
		c0.1,0,0.2,0,0.3,0c0.1,0,0.2,0,0.4,0c0.7,0,1-0.3,1-1v-2.3h-3V21.1z M192.1,10.8v2h3v-2H192.1z M192.1,13.7v2.1h3v-2.1H192.1z
		 M193.3,7.2h6.1v0.9h-6.1V7.2z M198,10.6h0.9v6.9H198V10.6z M200.9,9.6h1v9.1c0.1,1.5-0.6,2.2-2.2,2.2c-0.2,0-0.5,0-0.7,0
		c-0.1,0-0.2,0-0.3,0c-0.1,0-0.3,0-0.5,0c0-0.3-0.1-0.7-0.2-1c0.2,0,0.4,0,0.7,0c0.1,0,0.3,0,0.4,0c0.1,0,0.3,0,0.6,0
		c0.5,0,0.8-0.1,1-0.3c0.2-0.2,0.3-0.5,0.3-1.1V9.6z"/>
	<path class="st0" d="M210.6,3.2l0.8-0.7c1.7,1.3,3.2,3.5,4.6,6.7c2,4.8,4.6,8.2,7.8,10c-0.3,0.4-0.6,0.7-0.9,1.1
		c-3.2-2.3-5.8-5.8-7.8-10.5c-0.4-0.8-0.6-1.3-0.8-1.7c-1.5,5.2-4.3,9.3-8.4,12.4c-0.3-0.3-0.6-0.7-0.9-1c4.3-2.9,7.1-7.2,8.6-12.7
		C212.7,5.2,211.7,4,210.6,3.2z"/>
	<path class="st0" d="M231,21.1h-1.1V10.6c-0.9,1-2,2.1-3.3,3.2c-0.2-0.3-0.5-0.6-0.7-0.9c2.6-2.1,4.7-4.5,6.3-7.1h-5.6v-1h6.1
		c0.5-0.9,1-1.8,1.4-2.7l1.1,0.3c-0.5,1-0.9,1.8-1.2,2.4h10.6v1h-11.2c-0.5,0.9-1.1,1.8-1.8,2.6h10.7v9.9c0.1,1.5-0.7,2.2-2.3,2.2
		c-0.7,0-1.6,0-2.8,0c-0.1-0.4-0.2-0.8-0.3-1.1c0.8,0,1.7,0,2.8,0c0.6,0,1-0.1,1.2-0.3c0.2-0.2,0.3-0.6,0.3-1.1v-1.7H231V21.1z
		 M231,9.4V12h10.3V9.4H231z M231,13v2.6h10.3V13H231z"/>
	<path class="st0" d="M247.3,9.2h2.9V6h-2.5V5.2h2.5V2.3h0.9v2.9h2.2V6h-2.2v3.2h2.7v0.9h-2.1v3.1h1.9v0.9h-1.9v4.3
		c1.1,0.8,2.8,1.1,5.1,1.1c0.3,0,0.8,0,1.6,0c3.7,0,6.2,0,7.5,0c-0.2,0.4-0.3,0.7-0.4,1c-0.3,0-0.8,0-1.7,0c-3.8,0-6.2,0-7.3,0
		c-3.8,0-6.3-1.3-7.5-3.9c-0.2,1.4-0.7,2.9-1.5,4.3c-0.3-0.3-0.6-0.5-0.8-0.6c0.7-1.3,1.1-2.4,1.3-3.6c0.2-1.1,0.3-2.7,0.3-4.9h0.9
		c0,1.4,0,2.4-0.1,3.2c0.5,1.1,1.1,2,1.6,2.6v-7.4h-3.5V9.2z M253.6,16.4l-0.2-1c0.1,0,0.2,0,0.4,0c0.2,0,0.5-0.1,1-0.1V3.9h-1.1V3
		h6.7v0.9h-1.1v10.6c0,0,0.1,0,0.2,0c0.5-0.1,0.9-0.2,1.2-0.2c0,0.3,0,0.6,0.1,0.9c-0.2,0-0.4,0.1-0.8,0.1c-0.3,0-0.5,0.1-0.7,0.1
		v3.1h-0.9v-3C256.5,15.9,255,16.1,253.6,16.4z M255.7,3.9v3h2.6v-3H255.7z M255.7,7.8v3h2.6v-3H255.7z M255.7,15
		c0.1,0,0.3-0.1,0.6-0.1c0.4-0.1,1.1-0.2,2-0.3v-2.9h-2.6V15z M260.6,5.4V4.5h4.6v0.9c-0.3,2.9-0.9,5.4-1.6,7.4
		c0.6,1.4,1.2,3,1.9,4.7l-0.8,0.4c-0.2-0.6-0.6-1.5-1-2.6c-0.2-0.5-0.4-1-0.5-1.2c-0.6,1.4-1.4,2.9-2.3,4.2
		c-0.2-0.2-0.5-0.4-0.7-0.6c1.1-1.7,2-3.3,2.6-4.8c-0.4-1-1-2.4-1.7-4.1c-0.2-0.5-0.4-1-0.5-1.2l0.8-0.3c0.6,1.4,1.2,2.9,1.8,4.4
		c0.5-1.6,0.9-3.7,1.2-6.2H260.6z"/>
	<path class="st0" d="M273,21.1h-1.1V10.6c-0.9,1-2,2.1-3.3,3.2c-0.2-0.3-0.5-0.6-0.7-0.9c2.6-2.1,4.7-4.5,6.3-7.1h-5.6v-1h6.1
		c0.5-0.9,1-1.8,1.4-2.7l1.1,0.3c-0.5,1-0.9,1.8-1.2,2.4h10.6v1h-11.2c-0.5,0.9-1.1,1.8-1.8,2.6h10.7v9.9c0.1,1.5-0.7,2.2-2.3,2.2
		c-0.7,0-1.6,0-2.8,0c-0.1-0.4-0.2-0.8-0.3-1.1c0.8,0,1.7,0,2.8,0c0.6,0,1-0.1,1.2-0.3c0.2-0.2,0.3-0.6,0.3-1.1v-1.7H273V21.1z
		 M273,9.4V12h10.3V9.4H273z M273,13v2.6h10.3V13H273z"/>
	<path class="st0" d="M289.7,4.8c0-0.3-0.1-0.7-0.2-1c2.4-0.1,4.7-0.3,6.8-0.7l0.3,1c-0.8,0.1-1.8,0.2-3,0.3v3.5h3v1h-3v2.3l0.5-0.5
		c0.2,0.2,0.5,0.4,0.9,0.8c0.9,0.7,1.4,1.3,1.7,1.5l-0.8,0.7c-0.2-0.2-0.7-0.7-1.4-1.4c-0.4-0.4-0.7-0.7-0.9-0.8v9.3h-1v-10
		c-0.7,2.4-1.7,4.5-2.9,6.3c-0.2-0.5-0.3-0.9-0.5-1.2c1.4-1.9,2.5-4.2,3.5-7.1h-3.2v-1h3.2V4.6C291.8,4.7,290.8,4.8,289.7,4.8z
		 M296,15l7.6-0.7V2.3h1.1v12l3.2-0.3l0.1,1l-3.2,0.3v5.8h-1.1v-5.7l-7.5,0.7L296,15z M297.2,9.9l0.7-0.7c1,0.8,2,1.6,3.1,2.6
		l-0.8,0.8C299.3,11.6,298.3,10.7,297.2,9.9z M298.4,5.1l0.7-0.7c1,0.7,2,1.6,3.2,2.7l-0.8,0.8C300.3,6.8,299.3,5.9,298.4,5.1z"/>
	<path class="st0" d="M309.9,12.6c0.5-0.1,1.4-0.4,2.9-0.8V7.1h-2.7V6.2h2.7V2.4h1v3.8h2.4v0.9h-2.4v4.4c0.4-0.1,1-0.3,1.8-0.5
		c0.3-0.1,0.6-0.2,0.7-0.2c0,0.4,0,0.8,0,1c-0.7,0.2-1.6,0.4-2.5,0.7v6c0.1,1.5-0.6,2.2-1.9,2.2c-0.4,0-0.9,0-1.4,0
		c-0.1-0.4-0.1-0.7-0.3-1.1c0.1,0,0.3,0,0.6,0c0.1,0,0.2,0,0.4,0c0.1,0,0.3,0,0.6,0c0.4,0,0.7-0.1,0.9-0.3c0.2-0.2,0.2-0.5,0.2-1
		v-5.7c-0.2,0.1-0.5,0.1-0.9,0.3c-0.3,0.1-0.9,0.3-1.9,0.6L309.9,12.6z M317.5,10.8v-1h4.8V6.4h-5v-1h5V2.3h1.1v3.2h5.3v1h-5.3v3.4
		h4.2v0.9c-1,2.8-2.3,4.9-4,6.4c1.2,1,3,1.9,5.4,2.8c-0.3,0.3-0.5,0.7-0.7,1c-2.4-1-4.2-2-5.5-3.1c-1.5,1.2-3.6,2.2-6.3,3.2
		c-0.2-0.2-0.4-0.6-0.7-0.9c2.7-1,4.8-2,6.2-3c-1.4-1.4-2.5-3.5-3.4-6.3H317.5z M326.3,10.8h-6.7c0.8,2.5,1.8,4.4,3.1,5.6
		C324.2,15.1,325.4,13.3,326.3,10.8z"/>
</g>
</svg>
