<?xml version="1.0" encoding="utf-8"?>
<!-- Generator: Adobe Illustrator 17.0.0, SVG Export Plug-In . SVG Version: 6.00 Build 0)  -->
<!DOCTYPE svg PUBLIC "-//W3C//DTD SVG 1.1//EN" "http://www.w3.org/Graphics/SVG/1.1/DTD/svg11.dtd">
<svg version="1.1" id="图层_1" xmlns="http://www.w3.org/2000/svg" xmlns:xlink="http://www.w3.org/1999/xlink" x="0px" y="0px"
	 width="324.495px" height="367.729px" viewBox="0 0 324.495 367.729" enable-background="new 0 0 324.495 367.729"
	 xml:space="preserve">
<g>
	<g>
		<g>
			<g>
				<g>
					<g>
						<polyline fill="none" stroke="#FFFFFF" stroke-miterlimit="10" points="159.368,355.801 160.619,357.966 161.869,355.801 
													"/>
						
							<line fill="none" stroke="#FFFFFF" stroke-miterlimit="10" stroke-dasharray="5.0269,5.0269" x1="164.384" y1="351.448" x2="308.959" y2="101.155"/>
						<polyline fill="none" stroke="#FFFFFF" stroke-miterlimit="10" points="310.216,98.978 311.466,96.813 308.966,96.813 						
							"/>
						
							<line fill="none" stroke="#FFFFFF" stroke-miterlimit="10" stroke-dasharray="5.0287,5.0287" x1="303.938" y1="96.813" x2="14.786" y2="96.813"/>
						<polyline fill="none" stroke="#FFFFFF" stroke-miterlimit="10" points="12.271,96.813 9.771,96.813 11.022,98.978 						"/>
						
							<line fill="none" stroke="#FFFFFF" stroke-miterlimit="10" stroke-dasharray="5.0269,5.0269" x1="13.536" y1="103.331" x2="158.111" y2="353.625"/>
					</g>
				</g>
			</g>
			<path fill="#FFFFFF" d="M160.619,348.203c5.396,0,9.771,4.371,9.771,9.763s-4.375,9.763-9.771,9.763s-9.771-4.371-9.771-9.763
				S155.222,348.203,160.619,348.203z"/>
			<path fill="#FFFFFF" d="M9.771,87.051c5.396,0,9.771,4.371,9.771,9.763s-4.375,9.763-9.771,9.763S0,102.206,0,96.814
				S4.375,87.051,9.771,87.051z"/>
			<path fill="#FFFFFF" d="M311.466,87.051c5.396,0,9.771,4.371,9.771,9.763s-4.375,9.763-9.771,9.763s-9.771-4.371-9.771-9.763
				S306.07,87.051,311.466,87.051z"/>
			<g>
				<g>
					<g>
						<polyline fill="none" stroke="#FFFFFF" stroke-miterlimit="10" points="162.625,11.928 163.876,9.763 165.126,11.928 						
							"/>
						
							<line fill="none" stroke="#FFFFFF" stroke-miterlimit="10" stroke-dasharray="5.0269,5.0269" x1="167.641" y1="16.28" x2="312.216" y2="266.574"/>
						<polyline fill="none" stroke="#FFFFFF" stroke-miterlimit="10" points="313.473,268.75 314.724,270.915 312.224,270.915 
													"/>
						
							<line fill="none" stroke="#FFFFFF" stroke-miterlimit="10" stroke-dasharray="5.0287,5.0287" x1="307.195" y1="270.915" x2="18.043" y2="270.915"/>
						<polyline fill="none" stroke="#FFFFFF" stroke-miterlimit="10" points="15.528,270.915 13.028,270.915 14.279,268.75 						
							"/>
						
							<line fill="none" stroke="#FFFFFF" stroke-miterlimit="10" stroke-dasharray="5.0269,5.0269" x1="16.793" y1="264.397" x2="161.368" y2="14.104"/>
					</g>
				</g>
			</g>
			<path fill="#FFFFFF" d="M163.876,0c5.396,0,9.771,4.371,9.771,9.763s-4.375,9.763-9.771,9.763s-9.771-4.371-9.771-9.763
				S158.479,0,163.876,0z"/>
			<path fill="#FFFFFF" d="M13.028,261.152c5.396,0,9.771,4.371,9.771,9.763s-4.375,9.763-9.771,9.763
				c-5.397,0-9.771-4.371-9.771-9.763S7.632,261.152,13.028,261.152z"/>
			<path fill="#FFFFFF" d="M314.724,261.152c5.396,0,9.771,4.371,9.771,9.763s-4.375,9.763-9.771,9.763s-9.771-4.371-9.771-9.763
				C304.952,265.523,309.327,261.152,314.724,261.152z"/>
		</g>
	</g>
</g>
</svg>
