<?xml version="1.0" encoding="utf-8"?>
<!-- Generator: Adobe Illustrator 17.0.0, SVG Export Plug-In . SVG Version: 6.00 Build 0)  -->
<!DOCTYPE svg PUBLIC "-//W3C//DTD SVG 1.1//EN" "http://www.w3.org/Graphics/SVG/1.1/DTD/svg11.dtd">
<svg version="1.1" id="图层_1" xmlns="http://www.w3.org/2000/svg" xmlns:xlink="http://www.w3.org/1999/xlink" x="0px" y="0px"
	 width="1095.156px" height="673.898px" viewBox="47.422 84.5 1095.156 673.898"
	 enable-background="new 47.422 84.5 1095.156 673.898" xml:space="preserve">
<linearGradient id="SVGID_1_" gradientUnits="userSpaceOnUse" x1="197.6631" y1="876.0224" x2="594.1531" y2="189.2816" gradientTransform="matrix(1 0 0 -1 199.275 955.945)">
	<stop  offset="0" style="stop-color:#F7AF01"/>
	<stop  offset="0.8015" style="stop-color:#FFFFFF;stop-opacity:0"/>
</linearGradient>
<path fill="none" stroke="url(#SVGID_1_)" stroke-miterlimit="10" d="M539.733,165.949l-46.82,80.949h-93.64l-46.82-80.949
	L399.273,85h93.64L539.733,165.949z M840.733,165.949l-46.82,80.949h-93.64l-46.82-80.949L700.273,85h93.64L840.733,165.949z
	 M539.733,676.949l-46.82,80.949h-93.64l-46.82-80.949L399.273,596h93.64L539.733,676.949z M840.733,676.949l-46.82,80.949h-93.64
	l-46.82-80.949L700.273,596h93.64L840.733,676.949z M945.18,333.383h-93.64l-46.82-80.871l46.82-80.87h93.64l46.82,80.87
	L945.18,333.383z M945.18,504.383h-93.64l-46.82-80.871l46.82-80.87h93.64l46.82,80.87L945.18,504.383z M945.18,678.383h-93.64
	l-46.82-80.871l46.82-80.87h93.64l46.82,80.87L945.18,678.383z M340.18,333.383h-93.64l-46.82-80.871l46.82-80.87h93.64l46.82,80.87
	L340.18,333.383z M340.18,504.383h-93.64l-46.82-80.871l46.82-80.87h93.64l46.82,80.87L340.18,504.383z M340.18,678.383h-93.64
	l-46.82-80.871l46.82-80.87h93.64l46.82,80.87L340.18,678.383z M235.28,508.44l-46.82,80.949H94.82L48,508.44l46.82-80.949h93.64
	L235.28,508.44z M188.46,416.758H94.82L48,335.888l46.82-80.871h93.64l46.82,80.871L188.46,416.758z M1142,506.813l-46.82,80.949
	h-93.64l-46.82-80.949l46.82-80.949h93.64L1142,506.813z M1095.18,418.383h-93.64l-46.82-80.871l46.82-80.87h93.64l46.82,80.87
	L1095.18,418.383z"/>
<linearGradient id="SVGID_2_" gradientUnits="userSpaceOnUse" x1="213.8858" y1="716.2687" x2="578.9382" y2="351.2163" gradientTransform="matrix(1 0 0 -1 199.275 955.945)">
	<stop  offset="0" style="stop-color:#FFC946"/>
	<stop  offset="1" style="stop-color:#F7AF01"/>
</linearGradient>
<path fill="url(#SVGID_2_)" d="M689.733,250.949l-46.82,80.949h-93.64l-46.82-80.949L549.273,170h93.64L689.733,250.949z
	 M538.28,508.44l-46.82,80.949h-93.64L351,508.44l46.82-80.949h93.64L538.28,508.44z M842,506.813l-46.82,80.949h-93.64
	l-46.82-80.949l46.82-80.949h93.64L842,506.813z M642.913,674h-93.64l-46.82-80.871l46.82-80.871h93.64l46.82,80.871L642.913,674z
	 M491.46,416.758h-93.64L351,335.888l46.82-80.871h93.64l46.82,80.871L491.46,416.758z M795.18,418.383h-93.64l-46.82-80.871
	l46.82-80.87h93.64l46.82,80.87L795.18,418.383z"/>
<polygon fill="#FF9D11" points="689.733,423.017 642.913,503.966 549.273,503.966 502.453,423.017 549.273,342.068 642.913,342.068 
	"/>
<text transform="matrix(1 0 0 1 696.8691 517.1172)" fill="#FFFFFF" font-family="'FZLTXHK--GBK1-0'" font-size="27.8177">储存</text>
<text transform="matrix(1 0 0 1 536.2578 261.6172)" fill="#FFFFFF" font-family="'FZLTXHK--GBK1-0'" font-size="27.8177">Piwigo</text>
<text transform="matrix(1 0 0 1 544.8257 442.9648)" fill="#FFFFFF" font-family="'FZLTXHK--GBK1-0'" font-size="56.4321">相册</text>
<text transform="matrix(1 0 0 1 385.7578 517.1172)" fill="#FFFFFF" font-family="'FZLTXHK--GBK1-0'" font-size="27.8177">回忆</text>
<text transform="matrix(1 0 0 1 399.7578 347.1172)" fill="#FFFFFF" font-family="'FZLTXHK--GBK1-0'" font-size="27.8177">与感动</text>
<text transform="matrix(1 0 0 1 704.7578 347.1173)" fill="#FFFFFF" font-family="'FZLTXHK--GBK1-0'" font-size="27.8177">在线相册</text>
<text transform="matrix(1 0 0 1 558.0565 603.1173)" fill="#FFFFFF" font-family="'FZLTXHK--GBK1-0'" font-size="27.8177">爱情</text>
</svg>