<svg enable-background="new 0 0 256.8 30" viewBox="0 0 256.8 30" xmlns="http://www.w3.org/2000/svg"><g><path d="m62.7 19.9c0-1.3-.2-2.6-.8-3.7-.3-.8-.9-1.4-1.7-1.9-.1-.1-.2-.4-.2-.6 0-.1.1-.2.2-.2.6-.4 1.2-1 1.5-1.7.2-.5.4-1 .6-1.5.1-.7.2-1.3.2-2v-.7c0-.9-.2-1.9-.4-2.8-.1-1-.5-1.8-1.1-2.5-.7-.7-1.5-1.3-2.5-1.7-1.1-.4-2.2-.6-3.4-.6h-5.8c-.2 0-.4.2-.4.4v28.8c0 .2.2.4.4.4h5.4c2.2.2 4.4-.5 6-2.1 1.3-1.7 2-3.8 1.9-6zm-7.7-3.9c.6 0 1.3 0 1.9.2.4.2.8.4 1.1.8l.6 1.5c0 .6.2 1.3.2 1.9v2.2c0 .5-.1 1-.4 1.5-.2.4-.6.8-1.1.9-.6.3-1.4.4-2.1.4h-1.5c-.2 0-.4-.1-.4-.3v-20.7c0-.2.2-.4.4-.4h1.3c1.1 0 2.2.4 3 1.1.6.9.9 1.9.7 3 .1 1.1-.2 2.2-.7 3.2-.7.7-1.8 1.2-2.8 1.1-.1 0-.2.1-.2.2v3.2c-.2 0 0 .2 0 .2z"/><path d="m211 .1h-3.4c-.2 0-.4.2-.4.4v12c0 .2-.2.4-.4.4h-4.5c-.2 0-.4-.2-.4-.4v-12c0-.2-.2-.4-.4-.4h-3.4c-.2 0-.4.2-.4.4v28.8c0 .2.2.4.4.4h3.4c.2 0 .4-.2.4-.4v-12.4c0-.2.2-.4.4-.4h4.5c.2 0 .4.2.4.4v12.3c0 .2.2.4.4.4h3.4c.2 0 .4-.2.4-.4v-28.7c.1-.2-.1-.4-.4-.4z"/><path d="m226.1.1h-2.8c-.2 0-.4.2-.4.4l-6.4 28.8c0 .2 0 .4.2.6h3.5c.2 0 .4-.2.4-.4l1.1-5.8c0-.2.2-.4.4-.4h5.1c.2 0 .4.2.4.4l1.1 5.8c0 .2.2.4.4.4h3.4c.2 0 .4-.2.4-.4l-6.4-29c0-.3-.2-.4-.4-.4zm.2 19.2h-3.2c-.2 0-.4-.2-.4-.4l2-10.3 2.1 10.3c-.3.3-.3.4-.5.4z"/><path d="m256.4.1h-3.4c-.1 0-.3.1-.4.2l-5.2 15.3-5.4-15.3c0-.2-.2-.2-.4-.2h-3.4c-.2 0-.4.2-.4.4v28.8c0 .2.2.4.4.4h3.4c.2 0 .4-.2.4-.4v-17.6l4.1 12.5c0 .2.2.4.4.2h1.5c.1 0 .3-.1.4-.2l4.3-12.5v17.6c0 .2.2.4.4.4h3.4c.2 0 .4-.2.4-.4v-28.8c-.1-.3-.3-.4-.5-.4z"/><path d="m80.8 25.5h-7.7c-.2 0-.4-.2-.4-.4v-24.6c0-.2-.2-.4-.4-.4h-3.3c-.2 0-.4.2-.4.4v28.8c0 .2.2.4.4.4h11.8c.2 0 .4-.2.4-.4v-3.4c0-.2-.2-.4-.4-.4z"/><path d="m94.8.1c-.2 0-.4.2-.4.4v22.3c.1.8-.2 1.7-.8 2.3-.5.5-1.2.8-1.9.8s-1.3-.3-1.8-.8c-.5-.6-.8-1.4-.7-2.2v-22.4c0-.2-.2-.4-.4-.4h-3.4c-.2 0-.4.2-.4.4v22.6c0 .9.2 1.8.6 2.6s.9 1.5 1.5 2.2c.6.6 1.4 1.2 2.2 1.5 1.7.7 3.6.7 5.2 0 .8-.4 1.5-.9 2.2-1.5.6-.6 1.2-1.4 1.5-2.2.4-.8.6-1.7.6-2.6v-22.6c-.4-.2-.6-.4-.8-.4z"/><path d="m109 4.2h7.7c.2 0 .4-.2.4-.4v-3.3c.2-.2 0-.4-.3-.4h-11.8c-.2 0-.4.2-.4.4v28.8c0 .2.2.4.4.4h11.8c.2 0 .4-.2.4-.4v-3.4c0-.2-.2-.4-.4-.4h-7.8c-.2 0-.4-.2-.4-.4v-7.9c0-.2.2-.4.4-.4h6.5c.2 0 .4-.2.4-.4v-3.4c0-.2-.2-.4-.4-.4h-6.5c-.2 0-.4-.2-.4-.4v-7.6c0-.2.2-.4.4-.4z"/><path d="m144.8.1h-3.4c-.2 0-.4.2-.4.4v12c0 .2-.2.4-.4.4h-4.5c-.2 0-.4-.2-.4-.4v-12c0-.2-.2-.4-.4-.4h-3.3c-.2 0-.4.2-.4.4v28.8c0 .2.2.4.4.4h3.4c.2 0 .4-.2.4-.4v-12.4c0-.2.2-.4.4-.4h4.5c.2 0 .4.2.4.4v12.3c0 .2.2.4.4.4h3.4c.2 0 .4-.2.4-.4v-28.7c-.2-.2-.4-.4-.5-.4z"/><path d="m159.9.1h-2.8c-.2 0-.4.2-.4.4l-6.4 28.8c0 .2.2.4.4.6h3.6c.2 0 .4-.2.4-.4l1.1-5.8c0-.2.2-.4.4-.4h5.1c.2 0 .4.2.4.4l1.1 5.8c0 .2.2.4.4.4h3.4c.2 0 .4-.2.4-.4l-6.5-29c-.2-.3-.4-.4-.6-.4zm.2 19.2h-3.4c-.2 0-.4-.2-.4-.4l2-10.3 2.1 10.3c-.1.3-.1.4-.3.4z"/><path d="m186.8.1c-.1 0-.3.1-.4.2l-5.2 15.3-5.4-15.3c0-.2-.2-.4-.4-.2h-3.4c-.2 0-.4.2-.4.4v28.8c0 .2.2.4.4.4h3.4c.2 0 .4-.2.4-.4v-17.6l4.1 12.5c0 .2.2.4.4.2h1.5c.1 0 .3-.1.4-.2l4.1-12.5v17.6c0 .2.2.4.4.4h3.4c.2 0 .4-.2.4-.4v-28.8c0-.1-.1-.3-.2-.4z"/><path d="m20.4 22.4h-2.6c-.2 0-.5.2-.5.4s.2.5.4.5h2.6c.2 0 .5-.2.5-.4.1-.3-.1-.5-.4-.5z"/><path d="m17.9 17.2c0-3.3-2.7-5.9-5.9-5.9-3.3 0-6 2.7-6 5.9 0 3.3 2.7 6 5.9 6 3.4-.1 6-2.7 6-6zm-1.1 2c-.1.3-.3.6-.5.9-1.6 2.4-4.9 3-7.3 1.4-1.4-1-2.3-2.6-2.3-4.4 0-2.9 2.3-5.3 5.2-5.3s5.3 2.3 5.3 5.2c.1.9-.1 1.6-.4 2.2z"/><path d="m6.8 9.6c.8-.7 1.6-1.2 2.5-1.6.1 0 .1-.1.1-.2s-.1-.1-.1-.2l-2.2-.6c-.2-.1-.4 0-.5.2v.1 2.1c0 .1.1.2.2.2z"/><path d="m26.3 11.2c-3.3 0-6 2.7-5.9 6 0 3.3 2.7 6 6 6s5.9-2.7 5.9-6c-.1-3.3-2.7-6-6-6zm4.8 8s0 .1 0 0c-1.2 2.7-4.4 3.8-7 2.6-1.8-.8-3-2.6-3-4.6 0-.2 0-.5.1-.7.4-2.9 3.1-4.8 6-4.4 2.5.4 4.4 2.6 4.5 5.1-.1.7-.3 1.4-.6 2z"/><path d="m12 13.3c-2.1 0-3.8 1.7-3.8 3.8 0 .5.1 1 .3 1.5.8 2 3.1 2.9 5 2 .9-.4 1.6-1.1 2-2 .2-.5.3-1 .3-1.5 0-2.1-1.7-3.8-3.8-3.8z"/><path d="m26.3 13.3c-2.1 0-3.8 1.7-3.8 3.8 0 .5.1 1 .3 1.5.6 1.4 2 2.3 3.5 2.3s2.9-.9 3.5-2.3c.2-.5.3-1 .3-1.5 0-2.1-1.7-3.8-3.8-3.8z"/><path d="m36.9 12.5c-.5-.7-1.1-1.3-1.8-1.7-.5-.3-1-.5-1.5-.7v-3.5c0-1-.9-1.8-1.9-1.8-.2 0-.4 0-.6.1l-.6.2c-.6-1-1.4-1.8-2.3-2.5-2.2-1.7-5.1-2.5-9-2.5s-6.9.8-9 2.5c-1 .7-1.8 1.5-2.4 2.5l-.6-.2c-1-.3-2 .2-2.3 1.2-.1.1-.1.3-.1.5v3.4c-.5.2-1 .4-1.5.7-.8.4-1.4 1-1.9 1.7-.9 1.7-1.4 3.5-1.4 5.4 0 .6.1 1.1.5 1.6.5.8 1.2 1.5 2.1 2 .4 1.5 1.2 2.9 2.3 4 3.6 3.8 9.8 4.6 14.3 4.6s10.8-.8 14.3-4.5c1.1-1.1 1.9-2.5 2.3-4 .8-.5 1.5-1.2 2-2 .3-.5.5-1 .5-1.6 0-1.9-.5-3.8-1.4-5.4zm-17.8-10.7c4.7 0 7.7 1.2 9.6 3.9l-2.2.8c-.2.1-.5.1-.8 0-4.4-1.2-8.9-1.2-13.3 0-.3.1-.5.1-.8 0l-2.1-.8c2-2.7 5-3.9 9.6-3.9zm14.8 21.6c-.3.5-.7 1-1.1 1.5-.4.4-.8.8-1.2 1.1-.2.2-.4.3-.6.4s-.5.3-.8.5c-.3.1-.6.3-.9.4l-.7.3c-.4.1-.7.3-1.1.4l-.6.2c-.4.1-.7.2-1.1.3s-.5.1-.7.1l-1.2.2-.8.1c-.4 0-.8.1-1.2.1h-.7c-.6 0-1.3 0-1.9 0h-.1c-.6 0-1.3 0-1.9 0h-.7c-.4 0-.8-.1-1.2-.1l-.8-.1-1.2-.2-.7-.2c-.4-.1-.8-.2-1.1-.3l-.7-.1c-.4-.1-.8-.2-1.1-.4l-.7-.3c-.3-.1-.6-.3-.9-.4s-.5-.3-.8-.5c-.2-.1-.4-.3-.6-.4-.5-.3-.9-.7-1.3-1.1-.8-.8-1.3-1.7-1.7-2.8 1.1-.1 2.2.3 3 1.1 2.8 2.5 8.3 3 12.4 3 5.8 0 10.2-1.1 12.4-3 .8-.8 1.9-1.2 3-1.1-.2.5-.4.9-.7 1.3zm1.3-3.7c-.1.6-.2 1.2-.4 1.8-1.3-.2-2.6.3-3.5 1.2-2.1 1.8-6.4 2.9-12 2.9s-9.9-1-12.1-2.9c-.9-.9-2.2-1.3-3.5-1.2-.4-1.2-.5-2.5-.5-3.7.1-2.2.9-4.2 2.3-5.9.1-.2.2-.4.2-.6l.1-4.6c0-.5.4-.9.9-.9h.3l4 1.4-.7.3c-.2.1-.3.2-.2.4v.1c.1.1.2.2.3.2h.1.1c.6-.2 1.1-.4 1.7-.6l.7-.3c.7-.2 1.3-.3 2-.4l.4-.1c.3 0 .6-.1.9-.1 1.9-.2 3.8-.2 5.7 0 .3 0 .6.1.9.1l.4.1c.7.1 1.3.3 2 .4l.7.2c.6.2 1.2.4 1.7.6h.1c.1 0 .2 0 .3-.1 0-.1 0-.2 0-.3 0 0-.1-.1-.1-.1s0-.1-.1-.1l-.7-.3 4.1-1.4c.3-.1.6 0 .8.1.2.2.4.4.4.7l.1 4.6v.2c0 .1.1.3.2.4 1.1 1.3 1.9 2.9 2.2 4.6.1.4.1.9.2 1.4z"/><path d="m29 8c.9.4 1.7.9 2.4 1.5h.1c.1 0 .2 0 .2-.1v-2.1-.1c-.1-.2-.3-.3-.5-.2l-2.2.7c-.1 0-.1.1-.1.2 0 0 .1.1.1.1z"/></g></svg>