<?xml version="1.0" encoding="utf-8"?>
<!-- Generator: Adobe Illustrator 17.0.0, SVG Export Plug-In . SVG Version: 6.00 Build 0)  -->
<!DOCTYPE svg PUBLIC "-//W3C//DTD SVG 1.1//EN" "http://www.w3.org/Graphics/SVG/1.1/DTD/svg11.dtd">
<svg version="1.1" id="图层_1" xmlns="http://www.w3.org/2000/svg" xmlns:xlink="http://www.w3.org/1999/xlink" x="0px" y="0px"
	 width="96px" height="112.164px" viewBox="30.5 -33.664 96 112.164" enable-background="new 30.5 -33.664 96 112.164"
	 xml:space="preserve">
<g>
	<path fill-rule="evenodd" clip-rule="evenodd" fill="#FFFFFF" d="M35.5,78.25c-2.619,0-4.75-2.131-4.75-4.75v-90
		c0-2.619,2.131-4.75,4.75-4.75h35.215l6.878-11.915l6.879,11.915H121.5c2.619,0,4.75,2.131,4.75,4.75v90
		c0,2.619-2.131,4.75-4.75,4.75H35.5z"/>
	<path fill="#B9B9B9" d="M77.594-32.664l6.59,11.414L84.328-21h0.289H121.5c2.481,0,4.5,2.019,4.5,4.5v90c0,2.481-2.019,4.5-4.5,4.5
		h-86c-2.481,0-4.5-2.019-4.5-4.5v-90c0-2.481,2.019-4.5,4.5-4.5h35.071h0.289l0.144-0.25L77.594-32.664 M77.594-33.664L70.571-21.5
		H35.5c-2.761,0-5,2.238-5,5v90c0,2.761,2.239,5,5,5h86c2.761,0,5-2.238,5-5v-90c0-2.762-2.239-5-5-5H84.617L77.594-33.664
		L77.594-33.664z"/>
</g>
<path fill="#494949" d="M118.803,25.225c-1.205,0-2.229,0-3.399,0c0-1.029,0-1.996,0-3.053c-1.008,0-1.87,0-2.879,0
	c0,1.059,0,2.027,0,3.093c-1.073,0-2.003,0-3.075,0c0,1.065,0,2.031,0,3.087c-1.203,0-2.264,0-3.456,0c0-0.952,0-1.919,0-2.973
	c-1.003,0-1.878,0-2.89,0c-0.049,0.984-0.098,1.951-0.153,3.055c-1.025,0-1.991,0-3.042,0c0,0.969,0,1.798,0,2.781
	c0.958,0,1.924,0,3.026,0c0.057,1.107,0.106,2.073,0.161,3.134c3.025,0,6.015,0,9.102,0c0-0.977,0-1.906,0-2.984
	c1.054,0,2.017,0,3.14,0c0-1.101,0-2.063,0-3.12c1.218,0,2.281,0,3.481,0c0,3.173,0,6.345,0,9.608c-1.15,0-2.211,0-3.424,0
	c0-1.018,0-1.984,0-3.027c-0.979,0-1.808,0-2.796,0c0,0.975,0,1.941,0,3.068c-2.155,0-4.157,0-6.257,0c0,3.15,0,6.139,0,9.198
	c0.88,0,1.714,0,2.703,0c0-0.955,0-1.919,0-3.036c1.11,0,2.076,0,3.169,0c0-1.121,0-2.092,0-3.148c1.199,0,2.263,0,3.487,0
	c0,1.034,0,2.002,0,3.08c1.086,0,2.014,0,3.095,0c0,4.364,0,8.617,0,13.026c-1.001,0-1.967,0-3.016,0c0,0.98,0,1.809,0,2.8
	c0.959,0,1.922,0,3,0c0,1.21,0,2.263,0,3.416c-2.114,0-4.216,0-6.467,0c0-0.93,0-1.893,0-2.954c-2.053,0-3.961,0-5.97,0
	c0,1.9,0,3.805,0,5.865c0.964,0,1.929,0,2.97,0c0,1.217,0,2.283,0,3.444c-1.065,0-2.129,0-3.348,0c0-0.992,0-1.963,0-3.018
	c-2.065,0-3.98,0-6.063,0c-0.045,0.972-0.09,1.937-0.139,3.005c-1.104,0-2.161,0-3.363,0c0-0.987,0-1.952,0-3.007
	c-0.969,0-1.798,0-2.784,0c0,0.946,0,1.91,0,2.993c-1.206,0-2.26,0-3.486,0c0-2.01,0-4.053,0-6.225c-1.141,0-2.115,0-3.212,0
	c0-1.064,0-1.996,0-3.098c-2.159,0-4.204,0-6.373,0c0-2.176,0-4.185,0-6.355c-2.121,0-4.121,0-6.281,0c0-1.123,0-2.089,0-3.18
	c-1.117-0.058-2.083-0.107-3.185-0.164c-0.051-1.001-0.1-1.965-0.156-3.052c-2.071,0-4.084,0-6.26,0c0-3.209,0-6.297,0-9.535
	c-2.165,0-4.169,0-6.266,0c0-1.223,0-2.29,0-3.501c1.02,0,1.989,0,3.034,0c0-0.971,0-1.803,0-2.826c-3.109,0-6.238,0-9.43,0
	c0-1.207,0-2.228,0-3.404c0.966,0,1.93,0,3.016,0c0-1.01,0-1.871,0-2.862c-1.996,0-4.008,0-6.174,0c0-2.171,0-4.221,0-6.445
	c-3.235,0-6.319,0-9.504,0c0-1.239,0-2.301,0-3.425c3.251,0,6.398,0,9.699,0c0,0.992,0,1.958,0,3.075c1.112,0,2.077,0,3.201,0
	c0,1.122,0,2.088,0,3.142c0.993,0,1.824,0,2.854,0c0-2.046,0-4.088,0-6.202c2.301,0,4.405,0,6.658,0c0,0.964,0,1.93,0,2.986
	c1.01,0,1.875,0,2.852,0c0-5.209,0-10.386,0-15.673c1.163,0,2.218,0,3.449,0c0,0.944,0,1.907,0,2.991c2.115,0,4.059,0,6.124,0
	c0-2.056,0-4.064,0-6.194c2.121,0,4.128,0,6.283,0c0-1.078,0-2.043,0-3.099c1.204,0,2.261,0,3.41,0c0,1.08,0,2.133,0,3.295
	c-0.974,0-1.904,0-2.951,0c0,2.05,0,3.996,0,6.033c0.863,0,1.695,0,2.671,0c0-0.963,0-1.931,0-3.094c1.139,0,2.143,0,3.201,0
	c0.055-1.159,0.102-2.128,0.15-3.139c1.148,0,2.182,0,3.367,0c0,0.967,0,1.929,0,3.045c1.107,0,2.072,0,3.128,0
	c0,1.212,0,2.275,0,3.45c-1.033,0-2.091,0-3.31,0c0-0.95,0-1.914,0-2.761c-0.232-0.172-0.303-0.268-0.382-0.276
	c-2.578-0.249-2.579-0.247-2.579,2.309c0,2.253,0,4.506,0,6.838c1.034,0,1.906,0,2.873,0c0-0.99,0-1.919,0-2.988
	c1.188,0,2.284,0,3.502,0c0,2.031,0,4.045,0,6.175c4.252,0,8.387,0,12.672,0c0,1.078,0,2.042,0,3.156c1.109,0,2.076,0,3.173,0
	c0,1.117,0,2.086,0,3.146c1,0,1.861,0,2.846,0c0-2.083,0-4.095,0-6.19c2.225,0,4.329,0,6.576,0
	C118.803,18.718,118.803,21.938,118.803,25.225z M87.232,47.157c0,2.207,0,4.25,0,6.277c1.037,0,1.869,0,2.775,0
	c0-4.109,0-8.126,0-12.281c-1.042,0-2.011,0-3.184,0c0-1.728-0.131-3.334,0.039-4.908c0.151-1.399-0.433-1.581-1.587-1.523
	c-1.538,0.076-3.083,0.019-4.811,0.019c0-2.175,0-4.218,0-6.225c-2.061,0-3.935,0-5.877,0c0,1.977,0,3.882,0,5.938
	c1.037,0,2,0,3.008,0c0,1.215,0,2.278,0,3.427c-1.027,0.046-1.993,0.088-2.986,0.133c0,0.991,0,1.857,0,2.751
	c2.003,0,3.905,0,5.949,0c0-1.065,0-2.029,0-3.008c1.198,0,2.249,0,3.34,0c0,2.241,0,4.339,0,6.586c-1.068,0-2.035,0-2.995,0
	c0,1.016,0,1.879,0,2.816C82.985,47.157,84.959,47.157,87.232,47.157z M74.557,21.855c0,1.119,0,2.048,0,3.043
	c0.974,0,1.836,0,2.695,0c0-2.049,0-3.995,0-6.051c-1.054,0-1.985,0-2.998,0c0-1.179,0-2.244,0-3.478c2.122,0,4.171,0,6.182,0
	c0-1.005,0-1.838,0-2.816c-1.037,0-2.002,0-3.089,0c0-2.156,0-4.166,0-6.237c-0.992,0-1.853,0-2.844,0c0,2.109,0,4.118,0,6.31
	c-1.129,0-2.13,0-3.242,0c0,2.155,0,4.124,0,6.283c-2.159,0-4.203,0-6.403,0c0,2.238,0,4.286,0,6.427c-2.132,0-4.099,0-6.126,0
	c0,0.967,0,1.831,0,2.849c1.049,0,2.014,0,3.117,0c0,1.116,0,2.08,0,2.996c1.017,0,1.883,0,2.844,0c0-1.043,0-1.972,0-3.077
	c2.136,0,4.179,0,6.226,0c0-1.011,0-1.838,0-2.81c-1.048,0-2.015,0-3.061,0c0-1.207,0-2.268,0-3.439
	C70.063,21.855,72.212,21.855,74.557,21.855z M93.537,22.139c-1.153,0-2.112,0-3.067,0c0,2.087,0,3.994,0,6.053
	c1.051,0,2.015,0,3.097,0c0,4.278,0,8.404,0,12.568c0.993,0,1.855,0,2.867,0c0-5.302,0-10.501,0-15.83c2.157,0,4.163,0,6.189,0
	c0-1,0-1.861,0-2.865c-2.117,0-4.124,0-6.267,0c0-1.11,0-2.078,0-3.089c-1.003,0-1.866,0-2.818,0
	C93.537,20.009,93.537,20.943,93.537,22.139z M93.576,53.39c3.114,0,6.096,0,9.068,0c0-3.079,0-6.02,0-8.967
	c-3.089,0-6.077,0-9.068,0C93.576,47.455,93.576,50.373,93.576,53.39z M112.253,56.689c0-1.096,0-2.061,0-3.101
	c1.098-0.057,2.061-0.106,3.038-0.157c0-3.085,0-6.065,0-9.008c-0.972,0-1.836,0-2.8,0c0,1.04,0,1.965,0,3.04
	c-1.061,0-2.022,0-3.124,0c0,1.114,0,2.078,0,3.2c-1.106,0-2.068,0-3.018,0c0,1.034,0,1.903,0,2.794
	c1.068,0.054,2.029,0.103,3.13,0.158c0,1.116,0,2.078,0,3.072C110.424,56.689,111.215,56.689,112.253,56.689z M71.079,34.761
	c-0.062-1.171-0.112-2.132-0.162-3.086c-2.058,0-3.966,0-5.904,0c0,2.009,0,3.922,0,6.014c1.043,0,2.005,0,3.007,0
	c0.056,1.143,0.103,2.108,0.151,3.094c0.986,0,1.816,0,2.744,0c0.054-1.035,0.103-1.998,0.159-3.062
	c1.069-0.054,2.035-0.104,3.044-0.155c0-0.955,0-1.818,0-2.805C73.102,34.761,72.172,34.761,71.079,34.761z M80.858,21.698
	c2.042,0,3.947,0,5.915,0c0.073-1.083,0.14-2.08,0.215-3.206c1.115,0,2.076,0,3.019,0c0-0.979,0-1.808,0-2.772
	c-1.038,0-2.008,0-3.144,0c0-1.096,0-2.058,0-3.056c-1.037,0-1.905,0-2.92,0c0,2.08,0,4.077,0,6.238c-1.108,0-2.068,0-3.086,0
	C80.858,19.899,80.858,20.729,80.858,21.698z M96.754,57.083c0,3.105,0,6.042,0,8.995c0.955,0,1.819,0,2.826,0
	c0-1.06,0-2.021,0-3.102c1.114,0,2.083,0,3.049,0c0-0.989,0-1.849,0-2.842c-1.078,0-2.042,0-3.147,0c0-1.094,0-2.056,0-3.051
	C98.504,57.083,97.674,57.083,96.754,57.083z M74.229,41.259c-1.003,0-1.912,0-2.826,0c0,2,0,3.897,0,5.928c1.07,0,2.036,0,3.143,0
	c0,1.095,0,2.059,0,3.016c1.013,0,1.875,0,2.729,0c0-2.011,0-3.912,0-5.939c-1.065,0-2.029,0-3.046,0
	C74.229,43.247,74.229,42.357,74.229,41.259z M93.183,57.14c-1.015,0-1.877,0-2.702,0c0,2.016,0,3.913,0,5.775
	c0.969,0,1.83,0,2.702,0C93.183,60.94,93.183,59.078,93.183,57.14z M83.532,53.454c0-1.048,0-1.91,0-2.751c-0.959,0-1.786,0-2.637,0
	c0,0.968,0,1.837,0,2.751C81.826,53.454,82.658,53.454,83.532,53.454z M70.926,9.534c-0.989,0-1.854,0-2.757,0
	c0,0.937,0,1.764,0,2.674c0.944,0,1.811,0,2.757,0C70.926,11.3,70.926,10.47,70.926,9.534z M80.871,9.487c0,0.996,0,1.825,0,2.72
	c0.938,0,1.802,0,2.695,0c0-0.952,0-1.816,0-2.72C82.638,9.487,81.807,9.487,80.871,9.487z M61.4,21.716c0-1.009,0-1.872,0-2.761
	c-0.937,0-1.765,0-2.674,0c0,0.949,0,1.816,0,2.761C59.639,21.716,60.47,21.716,61.4,21.716z M83.556,28.092
	c0-0.994,0-1.858,0-2.677c-0.976,0-1.838,0-2.674,0c0,0.956,0,1.785,0,2.677C81.794,28.092,82.623,28.092,83.556,28.092z
	 M102.639,40.775c0-0.951,0-1.813,0-2.657c-2.892-0.502-3.368,0.011-2.562,2.657C100.903,40.775,101.733,40.775,102.639,40.775z
	 M105.845,21.688c0-0.966,0-1.822,0-2.711c-0.96,0-1.818,0-2.706,0c0,0.966,0,1.824,0,2.711
	C104.113,21.688,104.973,21.688,105.845,21.688z"/>
<path fill="#494949" d="M61.747,12.516c-7.537,0-14.925,0-22.409,0c0-7.472,0-14.876,0-22.396c7.528,0,14.941,0,22.409,0
	C61.747-2.379,61.747,5.011,61.747,12.516z M42.824,9.052c5.219,0,10.285,0,15.439,0c0-5.177,0-10.274,0-15.38
	c-5.191,0-10.3,0-15.439,0C42.824-1.175,42.824,3.864,42.824,9.052z"/>
<path fill="#494949" d="M61.699,69.617c-7.418,0-14.832,0-22.361,0c0-7.52,0-14.923,0-22.395c7.482,0,14.87,0,22.361,0
	C61.699,54.657,61.699,62.081,61.699,69.617z M58.23,66.098c0-5.18,0-10.279,0-15.399c-5.185,0-10.249,0-15.337,0
	c0,5.2,0,10.305,0,15.399C48.091,66.098,53.172,66.098,58.23,66.098z"/>
<path fill="#494949" d="M96.476-9.881c7.404,0,14.815,0,22.35,0c0,7.511,0,14.921,0,22.398c-7.473,0-14.859,0-22.35,0
	C96.476,5.084,96.476-2.338,96.476-9.881z M115.325-6.351c-5.214,0-10.282,0-15.379,0c0,5.185,0,10.279,0,15.392
	c5.184,0,10.246,0,15.379,0C115.325,3.881,115.325-1.187,115.325-6.351z"/>
<path fill="#494949" d="M46.006,31.298c1.053,0,1.946,0,3.018,0c0,2.085,0,4.13,0,6.349c1.139,0,2.104,0,3.162,0
	c0,2.284,0,4.39,0,6.582c-4.287,0-8.511,0-12.844,0c0-1.085,0-2.146,0-3.343c2.079,0,4.085,0,6.195,0c0-0.996,0-1.86,0-2.888
	c-2.014,0-4.016,0-6.168,0c0-1.253,0-2.346,0-3.566c2.095,0,4.104,0,6.191,0c0-0.953,0-1.784,0-2.791c-2.019,0-4.066,0-6.223,0
	c0-2.273,0-4.374,0-6.582c1.129,0,2.194,0,3.405,0c0,0.981,0,1.946,0,3.059c1.102,0,2.067,0,3.115,0
	C45.911,29.263,45.958,30.265,46.006,31.298z"/>
<path fill="#494949" d="M77.596,59.857c0,1.197,0,2.219,0,3.421c-2.035,0-4.079,0-6.299,0c0,1.14,0,2.105,0,3.186
	c-1.108,0-2.04,0-3.122,0c-0.052,1.075-0.098,2.041-0.149,3.107c-1.103,0-2.16,0-3.302,0c0-3.171,0-6.312,0-9.611
	c0.93,0,1.89,0,3.003,0c0-1.113,0-2.078,0-3.159c1.208,0,2.265,0,3.479,0c0.052,0.956,0.105,1.92,0.167,3.056
	C73.446,59.857,75.492,59.857,77.596,59.857z"/>
<path fill="#494949" d="M64.751-9.875c4.262,0,8.531,0,12.858,0c0,2.208,0,4.314,0,6.503c-1.115,0-2.177,0-3.369,0
	c0-0.975,0-1.942,0-2.981c-2.083,0-4.038,0-6.071,0c0,0.915,0,1.743,0,2.722c1.004,0,1.971,0,3.032,0c0,1.211,0,2.271,0,3.405
	c-1.116,0-2.178,0-3.397,0c0-1.003,0-1.966,0-3.02c-1.083,0-2.013,0-3.054,0C64.751-5.48,64.751-7.623,64.751-9.875z"/>
<path fill="#494949" d="M74.249,69.607c0-1.183,0-2.25,0-3.441c2.092,0,4.103,0,6.256,0c0-1.084,0-2.048,0-3.068
	c1.205,0,2.264,0,3.414,0c0,2.175,0,4.277,0,6.509C80.704,69.607,77.57,69.607,74.249,69.607z"/>
<path fill="#494949" d="M87.039-6.49c-2.136,0-4.228,0-6.425,0c0-1.114,0-2.204,0-3.395c2.119,0,4.211,0,6.425,0
	C87.039-8.748,87.039-7.659,87.039-6.49z"/>
<path fill="#494949" d="M55.204,40.914c2.188,0,4.292,0,6.493,0c0,1.076,0,2.137,0,3.301c-2.111,0-4.249,0-6.493,0
	C55.204,43.135,55.204,42.075,55.204,40.914z"/>
<path fill="#494949" d="M115.464,66.213c1.154,0,2.177,0,3.315,0c0,1.082,0,2.136,0,3.328c-1.052,0-2.138,0-3.315,0
	C115.464,68.474,115.464,67.421,115.464,66.213z"/>
<path fill="#494949" d="M68.016,50.382c0,1.144,0,2.205,0,3.344c-1.138,0-2.201,0-3.304,0c0-1.148,0-2.213,0-3.344
	C65.84,50.382,66.897,50.382,68.016,50.382z"/>
<path fill="#494949" d="M90.117-6.724c1.187,0,2.209,0,3.321,0c0,1.111,0,2.164,0,3.327c-1.053,0-2.145,0-3.321,0
	C90.117-4.455,90.117-5.512,90.117-6.724z"/>
<path fill="#494949" d="M99.762,47.265c0,1.073,0,2.092,0,3.226c-1.067,0-2.121,0-3.281,0c0-1.005,0-2.06,0-3.226
	C97.487,47.265,98.539,47.265,99.762,47.265z"/>
<path fill="#494949" d="M45.696,6.119c0-3.254,0-6.392,0-9.618c3.237,0,6.408,0,9.682,0c0,3.196,0,6.33,0,9.618
	C52.166,6.119,49.002,6.119,45.696,6.119z"/>
<path fill="#494949" d="M55.377,53.597c0,3.314,0,6.448,0,9.655c-3.241,0-6.38,0-9.633,0c0-3.177,0-6.349,0-9.655
	C48.899,53.597,52.065,53.597,55.377,53.597z"/>
<path fill="#494949" d="M112.483-3.53c0,3.289,0,6.43,0,9.684c-3.197,0-6.332,0-9.632,0c0-3.224,0-6.424,0-9.684
	C106.059-3.53,109.2-3.53,112.483-3.53z"/>
</svg>
