<?xml version="1.0" encoding="utf-8"?>
<!-- Generator: Adobe Illustrator 17.0.0, SVG Export Plug-In . SVG Version: 6.00 Build 0)  -->
<!DOCTYPE svg PUBLIC "-//W3C//DTD SVG 1.1//EN" "http://www.w3.org/Graphics/SVG/1.1/DTD/svg11.dtd">
<svg version="1.1" id="图层_1" xmlns="http://www.w3.org/2000/svg" xmlns:xlink="http://www.w3.org/1999/xlink" x="0px" y="0px"
	 width="158px" height="171px" viewBox="0 0 158 171" enable-background="new 0 0 158 171" xml:space="preserve">
<g>
	<polygon fill="#FFFFFF" points="75.448,158.412 0.25,158.412 0.25,0.25 157.75,0.25 157.75,158.412 91.084,158.412 75.448,170.491 
			"/>
	<path fill="#B9B9B9" d="M157.5,0.5v157.662H91.169h-0.171l-0.135,0.104l-15.165,11.716v-11.32v-0.5h-0.5H0.5V0.5H157.5 M158,0H0
		v158.662h75.198V171l15.971-12.338H158V0L158,0z"/>
</g>
<path fill="#FFFFFF" d="M9.797,8.331c46.537,0,93.073,0,139.61,0c0,46.69,0,93.379,0,140.069c-46.537,0-93.073,0-139.61,0
	C9.797,101.71,9.797,55.02,9.797,8.331z M69.927,35.85c1.248,0.003,2.497,0.005,3.745,0.008c0,1.191,0,2.381,0,3.801
	c1.351,0,2.449,0,3.697,0c0,1.282,0,2.325,0,3.491c1.248,0.062,2.349,0.116,3.675,0.182c0,2.49,0,4.813,0,7.15
	c1.336,0.084,2.435,0.153,3.678,0.231c0,2.491,0,4.756,0,7.076c1.259,0,2.35,0,3.672,0c0-3.681,0-7.228,0-10.913
	c1.369,0,2.506,0,3.643,0c0,4.345,0,8.691,0,13.166c5.236,0.752,5.274,4.679,5.13,8.736c0.782,0.113,1.417,0.205,2.104,0.305
	c0,1.183,0,2.229,0,3.418c-0.688,0.094-1.324,0.181-1.938,0.265c0,1.248,0,2.339,0,3.633c1.983,0,3.782,0,5.506,0
	c0,1.308,0,2.402,0,3.709c-1.973,0-3.765,0-5.585,0c0,2.486,0,4.75,0,7.179c0.782,0,1.454,0,2.125,0c0,2.473,0,4.946,0,7.419
	c-1.178,0-2.356,0-3.728,0c0,1.262,0,2.347,0,3.532c-1.371,0.072-2.55,0.134-3.726,0.192c0-0.717,0-1.434,0-2.124
	c-3.732-0.36-3.732-0.36-3.303,2.06c1.1,0,2.232,0,3.363,0c0,1.185,0,2.369,0,3.54c-1.411,0.097-2.51,0.172-3.536,0.242
	c0,1.282,0,2.323,0,3.44c1.217,0.08,2.319,0.153,3.462,0.228c0.074,1.258,0.138,2.358,0.215,3.678c2.527,0,4.845,0,7.13,0
	c0.082,1.38,0.15,2.517,0.212,3.649c-1.239,0-2.477,0-3.768,0c0,1.363,0,2.487,0,3.611c-2.42,0-4.84,0-7.269,0
	c-0.09-1.446-0.159-2.552-0.226-3.643c-1.283-0.059-2.328-0.108-3.602-0.166c0-4.931,0-9.713,0-14.646c-1.377,0-2.516,0-3.656,0
	l0.067,0.067c-0.03-0.671-0.06-1.342-0.092-2.052c-4.92,0-9.735,0-14.732,0c0,1.972,0,3.766,0,5.618
	c-1.281,0.071-2.381,0.132-3.551,0.198c0,1.332,0,2.465,0,3.597c-1.192,0-2.384,0-3.812,0c0-1.433,0-2.533,0-3.787
	c-1.287,0-2.332,0-3.454,0c-0.086-1.256-0.161-2.362-0.233-3.426c-1.272,0-2.37,0-3.622,0c0,1.215,0,2.26,0,3.384
	c-1.257,0.089-2.362,0.168-3.439,0.244c0,1.259,0,2.357,0,3.609c1.211,0,2.259,0,3.39,0c0.086,1.256,0.162,2.362,0.244,3.548
	c1.244,0.055,2.349,0.104,3.441,0.152c0,1.282,0,2.326,0,3.488c-1.198,0.072-2.307,0.139-3.479,0.21
	c-0.072,1.251-0.136,2.356-0.2,3.464c-1.305,0.085-2.407,0.156-3.432,0.222c0,1.289,0,2.33,0,3.612c3.677,0,7.231,0,10.793,0
	c0,1.291,0,2.335,0,3.621c-3.645,0-7.198,0-10.819,0c-0.083,1.343-0.151,2.447-0.215,3.49c-1.293,0-2.392,0-3.495,0
	c-0.055-1.223-0.103-2.27-0.152-3.346c-1.257,0-2.351,0-3.41,0c0,2.474,0,4.795,0,7.274c2.448,0,4.718,0,7.063,0
	c0.081,1.265,0.152,2.37,0.233,3.637c1.299,0,2.436,0,3.573,0l-0.065-0.065c0.026,1.242,0.051,2.483,0.076,3.725
	c-2.47,0.004-4.941,0.008-7.411,0.012c0-1.186,0-2.372,0-3.563c-1.338,0-2.428,0-3.487,0c0,1.245,0,2.335,0,3.498
	c1.291,0,2.422,0,3.552,0c0,2.415,0,4.831,0,7.195c3.822,0,7.367,0,10.856,0c0-1.226,0-2.271,0-3.398
	c-1.223-0.075-2.329-0.142-3.576-0.218c0-1.314,0-2.452,0-3.591c2.41,0,4.82,0,7.275,0c0.084,1.411,0.15,2.508,0.22,3.678
	c2.557,0,4.908,0,7.259,0c0,1.189,0,2.377,0,3.555c1.344,0,2.437,0,3.608,0c0-1.286,0-2.418,0-3.55c1.248,0,2.496,0,3.745,0
	c0,1.188,0,2.376,0,3.549c1.343,0,2.436,0,3.608,0c0-1.288,0-2.421,0-3.553c1.19,0,2.38,0,3.608,0c0.082,1.422,0.146,2.52,0.209,3.6
	c2.497,0,4.759,0,7.105,0c0-1.206,0-2.3,0-3.475c-1.227-0.071-2.33-0.136-3.574-0.208c0-1.319,0-2.455,0-3.59
	c3.695,0,7.389,0,11.084,0c0,2.408,0,4.817,0,7.232c2.573,0,4.891,0,7.286,0c0-1.287,0-2.422,0-3.558c3.645,0,7.29,0,11.087,0
	c0,1.38,0,2.425,0,3.584c6.157,0,12.156,0,18.239,0c0.076-1.224,0.145-2.329,0.228-3.661c1.272,0,2.373,0,3.42,0
	c0-1.288,0-2.333,0-3.453c-1.217-0.084-2.32-0.16-3.372-0.232c0-2.508,0-4.833,0-7.136c1.32-0.079,2.462-0.147,3.599-0.209
	c0,1.185,0,2.369,0,3.834c2.439,0,4.801,0,7.283,0c0,1.408,0,2.534,0,3.661c-1.19,0-2.38,0-3.541,0c0,2.588,0,4.904,0,7.212
	c2.436,0,4.7,0,7.046,0c0-1.206,0-2.301,0-3.476c-1.226-0.071-2.331-0.134-3.569-0.206c0-1.323,0-2.459,0-3.596
	c1.184,0,2.368,0,3.547,0c0-2.556,0-4.863,0-7.365c-3.709,0-7.265,0-10.822,0c-0.056-1.186-0.112-2.371-0.168-3.548
	c-1.285-0.058-2.329-0.104-3.402-0.153c0-3.719,0-7.269,0-10.846c1.255-0.077,2.36-0.146,3.398-0.21c0-1.286,0-2.327,0-3.612
	c-2.448,0-4.778,0-7.257,0c0-1.291,0-2.336,0-3.493c-3.708,0-7.258,0-10.89,0c-0.076,1.224-0.145,2.329-0.227,3.661
	c-1.273,0-2.373,0-3.471,0c-0.061,1.289-0.11,2.336-0.163,3.45c-1.25,0.087-2.352,0.163-3.692,0.256c0,2.48,0,4.807,0,7.286
	c-2.523,0-4.794,0-7.139,0c-0.079,1.266-0.148,2.371-0.213,3.415c-1.293,0-2.391,0-3.494,0c-0.056-1.223-0.104-2.271-0.154-3.346
	c-1.256,0-2.351,0-3.557,0c0,3.735,0,7.32,0,10.906c-2.413,0-4.827,0-7.417,0c0-2.694,0-5.051,0-7.409c1.186,0,2.372,0,3.563,0
	c0-1.339,0-2.429,0-3.487c-1.242,0-2.333,0-3.498,0c0,1.291,0,2.422,0,3.552c-1.192,0-2.383,0-3.737,0c0-2.701,0-5.06,0-7.419
	c3.644,0,7.289,0,11.019,0c0-1.393,0-2.531,0-3.669c1.186,0,2.373,0,3.769,0c0-1.359,0-2.481,0-3.602c1.18,0,2.361,0,3.69,0
	c0,1.349,0,2.391,0,3.488c1.258,0,2.354,0,3.517,0c0.069-1.235,0.131-2.338,0.192-3.43c1.313-0.089,2.413-0.164,3.439-0.233
	c0-1.281,0-2.32,0-3.594c-2.443,0-4.767,0-7.049,0c0-1.34,0-2.43,0-3.678c2.434,0,4.699,0,7.084,0
	c0.068-1.256,0.128-2.357,0.192-3.527c1.255-0.074,2.358-0.139,3.539-0.209c0-1.319,0-2.454,0-3.589c1.248,0,2.496,0,3.745,0
	c0,2.413,0,4.826,0,7.21c2.593,0,4.917,0,7.388,0c0-1.214,0-2.258,0-3.361c2.476,0,4.794,0,7.354,0c0,2.465,0,4.791,0,7.095
	c1.29,0,2.333,0,3.465,0c0-6.194,0-12.281,0.006-18.364c1.279,0.025,2.557,0.05,3.836,0.075c0,2.405,0,4.81,0,7.433
	c1.34,0,2.463,0,3.587,0c0,2.41,0,4.82,0,7.207c-1.366,0.072-2.413,0.128-3.475,0.184c0,1.254,0,2.352,0,3.483
	c1.252,0.075,2.356,0.142,3.425,0.206c0.084,1.385,0.154,2.525,0.217,3.661c-1.237,0-2.474,0-3.622,0c0,1.326,0,2.41,0,3.544
	c1.295,0,2.418,0,3.541,0c0,1.19,0,2.38,0,3.793c-2.66,0-4.985,0-7.277,0c0,1.284,0,2.326,0,3.451c3.65,0,7.188,0,10.764,0
	c0-2.454,0-4.774,0-7.179c-1.281,0-2.417,0-3.553,0c0.027-1.222,0.055-2.444,0.082-3.666c1.126,0,2.253,0,3.433,0
	c0-5.04,0-9.855,0-14.782c-1.325,0.062-2.461,0.115-3.592,0.162c0.081-1.249,0.161-2.498,0.24-3.725
	c1.272-0.059,2.31-0.107,3.411-0.157c0-2.464,0-4.773,0-7.12c-1.22,0-2.31,0-3.465,0c-0.068,1.234-0.129,2.332-0.197,3.569
	c-1.324,0-2.454,0-3.584,0c0-1.182,0-2.365,0-3.573c-1.325,0-2.413,0-3.706,0c0,1.253,0,2.372,0,3.49c-2.409,0-4.818,0-7.165,0
	c0,1.456,0,2.5,0,3.625c1.223,0.075,2.328,0.143,3.452,0.212c0,1.231,0,2.274,0,3.433c-2.42,0-4.745,0-7.154,0
	c-0.076-1.222-0.144-2.328-0.218-3.518c-1.313,0-2.451,0-3.589,0c0-1.192,0-2.385,0-3.813c1.435,0,2.535,0,3.641,0
	c0.056-1.289,0.102-2.336,0.151-3.458c1.253-0.082,2.36-0.155,3.553-0.233c0-1.299,0-2.436,0-3.574c1.186,0,2.373,0,3.768,0
	c0-1.36,0-2.482,0-3.603c3.633,0,7.266,0,10.882,0c0.071,1.364,0.126,2.41,0.181,3.472c1.252,0,2.346,0,3.391,0
	c0-3.702,0-7.247,0-10.952c-3.677,0-7.172,0-10.741,0c-0.077-1.266-0.145-2.37-0.213-3.49c-1.233,0-2.276,0-3.431,0
	c0,3.74,0,7.386-0.006,11.027c-1.239,0-2.477,0-3.768,0c0,1.364,0,2.488,0,3.612c-2.418,0-4.836,0-7.275,0
	c-0.085-1.439-0.15-2.544-0.224-3.792c-1.269,0-2.311,0-3.406,0c0-2.486,0-4.809,0-7.101c1.248,0,2.344,0,3.596,0
	c0,1.213,0,2.258,0,3.366c1.259,0,2.357,0,3.693,0c0-1.236,0-2.335,0-3.588c1.284,0,2.327,0,3.459,0c0-3.708,0-7.255,0-10.88
	c-1.227-0.072-2.332-0.138-3.445-0.203c0-1.24,0-2.282,0-3.687c2.514,0,4.935,0,7.351,0.006c0,1.199,0,2.399,0,3.678
	c1.223,0.087,2.329,0.165,3.661,0.259c0,1.238,0,2.338,0,3.591c1.286,0,2.331,0,3.471,0c0.084,1.256,0.157,2.361,0.23,3.454
	c1.255,0,2.353,0,3.606,0c0-1.204,0-2.252,0-3.431c1.249-0.06,2.354-0.113,3.474-0.167c0-8.625,0-17.069,0-25.455
	c-1.255,0-2.355,0-3.452,0c-0.059,1.225-0.11,2.272-0.164,3.393c-1.25,0.079-2.356,0.149-3.546,0.224c0,1.307,0,2.445,0,3.583
	c-1.221-0.029-2.442-0.059-3.663-0.088c0-2.399,0-4.797,0-7.193c-1.406,0-2.444,0-3.6,0c0,2.407,0,4.717,0,7.122
	c1.285,0,2.473,0,3.657,0.006c0,1.238,0,2.477,0,3.765c1.36,0,2.483,0,3.606,0c0,1.194,0,2.388,0,3.813c1.364,0,2.464,0,3.516,0
	c0,1.286,0,2.328,0,3.509c-3.697,0-7.276,0-10.854,0c0-1.125,0-2.249,0-3.582c-3.84,0-7.469,0-11.099,0
	c-0.001-1.247-0.003-2.494-0.004-3.74c1.189,0,2.377,0,3.553,0c0-1.346,0-2.44,0-3.612c-1.287,0-2.42,0-3.552,0
	c0-2.421,0-4.841,0-7.348c-1.397,0-2.536,0-3.674,0c0-3.645,0-7.289,0-10.957c-1.366-0.081-2.471-0.147-3.518-0.21
	c0-1.284,0-2.328,0-3.448c1.215-0.086,2.317-0.164,3.381-0.24c0-3.724,0-7.273,0-10.974c-1.221,0-2.27,0-3.384,0
	c-0.09-1.252-0.169-2.358-0.246-3.424c-3.721,0-7.271,0-10.973,0c0,1.216,0,2.261,0,3.552c-2.477,0-4.804,0-7.097,0
	c0,2.579,0,4.904,0,7.18c1.219,0,2.265,0,3.387,0c0.086-1.212,0.165-2.315,0.251-3.514c2.518,0,4.878,0,7.238,0l-0.065-0.065
	c0,2.408,0,4.815,0,7.456c-3.789,0-7.328,0-10.948,0c0,2.59,0,4.943,0,7.297c-1.195,0-2.39,0-3.678,0c0,1.402,0,2.54,0,3.678
	c-1.19,0-2.38,0-3.803,0c0-1.424,0-2.522,0-3.598c-1.282,0-2.322,0-3.6,0c0,2.428,0,4.755,0,7.077c-1.338,0-2.428,0-3.687,0
	c0-3.734,0-7.311,0-10.888c1.186,0,2.372,0,3.562,0c0-1.338,0-2.429,0-3.486c-1.242,0-2.333,0-3.497,0c0,1.291,0,2.422,0,3.552
	c-1.242-0.001-2.484-0.002-3.726-0.003c0-1.186,0-2.372,0-3.562c-1.339,0-2.429,0-3.487,0c0,1.246,0,2.335,0,3.497
	c1.291,0,2.421,0,3.552,0c0,2.418,0,4.836,0,7.414c-1.465,0-2.602,0-3.74,0c0-1.167,0-2.333,0-3.681c-1.352,0-2.518,0-3.684,0
	c0-1.188,0-2.375,0-3.548c-1.343,0-2.436,0-3.608,0c0,1.287,0,2.419,0,3.552c-1.187,0-2.375,0-3.549,0c0,1.342,0,2.434,0,3.603
	c1.286,0,2.417,0,3.549,0c0,1.189,0,2.377,0,3.553c1.346,0,2.439,0,3.612,0C69.927,38.115,69.927,36.983,69.927,35.85z
	 M55.237,39.597c-0.002-1.249-0.004-2.498-0.005-3.747c1.188,0,2.376,0,3.788,0c0-2.577,0-4.899,0-7.199
	c1.338-0.098,2.439-0.178,3.634-0.265c-0.064-1.359-0.118-2.494-0.165-3.625c1.187,0,2.374,0,3.795,0c0-1.882,0-3.676,0-5.47
	c0-1.785,0-3.57,0-5.411c-1.441,0-2.569,0-3.699,0c0-1.186,0-2.372,0-3.561c-1.339,0-2.429,0-3.487,0c0,1.242,0,2.333,0,3.496
	c1.291,0,2.422,0,3.552,0c-0.032,3.668-0.065,7.336-0.097,11.004c-1.181,0-2.361,0-3.693,0c0-1.351,0-2.391,0-3.489
	c-2.484,0-4.804,0-7.109,0c0,1.24,0,2.337,0,3.586c1.205,0,2.249,0,3.382,0c0,1.255,0,2.352,0,3.53
	c-1.224,0.073-2.328,0.14-3.511,0.211c0,1.316,0,2.452,0,3.587c-1.25-0.001-2.5-0.002-3.749-0.003c0-2.418,0-4.836,0-7.337
	c-1.386,0-2.523,0-3.659,0c0-1.186,0-2.372,0-3.563c-1.339,0-2.429,0-3.486,0c0,1.242,0,2.333,0,3.498c1.291,0,2.421,0,3.552,0
	c-0.001,2.467-0.001,4.934-0.002,7.401c-1.186,0-2.372,0-3.563,0c0,1.339,0,2.428,0,3.486c1.242,0,2.333,0,3.498,0
	c0-1.291,0-2.421,0-3.552c1.242,0.001,2.484,0.001,3.726,0.002c0,1.195,0,2.391,0,3.676c1.405,0,2.542,0,3.68,0
	c0,1.166,0,2.333,0,3.682c1.349,0,2.516,0,3.683,0c0,1.183,0,2.367,0,3.553c1.325,0,2.413,0,3.475,0c0-1.243,0-2.331,0-3.488
	C57.492,39.597,56.365,39.597,55.237,39.597z M18.58,43.28c1.175,0,2.35,0,3.437,0c0-1.476,0-2.562,0-3.608c-1.215,0-2.25,0-3.367,0
	c0,1.295,0,2.482-0.006,3.665c-1.238,0-2.476,0-3.765,0c0,1.36,0,2.483,0,3.606c-1.191,0-2.382,0-3.531,0c0,7.492,0,14.712,0,21.886
	c1.218,0,2.262,0,3.547,0c0-2.444,0-4.775,0-7.261c1.381,0,2.52,0,3.658,0c0,1.166,0,2.332,0,3.678c1.346,0,2.512,0,3.678,0
	c-0.001,2.471-0.003,4.943-0.004,7.414c-3.64,0-7.28,0-10.87,0c0,3.822,0,7.367,0,11.073c2.452,0,4.723,0,7.061,0
	c0.083,1.262,0.156,2.367,0.244,3.698c3.718,0,7.269,0,10.756,0c0,1.293,0,2.335,0,3.619c-2.448,0-4.778,0-7.122,0
	c-0.084,1.349-0.153,2.452-0.219,3.523c-1.381,0.084-2.521,0.153-3.656,0.216c0-1.196,0-2.392,0-3.693
	c-1.21-0.074-2.313-0.142-3.48-0.214c-0.074-1.247-0.139-2.349-0.2-3.382c-1.293,0-2.385,0-3.381,0c0,4.937,0,9.693,0,14.556
	c1.325-0.062,2.461-0.114,3.592-0.161c-0.025,1.278-0.051,2.557-0.076,3.835c-1.187,0-2.374,0-3.542,0c0,1.341,0,2.435,0,3.607
	c1.289,0,2.422,0,3.555,0c0,1.242-0.001,2.484-0.001,3.726c-1.186,0-2.372,0-3.563,0c0,1.339,0,2.428,0,3.486
	c1.242,0,2.333,0,3.498,0c0-1.291,0-2.422,0-3.552c1.188,0,2.377,0,3.796,0c0,1.426,0,2.523,0,3.608c1.279,0,2.32,0,3.495,0
	c0.061-1.195,0.118-2.299,0.18-3.511c1.28,0,2.406,0,3.532,0c0,1.125,0,2.251,0,3.579c5.066,0,9.917,0,14.768,0
	c0,1.186,0,2.372,0,3.563c1.338,0,2.428,0,3.486,0c0-1.242,0-2.333,0-3.498c-1.29,0-2.421,0-3.552,0c0-1.186,0-2.372,0-3.774
	c2.641,0,4.958,0,7.212,0c0-1.325,0-2.415,0-3.563c-3.74,0-7.306,0-10.871,0c0-1.186,0-2.372,0-3.563c-1.337,0-2.427,0-3.486,0
	c0,1.242,0,2.333,0,3.498c1.291,0,2.421,0,3.551,0c0,1.183,0,2.366,0,3.828c-3.934,0-7.552,0-11.165-0.006
	c0.067-1.194,0.134-2.388,0.213-3.806c1.19,0,2.285,0,3.423,0c0-1.326,0-2.414,0-3.517c-2.453,0-4.765,0-7.119,0
	c-0.073,1.238-0.137,2.335-0.21,3.566c-2.559,0-4.905,0-7.252,0c-0.004-1.246-0.008-2.492-0.012-3.738c1.183,0,2.365,0,3.574,0
	c0-1.324,0-2.412,0-3.705c-1.251,0-2.371,0-3.49,0c0-2.385,0-4.769,0-7.234c1.346,0,2.464,0,3.582,0
	c0.053,1.182,0.106,2.364,0.165,3.685c1.271,0,2.312,0,3.444,0c0.081,1.25,0.153,2.352,0.225,3.452c1.251,0,2.346,0,3.472,0
	c0.073-1.252,0.138-2.353,0.211-3.592c1.268,0,2.31,0,3.453,0c0.072-1.244,0.136-2.347,0.2-3.453c2.491,0,4.81,0,7.284,0
	c0,1.281,0,2.416,0,3.551c-1.186,0-2.373,0-3.563,0c0,1.337,0,2.428,0,3.486c1.242,0,2.333,0,3.498,0c0-1.291,0-2.421,0-3.552
	c1.191,0,2.381,0,3.805,0c0,1.435,0,2.534,0,3.598c1.282,0,2.324,0,3.431,0c0-2.439,0-4.761,0-7.148
	c-1.237-0.07-2.341-0.132-3.587-0.202c0-1.249,0-2.294,0-3.573c-2.478,0-4.807,0-7.139,0c0-1.339,0-2.432,0-3.692
	c3.735,0,7.315,0,10.896,0c0,1.166,0,2.332,0,3.678c1.346,0,2.512,0,3.678,0c0,1.189,0,2.378,0,3.544c3.811,0,7.356,0,11.043,0
	c0-1.211,0-2.26,0-3.339c0.767-0.135,1.402-0.246,2.036-0.357c0-2.433,0-4.698,0-7.134c-0.786,0-1.456,0-2.127,0
	c-0.002-1.244-0.004-2.489-0.005-3.733c0.711,0,1.422,0,2.124,0c0-1.377,0-2.406,0-3.607c-0.751,0.036-1.368,0.065-2.06,0.098
	c0,1.32,0,2.448,0,3.575c-2.413,0-4.826,0-7.206,0c0-1.425,0-2.522,0-3.769c1.209,0,2.251,0,3.378,0c0-1.254,0-2.349,0-3.524
	c-1.225-0.074-2.327-0.14-3.653-0.22c0-1.272,0-2.369,0-3.431c-1.281,0-2.32,0-3.595,0c0,2.43,0,4.755,0,7.134
	c-1.332,0.082-2.431,0.149-3.614,0.222c0,2.55,0,4.905,0,7.26c-4.851,0-9.702,0-14.579,0c0-2.627,0-4.946,0-7.421
	c1.281,0,2.416,0,3.552,0c0,1.186,0,2.373,0,3.563c1.338,0,2.428,0,3.486,0c0-1.245,0-2.334,0-3.498c-1.291,0-2.421,0-3.552,0
	c0.002-1.244,0.003-2.488,0.005-3.732c2.411,0,4.823,0,7.22,0c0-1.341,0-2.433,0-3.612c-2.514,0-4.867,0-7.22,0
	c0-1.186,0-2.372,0-3.776c2.624,0,4.936,0,7.464,0c0-2.546,0-4.86,0-7.237c1.357,0,2.489,0,3.621,0l-0.065-0.065
	c0,1.189,0,2.377,0,3.798c1.428,0,2.525,0,3.773,0c0,1.279,0,2.32,0,3.595c2.474,0,4.799,0,7.187,0
	c0.08,1.333,0.145,2.438,0.216,3.617c1.314,0,2.448,0,3.582,0c0,1.188,0,2.376,0,3.745c0.854-0.091,1.474-0.157,2.054-0.219
	c0-1.24,0-2.272,0-3.461c-0.789,0-1.454,0-2.12,0c0-2.408,0-4.817,0-7.287c-1.326-0.074-2.427-0.136-3.668-0.206
	c0-1.323,0-2.456,0-3.589c2.474,0.001,4.949,0.003,7.423,0.004c0,1.114,0,2.228,0,2.806c3.66-0.282,7.209-0.556,10.848-0.836
	c0.095-0.59,0.197-1.222,0.32-1.982c1.261,0,2.388,0,3.515,0c0,0.71,0,1.419,0,2.121c1.383,0,2.411,0,3.612,0
	c-0.038-0.75-0.069-1.367-0.103-2.056c-1.321,0-2.447,0-3.574,0c0-3.639,0-7.279,0-10.868c-2.598,0-4.92,0-7.185,0
	c0,1.225,0,2.269,0,3.395c1.22,0.077,2.326,0.146,3.374,0.212c0,1.289,0,2.387,0,3.639c-1.222,0-2.27,0-3.382,0
	c-0.09,1.253-0.168,2.357-0.26,3.634c-2.512,0-4.871,0-7.231,0c0-1.192,0-2.385,0-3.681c-2.635,0-4.996,0-7.358,0
	c-0.03-1.27-0.061-2.541-0.085-3.807c2.46,0,4.92,0,7.431,0c0-1.342,0-2.47,0-3.598c1.186,0,2.372,0,3.563,0
	c0-1.338,0-2.428,0-3.486c-1.242,0-2.333,0-3.498,0c0,1.291,0,2.421,0,3.552c-2.405,0-4.811,0-7.431,0c0,1.34,0,2.464,0,3.589
	c-2.408,0-4.815,0-7.179,0c0-1.339,0-2.382,0-3.522c1.202-0.077,2.307-0.148,3.402-0.219c0-1.25,0-2.342,0-3.523
	c-2.509,0-4.862,0-7.215,0c0-1.186,0-2.372,0-3.564c-1.337,0-2.427,0-3.486,0c0,1.242,0,2.333,0,3.499c1.29,0,2.421,0,3.551,0
	c0,1.192,0,2.383,0,3.736c-5.152,0-9.959,0-14.766,0c0-1.193,0-2.386,0-3.81c2.656,0,4.986,0,7.257,0c0-1.292,0-2.335,0-3.422
	c-3.668,0-7.213,0-10.869,0c0,2.511,0,4.871,0,7.232c-2.47,0-4.94,0-7.41,0C18.522,45.721,18.551,44.501,18.58,43.28z
	 M147.011,10.332c-8.626,0-17.062,0-25.432,0c0,8.603,0,17.04,0,25.429c8.568,0,16.951,0,25.432,0
	C147.011,27.256,147.011,18.873,147.011,10.332z M11.278,145.942c8.616,0,17.053,0,25.433,0c0-8.6,0-17.037,0-25.435
	c-8.565,0-16.947,0-25.433,0C11.278,129.009,11.278,137.392,11.278,145.942z M11.305,10.277c0,8.546,0,16.982,0,25.459
	c8.567,0,17.004,0,25.418,0c0-8.588,0-17.025,0-25.459C28.17,10.277,19.788,10.277,11.305,10.277z M77.399,17.423
	c-0.078-1.312-0.143-2.416-0.217-3.66c-1.273,0-2.319,0-3.434,0c-0.087-1.253-0.164-2.36-0.238-3.424c-1.263,0-2.354,0-3.441,0
	c0,3.656,0,7.141,0,10.726c6.099,0,12.087,0,18.155,0c0.08-1.22,0.152-2.323,0.238-3.651c1.257,0,2.356,0,3.426,0
	c0-1.287,0-2.33,0-3.457c-1.208-0.085-2.312-0.162-3.475-0.244c-0.07-1.244-0.132-2.348-0.194-3.441c-1.255,0-2.297,0-3.583,0
	c0,2.419,0,4.746,0,7.151C82.128,17.423,79.866,17.423,77.399,17.423z M51.597,13.66c-1.428,0-2.522,0-3.612,0
	c-0.058-1.225-0.107-2.269-0.157-3.345c-2.488,0-4.811,0-7.087,0c0,1.25,0,2.349,0,3.6c1.217,0,2.262,0,3.383,0
	c0.087,1.252,0.164,2.354,0.239,3.433c3.709,0,7.251,0,10.789,0c0-2.435,0-4.7,0-7.047c-1.207,0-2.303,0-3.555,0
	C51.597,11.475,51.597,12.518,51.597,13.66z M91.817,28.495c0-1.169,0-2.315,0-3.478c-1.182,0-2.275,0-3.315,0
	c0,1.253,0,2.348,0,3.478C89.661,28.495,90.647,28.495,91.817,28.495z"/>
<path fill="#FFFFFF" d="M73.6,142.462c0-1.132,0-2.263,0-3.549c-1.172,0-2.265,0-3.61,0c0,1.174,0,2.362,0,3.549
	c-1.246,0-2.492,0-3.738,0c0-1.138,0-2.276,0-3.584c-1.192-0.075-2.297-0.145-3.518-0.222c0-2.409,0-4.734,0-7.219
	c1.16,0,2.206,0,3.59,0c0-1.346,0-2.537,0-3.729l-0.065,0.065c1.13,0,2.26,0,3.59,0c0.064,1.162,0.124,2.261,0.198,3.597
	c1.24,0,2.426,0,3.612,0c0,1.186,0,2.373,0,3.563c1.338,0,2.428,0,3.486,0c0-1.242,0-2.333,0-3.498c-1.291,0-2.421,0-3.551,0
	c0-2.351,0-4.703,0-7.213c1.253,0,2.344,0,3.591,0c0.076,1.084,0.152,2.185,0.239,3.433c1.117,0,2.158,0,3.425,0
	c0.077,1.237,0.146,2.337,0.228,3.643c1.105,0.063,2.206,0.125,3.61,0.205c0,2.463,0,4.874,0,7.285c-2.36,0-4.719,0-7.348,0
	c0,1.292,0,2.483,0,3.674C76.092,142.462,74.846,142.462,73.6,142.462z"/>
<path fill="#FFFFFF" d="M103.056,142.462c-1.132,0-2.265,0-3.592,0c-0.068-1.232-0.129-2.332-0.203-3.674c-1.242,0-2.43,0-3.618,0
	c0-1.246,0-2.492,0-3.738c1.133,0,2.266,0,3.593,0c0.066-1.173,0.127-2.273,0.196-3.505c1.165,0,2.258,0,3.508,0
	c0.048,1.092,0.094,2.134,0.148,3.356c1.093,0,2.187,0,3.504,0c0.056-1.012,0.117-2.112,0.191-3.454c1.237,0,2.425,0,3.613,0
	l-0.065-0.065c0,2.351,0,4.701,0,7.291c-2.393,0-4.708,0-7.277,0C103.056,140.087,103.056,141.275,103.056,142.462z"/>
<path fill="#FFFFFF" d="M51.615,135.122c0-2.351,0-4.703,0-7.22c2.392,0,4.702,0,7.168,0c0,2.282,0,4.591,0,7.155
	c-2.42,0-4.827,0-7.233,0C51.55,135.056,51.615,135.122,51.615,135.122z"/>
<path fill="#FFFFFF" d="M62.578,105.658c2.359,0,4.718,0,7.412,0c0,2.583,0,4.997,0,7.412c-1.246-0.022-2.491-0.045-3.737-0.067
	l0.063,0.067c0-1.193,0-2.386,0-3.738c-1.463,0-2.601,0-3.738,0l0.068,0.063C62.623,108.15,62.601,106.904,62.578,105.658z"/>
<path fill="#FFFFFF" d="M73.6,116.68c3.584,0,7.168,0,11.086,0c0,1.353,0,2.545,0,3.738c-3.584,0-7.168,0-11.086,0
	C73.6,119.065,73.6,117.873,73.6,116.68z"/>
<path fill="#FFFFFF" d="M66.324,127.707c-1.137,0-2.275,0-3.562,0c0-2.407,0-4.728,0-7.186c2.343,0,4.66,0,7.087,0
	c0,1.122,0,2.163,0,3.444c-1.081,0-2.179,0-3.59,0c0,1.424,0,2.615,0,3.807L66.324,127.707z"/>
<path fill="#FFFFFF" d="M62.641,113.003c-1.132,0-2.263,0-3.55,0c0-1.171,0-2.262,0-3.608c1.177,0,2.366,0,3.554,0l-0.068-0.063
	c0,1.246,0,2.492,0,3.738L62.641,113.003z"/>
<path fill="#FFFFFF" d="M69.926,113.006c1.244,0.024,2.489,0.048,3.733,0.072l-0.065-0.065c0.023,1.244,0.047,2.487,0.07,3.731
	c-1.138,0-2.275,0-3.738,0C69.926,115.392,69.926,114.199,69.926,113.006z"/>
<path fill="#FFFFFF" d="M66.253,113.003c0,1.132,0,2.265,0,3.553c-1.172,0-2.266,0-3.612,0c0-1.175,0-2.364,0-3.553l-0.063,0.067
	c1.246,0,2.492,0,3.738,0L66.253,113.003z"/>
<path fill="#FFFFFF" d="M128.564,142.346c-2.369,0-4.63,0-7.05,0c-0.077-1.167-0.149-2.266-0.236-3.595c-2.4,0-4.727,0-7.136,0
	c0-1.278,0-2.319,0-3.601c2.336,0,4.659,0,7.133,0c0.08-1.323,0.147-2.422,0.22-3.627c2.365,0,4.628,0,7.07,0
	C128.564,135.029,128.564,138.566,128.564,142.346z"/>
<path fill="#FFFFFF" d="M128.641,116.878c0,3.64,0,7.123,0,10.731c-3.581,0-7.065,0-10.736,0c0-3.484,0-7.023,0-10.731
	C121.371,116.878,124.91,116.878,128.641,116.878z M121.579,120.428c0,1.166,0,2.314,0,3.478c1.18,0,2.275,0,3.315,0
	c0-1.253,0-2.348,0-3.478C123.735,120.428,122.749,120.428,121.579,120.428z"/>
<path fill="#FFFFFF" d="M110.398,131.448c0-1.13,0-2.261,0-3.552c1.165,0,2.256,0,3.498,0c0,1.058,0,2.148,0,3.487
	c-1.191,0-2.377,0-3.564,0C110.333,131.382,110.398,131.448,110.398,131.448z"/>
<path fill="#FFFFFF" d="M121.425,46.875c0,1.246,0,2.492,0,3.738c-1.132,0-2.263,0-3.55,0c0,1.172,0,2.265,0,3.61
	c1.174,0,2.362,0,3.55,0c0,3.585,0,7.17,0,10.917c1.202,0.086,2.308,0.164,3.521,0.251c0,1.117,0,2.163,0,3.387
	c-2.274,0-4.598,0-7.1,0c-0.075-1.061-0.153-2.163-0.243-3.428c-3.563,0-7.056,0-10.781,0c-0.074-1.251-0.14-2.353-0.214-3.598
	c-1.142,0-2.24,0-3.499,0c-0.049,1.078-0.097,2.126-0.153,3.349c-1.104,0-2.203,0-3.571,0c0-2.361,0-4.782,0-7.202l-0.067,0.063
	c2.42,0,4.839,0,7.28,0c0.085-1.433,0.151-2.538,0.214-3.585c1.284,0,2.328,0,3.456,0c0.079,1.218,0.151,2.324,0.229,3.515
	c1.301,0,2.438,0,3.575,0c0,1.186,0,2.373,0,3.563c1.338,0,2.428,0,3.486,0c0-1.242,0-2.333,0-3.498c-1.291,0-2.421,0-3.552,0
	c0-2.403,0-4.806,0-7.439c-2.544,0-4.857,0-7.387,0c0-2.549,0-4.866,0-7.316c-1.359,0-2.493,0-3.627,0l0.064,0.064
	c0-1.191,0-2.382,0-3.674c2.629,0,4.988,0,7.348,0l-0.064-0.064c0,1.193,0,2.385,0,3.738c1.462,0,2.6,0,3.738,0l-0.067-0.063
	c0,1.138,0,2.277,0,3.673C116.585,46.875,119.005,46.875,121.425,46.875z"/>
<path fill="#FFFFFF" d="M117.751,94.7c-1.137,0-2.274,0-3.674,0c0,1.286,0,2.48,0,3.674c-2.35,0-4.701,0-7.258,0
	c-0.072-1.233-0.137-2.33-0.216-3.674c-1.234,0-2.423,0-3.612,0c0-1.131,0-2.261,0-3.593c1.227-0.067,2.325-0.127,3.562-0.195
	c0-1.15,0-2.241,0-3.56c-2.429,0-4.833,0-7.236,0c0-1.139,0-2.278,0-3.66c2.481,0,4.81,0,7.305,0c0-4.956,0-9.67,0-14.562
	c1.26,0,2.351,0,3.633,0c0.068,1.047,0.139,2.152,0.219,3.402c1.12,0.054,2.168,0.105,3.393,0.164c0,3.546,0,7.093,0,10.826
	c-1.051,0.071-2.153,0.146-3.372,0.229c0,1.12,0,2.164,0,3.458c2.266,0,4.592,0,7.255,0C117.751,89.869,117.751,92.285,117.751,94.7
	z"/>
<path fill="#FFFFFF" d="M99.385,54.286c0-1.132,0-2.263,0-3.591c-1.236-0.068-2.335-0.128-3.674-0.202c0-1.242,0-2.43,0-3.617
	l-0.067,0.063c1.186,0,2.373,0,3.614,0c0.077-1.406,0.138-2.506,0.202-3.674c1.332,0,2.464,0,3.596,0l-0.064-0.064
	c0,3.645,0,7.289,0,11.022c-1.398,0-2.536,0-3.674,0L99.385,54.286z"/>
<path fill="#FFFFFF" d="M99.385,57.898c-1.133,0-2.266,0-3.553,0c0-1.172,0-2.266,0-3.612c1.175,0,2.364,0,3.553,0l-0.067-0.063
	c0,1.246,0,2.492,0,3.738L99.385,57.898z"/>
<path fill="#FFFFFF" d="M91.97,46.939c0.022-1.246,0.045-2.491,0.067-3.737l-0.067,0.063c1.194,0,2.389,0,3.674,0
	c0,1.4,0,2.537,0,3.674l0.067-0.063C94.464,46.897,93.217,46.918,91.97,46.939z"/>
<path fill="#FFFFFF" d="M117.687,98.374c0-1.246,0-2.492,0-3.738c1.246,0,2.492,0,3.738,0c0,1.138,0,2.276,0,3.738
	C120.073,98.374,118.88,98.374,117.687,98.374z"/>
<path fill="#FFFFFF" d="M22.165,65.309c0.022-1.246,0.045-2.491,0.067-3.737l-0.067,0.063c2.471,0,4.941,0,7.412,0l-0.067-0.063
	c0,2.36,0,4.72,0,7.347c1.36,0,2.55,0,3.741,0c0,1.246,0,2.492,0,3.738c-2.471,0-4.941,0-7.412,0c0-2.36,0-4.719,0-7.348
	C24.547,65.309,23.356,65.309,22.165,65.309z"/>
<path fill="#FFFFFF" d="M47.882,91.026c0-1.137,0-2.274,0-3.674c-1.285,0-2.48,0-3.674,0c0-1.246,0-2.492,0-3.738
	c2.35,0,4.701,0,7.258,0c0.072,1.234,0.137,2.33,0.216,3.674c1.234,0,2.424,0,3.613,0c0,1.138,0,2.276,0,3.738
	C52.722,91.026,50.302,91.026,47.882,91.026z"/>
<path fill="#FFFFFF" d="M22.165,72.593c1.246,0,2.492,0,3.738,0c0,2.352,0,4.705,0,7.217c-1.242,0-2.332,0-3.738,0
	C22.165,77.415,22.165,75.004,22.165,72.593z"/>
<path fill="#FFFFFF" d="M22.232,57.96c-0.022-1.246-0.045-2.491-0.067-3.737c3.694,0.024,7.388,0.048,11.081,0.072l-0.065-0.065
	c0,1.13,0,2.26,0,3.584c1.235,0.068,2.336,0.128,3.57,0.196c0,1.154,0,2.245,0,3.562c-2.435,0-4.838,0-7.241,0l0.067,0.063
	c0-1.193,0-2.385,0-3.738c-2.692,0-5.052,0-7.412,0L22.232,57.96z"/>
<path fill="#FFFFFF" d="M55.294,54.223c0,1.246,0,2.492,0,3.738c-1.132,0-2.264,0-3.55,0c0-1.236,0-2.329,0-3.738
	C52.922,54.223,54.108,54.223,55.294,54.223z"/>
<path fill="#FFFFFF" d="M44.268,57.969c0.004-1.247,0.009-2.495,0.013-3.742l-0.065,0.065c1.131,0,2.262,0,3.545,0
	c0,1.172,0,2.263,0,3.612c-1.181,0-2.369,0-3.558,0C44.203,57.904,44.268,57.969,44.268,57.969z"/>
<path fill="#FFFFFF" d="M44.281,54.227c-1.13,0-2.261,0-3.552,0c0-1.163,0-2.254,0-3.497c1.057,0,2.147,0,3.487,0
	c0,1.189,0,2.375,0,3.562C44.216,54.292,44.281,54.227,44.281,54.227z"/>
<path fill="#FFFFFF" d="M33.246,54.295c0-1.13,0-2.261,0-3.552c1.164,0,2.255,0,3.497,0c0,1.058,0,2.148,0,3.487
	c-1.19,0-2.376,0-3.562,0C33.181,54.23,33.246,54.295,33.246,54.295z"/>
<path fill="#FFFFFF" d="M22.229,54.287c-1.137,0-2.274,0-3.738,0c0-1.352,0-2.545,0-3.738c1.138,0,2.276,0,3.738,0
	C22.229,51.901,22.229,53.094,22.229,54.287z"/>
<path fill="#FFFFFF" d="M25.839,46.875c1.246,0,2.492,0,3.738,0c0,1.132,0,2.264,0,3.55c-1.236,0-2.329,0-3.738,0
	C25.839,49.248,25.839,48.061,25.839,46.875z"/>
<path fill="#FFFFFF" d="M14.817,46.875c1.246,0,2.492,0,3.738,0c0,1.246,0,2.492,0,3.738c-1.138,0-2.276,0-3.738,0
	C14.817,49.261,14.817,48.068,14.817,46.875z"/>
<path fill="#FFFFFF" d="M110.341,32.247c1.138,0,2.275,0,3.67,0c0,2.504,0,4.924,0,7.344l0.067-0.063c-1.246,0-2.492,0-3.738,0
	l0.064,0.064c0-2.471,0-4.941,0-7.412L110.341,32.247z"/>
<path fill="#FFFFFF" d="M106.724,17.555c0-1.131,0-2.261,0-3.552c1.166,0,2.257,0,3.499,0c0,1.059,0,2.149,0,3.486
	c-1.191,0-2.377,0-3.564,0C106.659,17.49,106.724,17.555,106.724,17.555z"/>
<path fill="#FFFFFF" d="M99.385,32.242c0-1.132,0-2.264,0-3.549c1.169,0,2.261,0,3.603,0c0,1.174,0,2.362,0,3.549l0.067-0.063
	c-1.246,0-2.492,0-3.738,0L99.385,32.242z"/>
<path fill="#FFFFFF" d="M106.733,32.242c0-1.132,0-2.264,0-3.549c1.17,0,2.263,0,3.607,0c0,1.177,0,2.365,0,3.553l0.063-0.067
	c-1.246,0-2.492,0-3.738,0L106.733,32.242z"/>
<path fill="#FFFFFF" d="M117.752,39.527c0,1.138,0,2.275,0,3.675c-1.351,0-2.546,0-3.741,0l0.067,0.063c0-1.246,0-2.492,0-3.738
	l-0.067,0.063C115.257,39.569,116.504,39.548,117.752,39.527z"/>
<path fill="#FFFFFF" d="M95.711,35.916c-0.022-1.246-0.045-2.491-0.067-3.737c1.247,0.021,2.494,0.042,3.741,0.063l-0.067-0.063
	c0,1.194,0,2.388,0,3.674c-1.4,0-2.537,0-3.674,0L95.711,35.916z"/>
<path fill="#FFFFFF" d="M102.988,32.242c1.248,0,2.497,0,3.745,0l-0.068-0.063c0,1.188,0,2.376,0,3.55c-1.346,0-2.437,0-3.61,0
	c0-1.286,0-2.418,0-3.55L102.988,32.242z"/>
<path fill="#FFFFFF" d="M73.659,113.078c0-1.13,0-2.261,0-3.552c1.164,0,2.256,0,3.498,0c0,1.058,0,2.149,0,3.487
	c-1.19,0-2.377,0-3.563,0C73.594,113.013,73.659,113.078,73.659,113.078z"/>
<path fill="#FFFFFF" d="M80.949,98.297c0,1.131,0,2.261,0,3.554c-1.157,0-2.248,0-3.492,0c0-1.051,0-2.14,0-3.487
	c1.187,0,2.373,0,3.559,0C81.016,98.365,80.949,98.297,80.949,98.297z"/>
<path fill="#FFFFFF" d="M73.552,98.525c0,1.139,0,2.178,0,3.353c-1.169,0-2.262,0-3.476,0c0-1.092,0-2.132,0-3.353
	C71.123,98.525,72.216,98.525,73.552,98.525z"/>
<path fill="#FFFFFF" d="M125.179,32.058c0-6.126,0-12.059,0-18.104c6.044,0,11.977,0,18.084,0c0,5.974,0,11.961,0,18.104
	C137.309,32.058,131.322,32.058,125.179,32.058z M128.832,28.427c3.739,0,7.223,0,10.8,0c0-3.65,0-7.188,0-10.76
	c-3.672,0-7.21,0-10.8,0C128.832,21.302,128.832,24.786,128.832,28.427z"/>
<path fill="#FFFFFF" d="M14.933,142.244c0-6.029,0-11.961,0-18.039c6.061,0,12.048,0,18.161,0c0,5.986,0,11.92,0,18.039
	C27.158,142.244,21.17,142.244,14.933,142.244z M18.663,127.778c0,3.734,0,7.272,0,10.818c3.68,0,7.219,0,10.702,0
	c0-3.702,0-7.242,0-10.818C25.755,127.778,22.325,127.778,18.663,127.778z"/>
<path fill="#FFFFFF" d="M33.109,13.971c0,6.034,0,11.967,0,18.07c-5.984,0-11.972,0-18.111,0c0-5.965,0-11.952,0-18.07
	C21.026,13.971,27.013,13.971,33.109,13.971z M18.672,17.563c0,3.75,0,7.288,0,10.805c3.69,0,7.229,0,10.683,0
	c0-3.711,0-7.251,0-10.805C25.735,17.563,22.306,17.563,18.672,17.563z"/>
<path fill="#FFFFFF" d="M99.318,94.636c1.246,0,2.492,0,3.738,0c0,1.132,0,2.264,0,3.55c-1.236,0-2.329,0-3.738,0
	C99.318,97.009,99.318,95.823,99.318,94.636z"/>
<path fill="#FFFFFF" d="M92.037,43.202c-1.133,0-2.265,0-3.552,0c0-1.172,0-2.264,0-3.608c1.172,0,2.36,0,3.548,0l-0.063-0.067
	c0,1.246,0,2.492,0,3.738L92.037,43.202z"/>
<path fill="#FFFFFF" d="M91.97,35.853c1.247,0.021,2.494,0.042,3.741,0.063l-0.067-0.063c0,1.194,0,2.389,0,3.674
	c-1.398,0-2.536,0-3.674,0l0.063,0.067C92.012,38.347,91.991,37.1,91.97,35.853z"/>
<path fill="#FFFFFF" d="M139.731,50.613c0-1.246,0-2.492,0-3.738c1.132,0,2.264,0,3.55,0c0,1.236,0,2.329,0,3.738
	C142.104,50.613,140.917,50.613,139.731,50.613z"/>
<path fill="#FFFFFF" d="M22.232,61.572c-1.247,0.021-2.494,0.042-3.741,0.063c0-1.138,0-2.276,0-3.675c1.351,0,2.546,0,3.741,0
	l-0.067-0.063c0,1.246,0,2.492,0,3.738L22.232,61.572z"/>
<path fill="#FFFFFF" d="M58.968,83.615c0,1.137,0,2.274,0,3.738c-1.353,0-2.545,0-3.738,0c0-1.138,0-2.276,0-3.738
	C56.583,83.615,57.776,83.615,58.968,83.615z"/>
<path fill="#FFFFFF" d="M55.294,35.917c-1.246,0-2.492,0-3.738,0c0-1.246,0-2.492,0-3.738c1.138,0,2.276,0,3.738,0
	C55.294,33.532,55.294,34.725,55.294,35.917z"/>
<path fill="#FFFFFF" d="M69.99,35.917c-1.246,0-2.492,0-3.738,0c0-1.246,0-2.492,0-3.738c1.246,0,2.492,0,3.738,0
	C69.99,33.425,69.99,34.671,69.99,35.917z"/>
<g>
	<path fill="#191919" d="M58.901,83.678c0.671,0,1.341,0,2.127,0c0,2.436,0,4.701,0,7.134c-0.634,0.111-1.269,0.223-2.036,0.357
		c0,1.078,0,2.128,0,3.339c-3.687,0-7.232,0-11.043,0c0-1.165,0-2.355,0-3.544l-0.068,0.063c2.42,0,4.839,0,7.412,0
		c0-1.462,0-2.6,0-3.738l-0.064,0.064c1.193,0,2.385,0,3.738,0c0-1.464,0-2.601,0-3.738L58.901,83.678z"/>
	<path fill="#191919" d="M40.527,116.739c1.131,0,2.261,0,3.552,0c0,1.165,0,2.256,0,3.498c-1.058,0-2.149,0-3.486,0
		c0-1.19,0-2.377,0-3.563C40.592,116.674,40.527,116.739,40.527,116.739z"/>
	<path fill="#191919" d="M47.95,90.963c-1.166,0-2.332,0-3.678,0c0-1.346,0-2.512,0-3.678l-0.063,0.068c1.194,0,2.389,0,3.674,0
		c0,1.4,0,2.537,0,3.674L47.95,90.963z"/>
	<path fill="#191919" d="M66.316,113.07c-1.246,0-2.492,0-3.738,0c0-1.246,0-2.492,0-3.738c1.137,0,2.275,0,3.738,0
		C66.316,110.684,66.316,111.877,66.316,113.07z"/>
	<g>
		<path fill="#191919" d="M58.896,79.945c0.002,1.244,0.004,2.489,0.005,3.733l0.067-0.063c-1.193,0-2.386,0-3.738,0
			c0,1.462,0,2.6,0,3.738l0.064-0.064c-1.189,0-2.378,0-3.613,0c-0.079-1.344-0.143-2.44-0.216-3.674c-2.557,0-4.907,0-7.258,0
			l0.063,0.067c0-2.355,0-4.71,0-7.26c1.183-0.073,2.281-0.14,3.614-0.222c0-2.379,0-4.703,0-7.134c1.275,0,2.315,0,3.595,0
			c0,1.062,0,2.159,0,3.431c1.326,0.08,2.428,0.146,3.653,0.22c0,1.175,0,2.27,0,3.524c-1.127,0-2.169,0-3.378,0
			c0,1.247,0,2.344,0,3.769c2.38,0,4.793,0,7.206,0C58.961,80.01,58.896,79.945,58.896,79.945z"/>
		<path fill="#191919" d="M33.183,68.982c2.353,0,4.706,0,7.22,0c0,1.18,0,2.271,0,3.612c-2.397,0-4.808,0-7.22,0l0.067,0.063
			c0-1.246,0-2.492,0-3.738L33.183,68.982z"/>
		<path fill="#191919" d="M33.179,76.326c1.13,0,2.261,0,3.552,0c0,1.163,0,2.253,0,3.498c-1.058,0-2.149,0-3.486,0
			c0-1.19,0-2.376,0-3.563C33.244,76.261,33.179,76.326,33.179,76.326z"/>
		<path fill="#191919" d="M58.961,80.01c0-1.127,0-2.254,0-3.575c0.692-0.033,1.309-0.062,2.06-0.098c0,1.201,0,2.23,0,3.607
			c-0.703,0-1.414,0-2.125,0C58.896,79.945,58.961,80.01,58.961,80.01z"/>
		<path fill="#191919" d="M58.895,68.979c0.665,0,1.331,0,2.12,0c0,1.189,0,2.22,0,3.461c-0.58,0.062-1.2,0.128-2.054,0.219
			c0-1.369,0-2.557,0-3.745C58.961,68.914,58.895,68.979,58.895,68.979z"/>
		<g>
			<path fill="#191919" d="M58.961,68.914c-1.134,0-2.268,0-3.582,0c-0.07-1.179-0.136-2.285-0.216-3.617c-2.388,0-4.713,0-7.187,0
				c0-1.274,0-2.315,0-3.595c-1.248,0-2.345,0-3.773,0c0-1.421,0-2.609,0-3.798c1.188,0,2.377,0,3.558,0c0-1.348,0-2.44,0-3.612
				c-1.283,0-2.414,0-3.545,0c0-1.186,0-2.372,0-3.562c-1.34,0-2.43,0-3.487,0c0,1.243,0,2.334,0,3.497c1.291,0,2.422,0,3.552,0
				c-0.004,1.247-0.009,2.495-0.013,3.742c-1.132,0-2.264,0-3.621,0c0,2.376,0,4.691,0,7.237c-2.528,0-4.84,0-7.464,0
				c0,1.404,0,2.59,0,3.776l0.067-0.063c-1.191,0-2.382,0-3.741,0c0-2.627,0-4.987,0-7.347c2.403,0,4.807,0,7.241,0
				c0-1.317,0-2.408,0-3.562c-1.234-0.068-2.334-0.128-3.57-0.196c0-1.325,0-2.455,0-3.584c1.186,0,2.372,0,3.562,0
				c0-1.338,0-2.429,0-3.487c-1.242,0-2.333,0-3.497,0c0,1.291,0,2.422,0,3.552c-3.694-0.024-7.388-0.048-11.081-0.072l0.064,0.064
				c0-1.193,0-2.386,0-3.738c-1.462,0-2.6,0-3.738,0l0.064,0.064c0-1.246,0-2.492,0-3.738l-0.063,0.067c2.47,0,4.94,0,7.41,0
				l-0.063-0.067c0,1.186,0,2.373,0,3.55c1.409,0,2.502,0,3.738,0c0-1.286,0-2.418,0-3.55l-0.063,0.067c4.807,0,9.614,0,14.766,0
				c0-1.352,0-2.544,0-3.736l-0.065,0.065c2.353,0,4.706,0,7.215,0c0,1.181,0,2.273,0,3.523c-1.095,0.07-2.2,0.142-3.402,0.219
				c0,1.14,0,2.184,0,3.522c2.364,0,4.771,0,7.181,0.002c0.003,0.002-0.073-0.064-0.073-0.064c0.03,1.27,0.061,2.541,0.091,3.811
				l0.067-0.063c-1.186,0-2.373,0-3.55,0c0,1.409,0,2.502,0,3.738c1.285,0,2.418,0,3.55,0l-0.067-0.063c0,1.133,0,2.266,0,3.589
				c1.241,0.07,2.342,0.131,3.668,0.206c0,2.47,0,4.878,0,7.287L58.961,68.914z"/>
			<path fill="#191919" d="M95.711,32.242c0-2.353,0-4.706,0-7.297c3.62,0,7.159,0,10.948,0c0-2.64,0-5.048,0-7.456
				c1.186,0,2.373,0,3.564,0c0-1.337,0-2.427,0-3.486c-1.242,0-2.333,0-3.499,0c0,1.29,0,2.421,0,3.552c-2.36,0-4.72,0-7.238,0
				c-0.086,1.199-0.164,2.303-0.251,3.514c-1.122,0-2.168,0-3.387,0c0-2.276,0-4.601,0-7.18c2.292,0,4.62,0,7.097,0
				c0-1.291,0-2.336,0-3.552c3.702,0,7.252,0,10.973,0c0.077,1.067,0.156,2.173,0.246,3.424c1.114,0,2.163,0,3.384,0
				c0,3.702,0,7.251,0,10.974c-1.064,0.075-2.166,0.154-3.381,0.24c0,1.12,0,2.164,0,3.448c1.046,0.062,2.152,0.128,3.518,0.21
				c0,3.667,0,7.312,0,10.957l0.067-0.063c-1.247,0.021-2.494,0.042-3.741,0.063c0-2.42,0-4.84,0-7.343c-1.394,0-2.532,0-3.67,0
				c0-1.188,0-2.377,0-3.553c-1.344,0-2.438,0-3.607,0c0,1.285,0,2.417,0,3.549c-1.248,0-2.497,0-3.745,0c0-1.188,0-2.375,0-3.549
				c-1.343,0-2.434,0-3.603,0c0,1.286,0,2.418,0,3.549c-1.247-0.021-2.494-0.042-3.741-0.063L95.711,32.242z"/>
			<path fill="#191919" d="M147.011,10.332c0,8.541,0,16.923,0,25.429c-8.482,0-16.864,0-25.432,0c0-8.389,0-16.826,0-25.429
				C129.948,10.332,138.385,10.332,147.011,10.332z M125.179,32.058c6.143,0,12.13,0,18.084,0c0-6.143,0-12.13,0-18.104
				c-6.108,0-12.041,0-18.084,0C125.179,19.999,125.179,25.932,125.179,32.058z"/>
			<path fill="#191919" d="M11.305,10.277c8.483,0,16.865,0,25.418,0c0,8.434,0,16.871,0,25.459c-8.415,0-16.851,0-25.418,0
				C11.305,27.259,11.305,18.823,11.305,10.277z M33.109,13.971c-6.097,0-12.084,0-18.111,0c0,6.118,0,12.105,0,18.07
				c6.139,0,12.127,0,18.111,0C33.109,25.937,33.109,20.005,33.109,13.971z"/>
			<path fill="#191919" d="M139.798,46.938c0-1.138,0-2.276,0-3.583c1.189-0.075,2.295-0.145,3.546-0.224
				c0.054-1.122,0.105-2.169,0.164-3.393c1.097,0,2.196,0,3.452,0c0,8.386,0,16.83,0,25.455c-1.12,0.054-2.225,0.107-3.474,0.167
				c0,1.179,0,2.227,0,3.431c-1.253,0-2.351,0-3.606,0c-0.073-1.093-0.146-2.199-0.23-3.454c-1.14,0-2.185,0-3.471,0
				c0-1.253,0-2.354,0-3.591c-1.332-0.094-2.438-0.173-3.661-0.259c0-1.279,0-2.478,0.002-3.681c0.002-0.003-0.064,0.073-0.062,0.07
				c3.581-0.003,7.159-0.003,10.856-0.003c0-1.181,0-2.223,0-3.509c-1.053,0-2.152,0-3.516,0c0-1.426,0-2.62,0-3.813l-0.067,0.063
				c1.186,0,2.373,0,3.55,0c0-1.409,0-2.502,0-3.738c-1.285,0-2.418,0-3.55,0L139.798,46.938z"/>
			<path fill="#191919" d="M77.399,17.423c2.467,0,4.729,0,7.237,0c0-2.405,0-4.732,0-7.151c1.286,0,2.327,0,3.583,0
				c0.062,1.094,0.124,2.197,0.194,3.441c1.164,0.082,2.268,0.159,3.475,0.244c0,1.127,0,2.17,0,3.457c-1.07,0-2.168,0-3.426,0
				c-0.087,1.328-0.159,2.432-0.238,3.651c-6.069,0-12.056,0-18.155,0c0-3.586,0-7.07,0-10.726c1.087,0,2.178,0,3.441,0
				c0.074,1.064,0.151,2.171,0.238,3.424c1.115,0,2.161,0,3.434,0C77.256,15.008,77.321,16.111,77.399,17.423z"/>
			<path fill="#191919" d="M18.554,61.568c-1.139,0-2.278,0-3.658,0c0,2.487,0,4.817,0,7.261c-1.285,0-2.328,0-3.547,0
				c0-7.174,0-14.394,0-21.886c1.15,0,2.341,0,3.531,0l-0.063-0.067c0,1.193,0,2.386,0,3.738c1.462,0,2.6,0,3.738,0l-0.064-0.064
				c0,1.193,0,2.385,0,3.738c1.464,0,2.601,0,3.738,0l-0.064-0.064c0.022,1.246,0.045,2.491,0.067,3.737c-1.195,0-2.39,0-3.741,0
				c0,1.399,0,2.537,0,3.675L18.554,61.568z"/>
			<path fill="#191919" d="M62.483,24.756c0.054,1.136,0.107,2.271,0.171,3.63c-1.195,0.087-2.296,0.167-3.634,0.265
				c0,2.301,0,4.622,0,7.199c-1.413,0-2.6,0-3.788,0l0.063,0.067c0-1.193,0-2.386,0-3.738c-1.462,0-2.6,0-3.738,0l0.067,0.063
				c0-1.135,0-2.271,0-3.587c1.183-0.071,2.286-0.137,3.511-0.211c0-1.178,0-2.275,0-3.53c-1.134,0-2.177,0-3.382,0
				c0-1.249,0-2.346,0-3.586c2.305,0,4.625,0,7.109,0c0,1.098,0,2.138,0,3.489c1.331,0,2.512,0,3.695,0.003
				C62.559,24.822,62.483,24.756,62.483,24.756z"/>
			<path fill="#191919" d="M62.585,57.967c2.36,0,4.719,0,7.231,0c0.091-1.277,0.17-2.38,0.26-3.634c1.112,0,2.16,0,3.382,0
				c0-1.252,0-2.351,0-3.639c-1.048-0.066-2.154-0.135-3.374-0.212c0-1.126,0-2.17,0-3.395c2.265,0,4.587,0,7.185,0
				c0,3.589,0,7.229,0,10.868l0.065-0.065c-1.127,0-2.254,0-3.515,0c-0.123,0.76-0.225,1.392-0.32,1.982
				c-3.639,0.281-7.187,0.554-10.848,0.836c0-0.578,0-1.692,0-2.806L62.585,57.967z"/>
			<path fill="#191919" d="M51.597,13.66c0-1.142,0-2.186,0-3.359c1.253,0,2.348,0,3.555,0c0,2.346,0,4.612,0,7.047
				c-3.539,0-7.08,0-10.789,0c-0.075-1.079-0.152-2.18-0.239-3.433c-1.122,0-2.166,0-3.383,0c0-1.251,0-2.349,0-3.6
				c2.276,0,4.599,0,7.087,0c0.051,1.076,0.1,2.12,0.157,3.345C49.075,13.66,50.169,13.66,51.597,13.66z"/>
			<path fill="#191919" d="M25.902,46.942c0-2.36,0-4.721,0-7.232c3.656,0,7.201,0,10.869,0c0,1.087,0,2.13,0,3.422
				c-2.271,0-4.6,0-7.257,0c0,1.423,0,2.617,0,3.81l0.063-0.067c-1.246,0-2.492,0-3.738,0L25.902,46.942z"/>
			<path fill="#191919" d="M62.586,13.879c1.129,0,2.258,0,3.698,0c0,1.842,0,3.627,0,5.411c0,1.794,0,3.588,0,5.47
				c-1.421,0-2.608,0-3.798-0.002c-0.003-0.002,0.073,0.064,0.07,0.062c0.03-3.67,0.062-7.338,0.095-11.006L62.586,13.879z"/>
			<path fill="#191919" d="M117.684,39.59c1.138,0,2.277,0,3.674,0c0,2.506,0,4.927,0,7.348l0.067-0.063c-2.42,0-4.84,0-7.415,0
				c0-1.396,0-2.534,0-3.673c1.195,0,2.39,0,3.741,0c0-1.4,0-2.538,0-3.675L117.684,39.59z"/>
			<path fill="#191919" d="M136.197,46.78c-1.188,0-2.377,0-3.662,0c0-2.405,0-4.715,0-7.122c1.156,0,2.195,0,3.6,0
				c0,2.395,0,4.794-0.003,7.195C136.13,46.855,136.197,46.78,136.197,46.78z"/>
			<path fill="#191919" d="M22.228,72.66c0.001-2.471,0.003-4.943,0.004-7.414l-0.067,0.063c1.191,0,2.382,0,3.674,0
				c0,2.629,0,4.988,0,7.348l0.064-0.064c-1.246,0-2.492,0-3.738,0L22.228,72.66z"/>
			<path fill="#191919" d="M62.65,57.902c-2.474-0.001-4.949-0.003-7.423-0.004l0.067,0.063c0-1.246,0-2.492,0-3.738l-0.067,0.063
				c2.362,0,4.723,0,7.358,0c0,1.296,0,2.489,0,3.681L62.65,57.902z"/>
			<path fill="#191919" d="M62.572,46.882c0,1.128,0,2.256,0,3.598c-2.511,0-4.971,0-7.433-0.002
				c-0.003-0.002,0.073,0.064,0.07,0.061c-0.003-1.127-0.003-2.252-0.003-3.591c2.621,0,5.026,0,7.431,0L62.572,46.882z"/>
			<path fill="#191919" d="M44.279,32.237c0.001-2.467,0.001-4.934,0.002-7.4l-0.065,0.065c1.136,0,2.273,0,3.659,0
				c0,2.501,0,4.919,0,7.337l0.065-0.065c-1.242-0.001-2.484-0.001-3.726-0.002L44.279,32.237z"/>
			<path fill="#191919" d="M44.28,24.836c-1.131,0-2.261,0-3.552,0c0-1.165,0-2.256,0-3.498c1.058,0,2.147,0,3.486,0
				c0,1.19,0,2.376,0,3.563C44.215,24.901,44.28,24.836,44.28,24.836z"/>
			<path fill="#191919" d="M44.214,32.172c0,1.13,0,2.261,0,3.552c-1.165,0-2.256,0-3.498,0c0-1.058,0-2.148,0-3.486
				c1.191,0,2.377,0,3.563,0C44.279,32.237,44.214,32.172,44.214,32.172z"/>
			<path fill="#191919" d="M47.874,32.239c1.25,0.001,2.5,0.002,3.749,0.003l-0.067-0.063c0,1.246,0,2.492,0,3.738l0.063-0.067
				c-1.137,0-2.275,0-3.68,0c0-1.285,0-2.481,0-3.676C47.939,32.174,47.874,32.239,47.874,32.239z"/>
			<path fill="#191919" d="M66.315,35.85c-1.131,0-2.263,0-3.549,0c0-1.17,0-2.261,0-3.603c1.174,0,2.361,0,3.549,0l-0.063-0.067
				c0,1.246,0,2.492,0,3.738L66.315,35.85z"/>
			<path fill="#191919" d="M81.007,28.578c0-1.13,0-2.261,0-3.552c1.164,0,2.255,0,3.497,0c0,1.058,0,2.148,0,3.486
				c-1.19,0-2.376,0-3.562,0C80.942,28.512,81.007,28.578,81.007,28.578z"/>
			<path fill="#191919" d="M91.817,28.495c-1.17,0-2.156,0-3.315,0c0-1.13,0-2.225,0-3.478c1.039,0,2.133,0,3.315,0
				C91.817,26.18,91.817,27.326,91.817,28.495z"/>
			<path fill="#191919" d="M77.347,28.51c-1.131,0-2.262,0-3.552,0c0-1.162,0-2.251,0-3.497c1.058,0,2.148,0,3.487,0
				c0,1.19,0,2.376,0,3.562C77.281,28.575,77.347,28.51,77.347,28.51z"/>
			<path fill="#191919" d="M62.651,13.814c-1.131,0-2.261,0-3.552,0c0-1.163,0-2.254,0-3.496c1.057,0,2.148,0,3.487,0
				c0,1.189,0,2.375,0,3.561L62.651,13.814z"/>
			<path fill="#191919" d="M66.315,32.247c0-1.132,0-2.265,0-3.552c1.171,0,2.265,0,3.608,0c0,1.172,0,2.36,0,3.548l0.067-0.063
				c-1.246,0-2.492,0-3.738,0L66.315,32.247z"/>
			<path fill="#191919" d="M18.651,43.341c0-1.188,0-2.375,0-3.67c1.117,0,2.152,0,3.367,0c0,1.046,0,2.133,0,3.608
				c-1.087,0-2.262,0-3.44-0.003C18.575,43.275,18.651,43.341,18.651,43.341z"/>
			<path fill="#191919" d="M121.358,50.55c0.001,1.247,0.003,2.494,0.004,3.74l0.063-0.067c-1.188,0-2.376,0-3.55,0
				c0-1.345,0-2.438,0-3.61c1.286,0,2.418,0,3.55,0L121.358,50.55z"/>
			<path fill="#191919" d="M139.798,50.55c-1.123,0-2.246,0-3.606,0c0-1.288,0-2.526,0.002-3.767
				c0.002-0.003-0.064,0.073-0.062,0.07c1.223,0.027,2.445,0.056,3.665,0.085l-0.067-0.063c0,1.246,0,2.492,0,3.738L139.798,50.55z"
				/>
			<path fill="#191919" d="M121.358,46.938c1.133,0,2.266,0,3.552,0c0,1.172,0,2.266,0,3.612c-1.175,0-2.364,0-3.553,0l0.067,0.063
				c0-1.246,0-2.492,0-3.738L121.358,46.938z"/>
			<path fill="#191919" d="M44.28,43.207c-1.131,0-2.261,0-3.551,0c0-1.166,0-2.257,0-3.499c1.059,0,2.149,0,3.486,0
				c0,1.192,0,2.378,0,3.564L44.28,43.207z"/>
			<path fill="#191919" d="M55.237,39.597c1.128,0,2.255,0,3.54,0c0,1.157,0,2.245,0,3.488c-1.062,0-2.15,0-3.475,0
				c0-1.186,0-2.37,0-3.553L55.237,39.597z"/>
			<path fill="#191919" d="M62.637,46.947c0-1.131,0-2.261,0-3.552c1.165,0,2.256,0,3.498,0c0,1.058,0,2.149,0,3.486
				c-1.191,0-2.377,0-3.563,0C62.572,46.882,62.637,46.947,62.637,46.947z"/>
			<path fill="#191919" d="M14.88,46.943c0-1.123,0-2.246,0-3.606c1.288,0,2.527,0,3.768,0.002c0.003,0.002-0.073-0.064-0.07-0.062
				c-0.027,1.223-0.056,2.444-0.086,3.665l0.063-0.067c-1.246,0-2.492,0-3.738,0L14.88,46.943z"/>
			<path fill="#191919" d="M73.672,35.858c-1.248-0.003-2.497-0.005-3.745-0.008l0.063,0.068c0-1.246,0-2.492,0-3.738l-0.067,0.063
				c1.166,0,2.332,0,3.684,0c0,1.348,0,2.514,0,3.681C73.607,35.923,73.672,35.858,73.672,35.858z"/>
			<path fill="#191919" d="M92.033,35.921c0-1.138,0-2.276,0-3.678c1.288,0,2.483,0,3.678,0l-0.067-0.063
				c0.022,1.246,0.045,2.491,0.067,3.737c-1.247-0.021-2.494-0.042-3.741-0.063L92.033,35.921z"/>
			<path fill="#191919" d="M55.302,39.532c-1.167,0-2.334,0-3.683,0c0-1.349,0-2.516,0-3.682l-0.063,0.067c1.246,0,2.492,0,3.738,0
				l-0.063-0.067c0.002,1.249,0.004,2.498,0.006,3.747C55.237,39.597,55.302,39.532,55.302,39.532z"/>
			<path fill="#191919" d="M69.927,35.85c0,1.133,0,2.266,0,3.553c-1.173,0-2.266,0-3.612,0c0-1.175,0-2.364,0-3.553l-0.063,0.067
				c1.246,0,2.492,0,3.738,0L69.927,35.85z"/>
			<path fill="#191919" d="M22.232,65.246c-1.166,0-2.332,0-3.678,0c0-1.346,0-2.512,0-3.678l-0.063,0.067
				c1.247-0.021,2.494-0.042,3.741-0.063c-0.022,1.246-0.045,2.491-0.067,3.737L22.232,65.246z"/>
			<path fill="#191919" d="M77.268,57.955c1.127,0,2.253,0,3.574,0c0.035,0.689,0.066,1.306,0.103,2.056c-1.201,0-2.229,0-3.612,0
				c0-0.702,0-1.411,0-2.121C77.333,57.89,77.268,57.955,77.268,57.955z"/>
			<path fill="#191919" d="M91.97,39.527c1.138,0,2.276,0,3.674,0c0-1.285,0-2.48,0-3.674c1.137,0,2.274,0,3.674,0
				c0-1.286,0-2.48,0-3.674c1.246,0,2.492,0,3.738,0c0,1.132,0,2.263,0,3.55c1.173,0,2.264,0,3.61,0c0-1.174,0-2.362,0-3.55
				c1.246,0,2.492,0,3.738,0c0,2.471,0,4.941,0,7.412c-2.36,0-4.719,0-7.348,0c0,1.292,0,2.483,0,3.674c-1.132,0-2.264,0-3.596,0
				c-0.064,1.168-0.125,2.268-0.202,3.674c-1.241,0-2.428,0-3.614,0c0-1.137,0-2.274,0-3.674c-1.285,0-2.48,0-3.674,0
				C91.97,42.019,91.97,40.773,91.97,39.527z"/>
			<path fill="#191919" d="M99.318,57.961c0-1.246,0-2.492,0-3.738c1.138,0,2.276,0,3.674,0c0-3.732,0-7.377,0-11.022
				c1.134,0,2.267,0,3.627,0c0,2.45,0,4.766,0,7.316c2.53,0,4.843,0,7.387,0c0,2.634,0,5.037,0,7.439l0.065-0.065
				c-1.137,0-2.274,0-3.575,0c-0.078-1.191-0.15-2.297-0.229-3.515c-1.128,0-2.172,0-3.456,0c-0.062,1.047-0.128,2.153-0.214,3.585
				C104.157,57.961,101.737,57.961,99.318,57.961z"/>
			<path fill="#191919" d="M114.006,57.956c1.131,0,2.261,0,3.552,0c0,1.165,0,2.256,0,3.498c-1.058,0-2.149,0-3.486,0
				c0-1.19,0-2.377,0-3.563C114.071,57.891,114.006,57.956,114.006,57.956z"/>
			<path fill="#191919" d="M114.078,39.527c0,1.246,0,2.492,0,3.738c-1.138,0-2.276,0-3.738,0c0-1.353,0-2.545,0-3.738
				C111.586,39.527,112.832,39.527,114.078,39.527z"/>
			<path fill="#191919" d="M22.165,61.635c0-1.246,0-2.492,0-3.738c2.36,0,4.72,0,7.412,0c0,1.353,0,2.545,0,3.738
				C27.106,61.635,24.636,61.635,22.165,61.635z"/>
			<path fill="#191919" d="M128.832,28.427c0-3.64,0-7.124,0-10.76c3.59,0,7.129,0,10.8,0c0,3.572,0,7.11,0,10.76
				C136.054,28.427,132.571,28.427,128.832,28.427z"/>
			<g>
				<path fill="#191919" d="M84.619,120.355c0,2.359,0,4.717,0,7.419c1.354,0,2.545,0,3.737,0l-0.065-0.065c0,2.357,0,4.714,0,7.408
					c2.59,0,5.003,0,7.417,0l-0.063-0.067c0,1.246,0,2.492,0,3.738l0.063-0.067c-3.695,0-7.389,0-11.084,0l0.063,0.067
					c0-2.411,0-4.822,0-7.285c-1.404-0.08-2.505-0.142-3.61-0.205c-0.082-1.306-0.151-2.406-0.228-3.643c-1.267,0-2.309,0-3.425,0
					c-0.087-1.248-0.164-2.349-0.239-3.433c-1.248,0-2.339,0-3.591,0c0,2.511,0,4.862,0,7.213l0.065-0.065c-1.186,0-2.372,0-3.612,0
					c-0.073-1.336-0.134-2.435-0.198-3.597c-1.329,0-2.46,0-3.59,0c0-1.191,0-2.382,0-3.807c1.411,0,2.509,0,3.59,0
					c0-1.281,0-2.322,0-3.444c-2.427,0-4.744,0-7.087,0c0,2.458,0,4.779,0,7.186c1.287,0,2.425,0,3.562,0c0,1.192,0,2.383,0,3.729
					c-1.384,0-2.43,0-3.59,0c0,2.485,0,4.81,0,7.219c1.221,0.077,2.326,0.147,3.518,0.222c0,1.308,0,2.446,0,3.584l0.063-0.068
					c-2.351,0-4.702,0-7.259,0c-0.07-1.17-0.135-2.267-0.22-3.678c-2.455,0-4.865,0-7.275,0l0.065,0.065
					c-0.026-1.242-0.051-2.483-0.076-3.725c2.407,0,4.813,0,7.233,0c0-2.563,0-4.873,0-7.155c-2.467,0-4.777,0-7.168,0
					c0,2.517,0,4.869,0,7.22c-1.137,0-2.274,0-3.573,0c-0.081-1.266-0.152-2.371-0.233-3.637c-2.345,0-4.616,0-7.063,0
					c0-2.479,0-4.801,0-7.274c1.059,0,2.153,0,3.41,0c0.049,1.077,0.096,2.124,0.152,3.346c1.103,0,2.201,0,3.495,0
					c0.064-1.043,0.133-2.147,0.215-3.49c3.622,0,7.174,0,10.819,0c0-1.286,0-2.33,0-3.621c-3.562,0-7.116,0-10.793,0
					c0-1.282,0-2.323,0-3.612c1.025-0.066,2.128-0.138,3.432-0.222c0.064-1.107,0.128-2.212,0.2-3.464
					c1.172-0.071,2.281-0.138,3.479-0.21c0-1.162,0-2.206,0-3.488c-1.092-0.048-2.197-0.097-3.441-0.152
					c-0.082-1.186-0.157-2.292-0.244-3.548c-1.131,0-2.179,0-3.39,0c0-1.252,0-2.351,0-3.609c1.077-0.076,2.182-0.155,3.439-0.244
					c0-1.123,0-2.168,0-3.384c1.252,0,2.35,0,3.622,0c0.072,1.064,0.148,2.17,0.233,3.426c1.122,0,2.167,0,3.454,0
					c0,1.253,0,2.353,0,3.787c1.428,0,2.62,0,3.812,0l-0.063-0.067c0.023,1.246,0.045,2.491,0.068,3.737c-1.188,0-2.377,0-3.554,0
					c0,1.345,0,2.437,0,3.608c1.286,0,2.418,0,3.55,0c0,1.189,0,2.377,0,3.553c1.346,0,2.44,0,3.612,0c0-1.288,0-2.42,0-3.553
					c1.246,0.022,2.491,0.045,3.737,0.067l-0.064-0.064c0,1.193,0,2.385,0,3.738c1.463,0,2.6,0,3.738,0L73.6,116.68
					c0,1.192,0,2.385,0,3.738c3.918,0,7.502,0,11.086,0L84.619,120.355z"/>
				<path fill="#191919" d="M95.707,135.117c0-3.585,0-7.171,0-10.906c1.206,0,2.301,0,3.557,0c0.049,1.075,0.098,2.122,0.154,3.346
					c1.102,0,2.201,0,3.494,0c0.065-1.044,0.134-2.149,0.213-3.415c2.345,0,4.616,0,7.139,0c0-2.479,0-4.806,0-7.286
					c1.34-0.093,2.443-0.169,3.692-0.256c0.053-1.114,0.102-2.161,0.163-3.45c1.098,0,2.198,0,3.471,0
					c0.083-1.332,0.151-2.437,0.227-3.661c3.633,0,7.182,0,10.89,0c0,1.158,0,2.203,0,3.493c2.48,0,4.81,0,7.257,0
					c0,1.285,0,2.326,0,3.612c-1.037,0.064-2.143,0.132-3.398,0.21c0,3.577,0,7.127,0,10.846c1.073,0.048,2.117,0.095,3.402,0.153
					c0.056,1.177,0.112,2.362,0.165,3.551c-0.003,0.003,0.064-0.073,0.064-0.073c-1.142,0.068-2.284,0.136-3.604,0.215
					c0,2.303,0,4.628,0,7.136c1.052,0.073,2.155,0.149,3.372,0.232c0,1.12,0,2.165,0,3.453c-1.047,0-2.148,0-3.42,0
					c-0.083,1.332-0.152,2.437-0.228,3.661c-6.082,0-12.081,0-18.239,0c0-1.158,0-2.203,0-3.584c-3.797,0-7.442,0-11.087,0
					l0.063,0.067c0-1.187,0-2.374,0-3.789c2.569,0,4.884,0,7.277,0c0-2.589,0-4.94,0-7.291c1.186,0,2.373,0,3.564,0
					c0-1.339,0-2.428,0-3.487c-1.242,0-2.333,0-3.498,0c0,1.291,0,2.422,0,3.552c-1.188,0-2.376,0-3.613,0
					c-0.074,1.342-0.135,2.441-0.191,3.454c-1.317,0-2.411,0-3.504,0c-0.054-1.222-0.1-2.265-0.148-3.356c-1.25,0-2.344,0-3.508,0
					c-0.069,1.231-0.131,2.332-0.196,3.505c-1.327,0-2.46,0-3.593,0L95.707,135.117z M128.564,142.346c0-3.78,0-7.317,0-10.823
					c-2.442,0-4.705,0-7.07,0c-0.073,1.205-0.139,2.304-0.22,3.627c-2.474,0-4.797,0-7.133,0c0,1.282,0,2.323,0,3.601
					c2.409,0,4.735,0,7.136,0c0.087,1.329,0.159,2.428,0.236,3.595C123.934,142.346,126.194,142.346,128.564,142.346z
					 M128.641,116.878c-3.732,0-7.27,0-10.736,0c0,3.708,0,7.247,0,10.731c3.671,0,7.155,0,10.736,0
					C128.641,124.001,128.641,120.517,128.641,116.878z"/>
				<path fill="#191919" d="M132.523,57.802c-2.421,0-4.843,0-7.356,0c0,1.405,0,2.447,0,3.687c1.113,0.066,2.218,0.131,3.445,0.203
					c0,3.625,0,7.172,0,10.88c-1.132,0-2.175,0-3.459,0c0,1.253,0,2.353,0,3.588c-1.336,0-2.433,0-3.693,0c0-1.108,0-2.153,0-3.366
					c-1.252,0-2.348,0-3.596,0c0,2.291,0,4.615,0,7.101c1.095,0,2.138,0,3.406,0c0.074,1.248,0.139,2.353,0.224,3.792
					c2.439,0,4.857,0,7.275,0l-0.065-0.065c0,1.138,0,2.275,0,3.574c-1.193,0.078-2.3,0.151-3.553,0.233
					c-0.049,1.122-0.095,2.169-0.151,3.458c-1.106,0-2.206,0-3.641,0c0,1.428,0,2.621,0,3.813l0.067-0.063c-1.246,0-2.492,0-3.738,0
					l0.064,0.064c0-2.416,0-4.832,0-7.49c-2.663,0-4.989,0-7.255,0c0-1.294,0-2.339,0-3.458c1.218-0.083,2.32-0.158,3.372-0.229
					c0-3.733,0-7.28,0-10.826c-1.225-0.059-2.272-0.11-3.393-0.164c-0.081-1.25-0.152-2.355-0.219-3.402c-1.282,0-2.373,0-3.633,0
					c0,4.892,0,9.606,0,14.562c-2.495,0-4.824,0-7.305,0c0,1.382,0,2.521,0,3.66l0.063-0.067c-0.672,0-1.343,0-2.125,0
					c0-2.428,0-4.692,0-7.179c1.82,0,3.611,0,5.585,0c0-1.306,0-2.4,0-3.709c-1.724,0-3.523,0-5.506,0c0-1.294,0-2.385,0-3.633
					c0.614-0.084,1.25-0.171,1.938-0.265c0-1.189,0-2.234,0-3.418c-0.687-0.1-1.322-0.191-2.104-0.305
					c0.144-4.057,0.106-7.983-5.13-8.736c0-4.476,0-8.821,0-13.166l-0.067,0.063c1.247-0.021,2.494-0.042,3.741-0.063
					c0,1.188,0,2.375,0,3.617c1.339,0.073,2.438,0.134,3.674,0.202c0,1.328,0,2.459,0,3.591c-1.189,0-2.377,0-3.553,0
					c0,1.346,0,2.44,0,3.612c1.287,0,2.42,0,3.553,0c0,2.421,0,4.842,0,7.202c1.368,0,2.467,0,3.571,0
					c0.056-1.223,0.104-2.271,0.153-3.349c1.26,0,2.357,0,3.499,0c0.074,1.244,0.139,2.347,0.214,3.598c3.725,0,7.219,0,10.781,0
					c0.09,1.266,0.168,2.367,0.243,3.428c2.502,0,4.826,0,7.1,0c0-1.223,0-2.27,0-3.387c-1.213-0.086-2.319-0.165-3.521-0.251
					c0-3.746,0-7.331,0-10.917l-0.063,0.067c3.629,0,7.259,0,11.099,0c0,1.333,0,2.457-0.003,3.585
					C132.456,57.878,132.523,57.802,132.523,57.802z"/>
				<path fill="#191919" d="M36.931,98.368c0-1.135,0-2.27,0-3.551c-2.474,0-4.792,0-7.284,0c-0.064,1.106-0.128,2.209-0.2,3.453
					c-1.143,0-2.185,0-3.453,0c-0.073,1.239-0.137,2.34-0.211,3.592c-1.126,0-2.221,0-3.472,0c-0.072-1.1-0.143-2.202-0.225-3.452
					c-1.132,0-2.173,0-3.444,0c-0.059-1.32-0.112-2.503-0.163-3.687c0.003-0.003-0.064,0.073-0.064,0.073
					c1.14-0.069,2.281-0.138,3.661-0.222c0.067-1.07,0.135-2.174,0.219-3.523c2.344,0,4.674,0,7.122,0c0-1.284,0-2.326,0-3.619
					c-3.487,0-7.037,0-10.756,0c-0.088-1.332-0.16-2.437-0.244-3.698c-2.338,0-4.608,0-7.061,0c0-3.706,0-7.251,0-11.073
					c3.589,0,7.23,0,10.87,0l-0.063-0.067c0,2.411,0,4.822,0,7.217c1.406,0,2.496,0,3.738,0c0-2.513,0-4.865,0-7.217l-0.064,0.064
					c2.471,0,4.941,0,7.412,0l-0.067-0.063c-0.002,1.244-0.003,2.488-0.005,3.732l0.065-0.065c-1.135,0-2.27,0-3.551,0
					c0,2.475,0,4.794,0,7.421c4.877,0,9.728,0,14.579,0l-0.063-0.067c0,1.246,0,2.492,0,3.738l0.063-0.068c-3.58,0-7.16,0-10.896,0
					c0,1.26,0,2.353,0,3.692c2.332,0,4.661,0,7.139,0c0,1.279,0,2.323,0,3.573c1.246,0.07,2.35,0.132,3.587,0.202
					c0,2.387,0,4.709,0,7.148c-1.107,0-2.149,0-3.431,0c0-1.064,0-2.162,0-3.598c-1.424,0-2.615,0-3.805,0L36.931,98.368z"/>
				<path fill="#191919" d="M62.641,105.726c0-1.133,0-2.265,0-3.597c1.17-0.065,2.27-0.126,3.551-0.198c0-1.852,0-3.647,0-5.618
					c4.997,0,9.812,0,14.732,0c0.032,0.71,0.062,1.381,0.092,2.052c-1.186,0-2.372,0-3.559,0c0,1.347,0,2.436,0,3.487
					c1.244,0,2.335,0,3.492,0c0-1.293,0-2.424,0-3.554c1.139,0,2.279,0,3.656,0c0,4.933,0,9.714,0,14.646
					c1.274,0.059,2.319,0.107,3.602,0.166c0.068,1.09,0.137,2.196,0.226,3.643c2.429,0,4.849,0,7.269,0l-0.065-0.065
					c0,1.138,0,2.276,0,3.668c-3.731,0-7.375,0-11.019,0l0.067,0.063c0-1.193,0-2.385,0-3.738c-3.918,0-7.502,0-11.086,0
					l0.064,0.064c-0.023-1.244-0.047-2.487-0.07-3.731c1.186,0,2.373,0,3.563,0c0-1.338,0-2.428,0-3.487c-1.242,0-2.334,0-3.498,0
					c0,1.291,0,2.421,0,3.552c-1.244-0.024-2.489-0.048-3.733-0.072l0.064,0.064c0-2.414,0-4.829,0-7.412c-2.694,0-5.053,0-7.412,0
					L62.641,105.726z M73.552,98.525c-1.337,0-2.43,0-3.476,0c0,1.221,0,2.261,0,3.353c1.213,0,2.307,0,3.476,0
					C73.552,100.703,73.552,99.664,73.552,98.525z"/>
				<path fill="#191919" d="M11.278,145.942c0-8.55,0-16.933,0-25.435c8.485,0,16.868,0,25.433,0c0,8.398,0,16.835,0,25.435
					C28.332,145.942,19.895,145.942,11.278,145.942z M14.933,142.244c6.237,0,12.224,0,18.161,0c0-6.12,0-12.053,0-18.039
					c-6.113,0-12.1,0-18.161,0C14.933,130.283,14.933,136.216,14.933,142.244z"/>
				<path fill="#191919" d="M99.477,113.146c-0.068-1.137-0.136-2.274-0.218-3.654c-2.285,0-4.604,0-7.13,0
					c-0.077-1.321-0.142-2.421-0.215-3.678c-1.143-0.075-2.245-0.148-3.462-0.228c0-1.117,0-2.158,0-3.44
					c1.026-0.07,2.125-0.145,3.536-0.242c0-1.171,0-2.355,0-3.54l-0.064,0.068c1.179-0.062,2.359-0.124,3.73-0.196
					c0-1.185,0-2.27,0-3.532c1.372,0,2.55,0,3.728,0l-0.063-0.067c0,1.186,0,2.373,0,3.55c1.409,0,2.502,0,3.738,0
					c0-1.286,0-2.418,0-3.55l-0.064,0.064c1.189,0,2.378,0,3.612,0c0.079,1.344,0.143,2.44,0.216,3.674c2.557,0,4.907,0,7.258,0
					l-0.067-0.063c0,1.135,0,2.27,0,3.589c-1.18,0.07-2.283,0.135-3.539,0.209c-0.064,1.17-0.123,2.272-0.192,3.527
					c-2.385,0-4.65,0-7.084,0c0,1.248,0,2.338,0,3.678c2.282,0,4.606,0,7.049,0c0,1.275,0,2.314,0,3.594
					c-1.025,0.07-2.126,0.144-3.439,0.233c-0.061,1.093-0.123,2.196-0.192,3.43c-1.164,0-2.259,0-3.517,0c0-1.097,0-2.139,0-3.488
					c-1.329,0-2.51,0-3.693-0.003C99.401,113.079,99.477,113.146,99.477,113.146z"/>
				<path fill="#191919" d="M73.607,35.923c1.137,0,2.274,0,3.74,0c0-2.578,0-4.996,0-7.414l-0.065,0.065
					c1.242,0.001,2.484,0.002,3.726,0.003l-0.065-0.065c0,3.577,0,7.154,0,10.888c1.259,0,2.349,0,3.687,0c0-2.323,0-4.65,0-7.077
					c1.278,0,2.318,0,3.6,0c0,1.076,0,2.174,0,3.598c1.423,0,2.613,0,3.803,0l-0.063-0.067c0.021,1.247,0.042,2.494,0.063,3.741
					c-1.188,0-2.376,0-3.548,0c0,1.344,0,2.436,0,3.608c1.287,0,2.42,0,3.552,0c-0.022,1.246-0.045,2.491-0.067,3.737l0.067-0.063
					c-1.137,0-2.273,0-3.643,0c0,3.685,0,7.232,0,10.913c-1.322,0-2.414,0-3.672,0c0-2.32,0-4.585,0-7.076
					c-1.243-0.078-2.342-0.147-3.678-0.231c0-2.337,0-4.661,0-7.15c-1.326-0.066-2.427-0.12-3.675-0.182c0-1.166,0-2.209,0-3.491
					c-1.248,0-2.346,0-3.697,0c0-1.419,0-2.61,0-3.801L73.607,35.923z"/>
				<path fill="#191919" d="M135.962,90.887c0,6.087,0,12.174,0,18.368c-1.132,0-2.175,0-3.465,0c0-2.304,0-4.629,0-7.095
					c-2.56,0-4.878,0-7.354,0c0,1.103,0,2.147,0,3.361c-2.471,0-4.795,0-7.388,0c0-2.384,0-4.797,0-7.21l-0.067,0.063
					c1.193,0,2.386,0,3.738,0c0-1.462,0-2.6,0-3.738l-0.067,0.063c1.138,0,2.276,0,3.589,0c0.074,1.191,0.142,2.296,0.218,3.518
					c2.409,0,4.734,0,7.154,0c0-1.159,0-2.202,0-3.433c-1.123-0.069-2.228-0.137-3.452-0.212c0-1.125,0-2.169,0-3.625
					c2.347,0,4.756,0,7.167,0.003C136.038,90.953,135.962,90.887,135.962,90.887z"/>
				<path fill="#191919" d="M132.542,80.08c0-3.646,0-7.292,0-11.032c1.155,0,2.198,0,3.431,0c0.068,1.12,0.136,2.224,0.213,3.49
					c3.569,0,7.063,0,10.741,0c0,3.705,0,7.25,0,10.952c-1.045,0-2.14,0-3.391,0c-0.055-1.061-0.11-2.108-0.181-3.472
					c-3.616,0-7.249,0-10.885-0.003C132.467,80.014,132.542,80.08,132.542,80.08z"/>
				<path fill="#191919" d="M25.763,113.166c3.618,0,7.235,0,11.17,0c0-1.463,0-2.645,0-3.828l-0.065,0.065
					c3.565,0,7.131,0,10.871,0c0,1.148,0,2.238,0,3.563c-2.254,0-4.57,0-7.212,0c0,1.402,0,2.588,0,3.774l0.065-0.065
					c-4.851,0-9.701,0-14.767,0c0-1.328,0-2.453,0.003-3.581C25.83,113.09,25.763,113.166,25.763,113.166z"/>
				<path fill="#191919" d="M14.823,109.403c2.346,0,4.693,0,7.251,0c0.072-1.231,0.137-2.328,0.21-3.566c2.355,0,4.666,0,7.119,0
					c0,1.103,0,2.191,0,3.517c-1.137,0-2.233,0-3.423,0c-0.08,1.418-0.147,2.612-0.216,3.809c-0.002,0.003,0.064-0.073,0.062-0.07
					c-1.129,0.003-2.255,0.003-3.535,0.003c-0.062,1.211-0.119,2.316-0.18,3.511c-1.175,0-2.216,0-3.495,0c0-1.084,0-2.181,0-3.608
					c-1.419,0-2.607,0-3.796,0l0.065,0.065c0-1.242,0.001-2.484,0.001-3.726L14.823,109.403z"/>
				<path fill="#191919" d="M14.957,101.889c-1.136,0.053-2.272,0.106-3.597,0.167c0-4.863,0-9.619,0-14.556
					c0.996,0,2.087,0,3.381,0c0.061,1.033,0.126,2.135,0.2,3.382c1.167,0.072,2.27,0.14,3.48,0.214c0,1.301,0,2.497-0.002,3.696
					c-0.002,0.003,0.064-0.073,0.062-0.07c-1.12,0.003-2.238,0.003-3.584,0.003c0,2.465,0,4.85-0.003,7.237
					C14.89,101.965,14.957,101.889,14.957,101.889z"/>
				<path fill="#191919" d="M143.329,98.47c1.136-0.053,2.272-0.106,3.597-0.168c0,4.926,0,9.742,0,14.782
					c-1.18,0-2.306,0-3.435-0.003c-0.003-0.003,0.073,0.064,0.073,0.064c-0.069-1.14-0.139-2.28-0.223-3.666
					c-1.069-0.064-2.173-0.131-3.425-0.206c0-1.131,0-2.229,0-3.483c1.062-0.056,2.11-0.112,3.475-0.184c0-2.387,0-4.797,0.003-7.21
					C143.396,98.394,143.329,98.47,143.329,98.47z"/>
				<path fill="#191919" d="M51.562,138.716c0,1.138,0,2.277,0,3.591c1.247,0.076,2.352,0.143,3.576,0.218c0,1.128,0,2.172,0,3.398
					c-3.489,0-7.035,0-10.856,0c0-2.364,0-4.779,0-7.195l-0.065,0.065c2.47-0.004,4.941-0.008,7.411-0.012
					C51.627,138.781,51.562,138.716,51.562,138.716z"/>
				<path fill="#191919" d="M139.739,91.031c1.13,0,2.26,0,3.584,0c0.068-1.237,0.129-2.336,0.197-3.569c1.155,0,2.246,0,3.465,0
					c0,2.347,0,4.656,0,7.12c-1.101,0.051-2.138,0.099-3.411,0.157c-0.079,1.227-0.16,2.476-0.243,3.728
					c-0.002,0.003,0.064-0.073,0.062-0.07c-1.126,0.003-2.249,0.003-3.589,0.003c0-2.623,0-5.028,0-7.433L139.739,91.031z"/>
				<path fill="#191919" d="M143.412,116.75c1.136,0,2.271,0,3.552,0c0,2.405,0,4.725,0,7.179c-3.576,0-7.115,0-10.764,0
					c0-1.125,0-2.167,0-3.451c2.292,0,4.618,0,7.277,0c0-1.413,0-2.603,0-3.793L143.412,116.75z"/>
				<path fill="#191919" d="M84.623,138.72c0,1.136,0,2.271,0,3.59c1.244,0.072,2.348,0.137,3.574,0.208c0,1.175,0,2.269,0,3.475
					c-2.346,0-4.609,0-7.105,0c-0.063-1.079-0.126-2.178-0.209-3.6c-1.228,0-2.418,0-3.608,0l0.063,0.067c0-1.191,0-2.382,0-3.674
					c2.628,0,4.988,0,7.348,0L84.623,138.72z"/>
				<path fill="#191919" d="M143.475,138.781c0-1.127,0-2.253,0-3.661c-2.482,0-4.844,0-7.283,0c0-1.465,0-2.65,0.002-3.837
					c0.002-0.003-0.064,0.073-0.062,0.07c3.559-0.003,7.116-0.003,10.824-0.003c0,2.502,0,4.809,0,7.365c-1.179,0-2.363,0-3.547,0
					L143.475,138.781z"/>
				<path fill="#191919" d="M99.381,94.704c0-2.473,0-4.946,0-7.419l-0.063,0.067c2.403,0,4.807,0,7.236,0c0,1.32,0,2.411,0,3.56
					c-1.237,0.068-2.335,0.128-3.562,0.195c0,1.331,0,2.462,0,3.593l0.064-0.064c-1.246,0-2.492,0-3.738,0L99.381,94.704z"/>
				<path fill="#191919" d="M143.41,138.716c0,1.137,0,2.273,0,3.596c1.239,0.071,2.343,0.135,3.569,0.206c0,1.175,0,2.27,0,3.476
					c-2.346,0-4.61,0-7.046,0c0-2.308,0-4.624,0-7.212c1.161,0,2.351,0,3.542,0C143.475,138.781,143.41,138.716,143.41,138.716z"/>
				<path fill="#191919" d="M102.993,142.394c0,1.135,0,2.271,0,3.558c-2.395,0-4.713,0-7.286,0c0-2.415,0-4.824,0-7.232
					l-0.063,0.067c1.188,0,2.376,0,3.618,0c0.074,1.342,0.135,2.442,0.203,3.674c1.327,0,2.459,0,3.592,0L102.993,142.394z"/>
				<path fill="#191919" d="M69.923,142.399c0,1.132,0,2.265,0,3.55c-1.17,0-2.264,0-3.608,0c0-1.178,0-2.366,0-3.555l-0.063,0.068
					c1.246,0,2.492,0,3.738,0L69.923,142.399z"/>
				<path fill="#191919" d="M77.275,142.394c0,1.132,0,2.265,0,3.553c-1.171,0-2.265,0-3.608,0c0-1.173,0-2.361,0-3.549
					l-0.067,0.063c1.246,0,2.492,0,3.738,0L77.275,142.394z"/>
				<path fill="#191919" d="M36.932,109.337c-1.13,0-2.261,0-3.551,0c0-1.165,0-2.256,0-3.498c1.059,0,2.149,0,3.486,0
					c0,1.191,0,2.377,0,3.563L36.932,109.337z"/>
				<path fill="#191919" d="M14.889,109.338c-1.133,0-2.266,0-3.555,0c0-1.173,0-2.266,0-3.607c1.168,0,2.355,0,3.542,0
					l-0.065-0.065c0.004,1.246,0.008,2.492,0.012,3.738C14.823,109.403,14.889,109.338,14.889,109.338z"/>
				<path fill="#191919" d="M14.876,105.73c0.025-1.278,0.051-2.557,0.078-3.838c0.002-0.003-0.064,0.073-0.062,0.07
					c1.122-0.003,2.241-0.003,3.493-0.003c0,1.293,0,2.381,0,3.705c-1.209,0-2.392,0-3.574,0
					C14.811,105.665,14.876,105.73,14.876,105.73z"/>
				<path fill="#191919" d="M36.866,98.302c0,1.13,0,2.261,0,3.552c-1.165,0-2.256,0-3.498,0c0-1.059,0-2.149,0-3.486
					c1.19,0,2.377,0,3.563,0C36.931,98.368,36.866,98.302,36.866,98.302z"/>
				<path fill="#191919" d="M73.668,142.399c-1.248,0-2.496,0-3.745,0l0.067,0.063c0-1.188,0-2.375,0-3.549c1.345,0,2.438,0,3.61,0
					c0,1.286,0,2.418,0,3.549L73.668,142.399z"/>
				<path fill="#191919" d="M88.355,127.774c0-1.13,0-2.261,0-3.552c1.164,0,2.255,0,3.498,0c0,1.058,0,2.147,0,3.487
					c-1.19,0-2.376,0-3.563,0L88.355,127.774z"/>
				<path fill="#191919" d="M44.281,138.728c-1.13,0-2.261,0-3.552,0c0-1.163,0-2.252,0-3.498c1.058,0,2.149,0,3.487,0
					c0,1.19,0,2.376,0,3.563C44.216,138.793,44.281,138.728,44.281,138.728z"/>
				<path fill="#191919" d="M143.477,116.685c-1.123,0-2.247,0-3.541,0c0-1.134,0-2.218,0-3.544c1.148,0,2.385,0,3.625,0.002
					c0.003,0.002-0.073-0.064-0.07-0.062c-0.025,1.224-0.052,2.446-0.079,3.668C143.412,116.75,143.477,116.685,143.477,116.685z"/>
				<path fill="#191919" d="M95.703,116.752c0-1.124,0-2.248,0-3.611c1.291,0,2.53,0,3.771,0.002
					c0.003,0.002-0.073-0.064-0.07-0.062c0.003,1.124,0.003,2.245,0.003,3.605c-1.396,0-2.582,0-3.769,0
					C95.638,116.687,95.703,116.752,95.703,116.752z"/>
				<path fill="#191919" d="M14.822,112.998c0,1.13,0,2.261,0,3.552c-1.165,0-2.256,0-3.498,0c0-1.058,0-2.147,0-3.486
					c1.191,0,2.377,0,3.563,0C14.887,113.063,14.822,112.998,14.822,112.998z"/>
				<path fill="#191919" d="M117.755,98.311c-1.248,0-2.496,0-3.745,0l0.067,0.063c0-1.194,0-2.388,0-3.674c1.4,0,2.537,0,3.674,0
					l-0.064-0.064c0,1.246,0,2.492,0,3.738L117.755,98.311z"/>
				<path fill="#191919" d="M139.804,90.966c-1.279-0.025-2.557-0.05-3.839-0.077c-0.003-0.002,0.073,0.064,0.07,0.062
					c-0.003-1.121-0.003-2.239-0.003-3.492c1.294,0,2.381,0,3.706,0c0,1.208,0,2.391,0,3.573
					C139.739,91.031,139.804,90.966,139.804,90.966z"/>
				<path fill="#191919" d="M128.769,83.687c0-1.124,0-2.248,0-3.612c1.29,0,2.529,0,3.771,0.002
					c0.003,0.002-0.073-0.064-0.07-0.062c0.003,1.124,0.003,2.245,0.003,3.605c-1.395,0-2.582,0-3.768,0
					C128.704,83.622,128.769,83.687,128.769,83.687z"/>
				<path fill="#191919" d="M91.987,98.363c-1.132,0-2.263,0-3.363,0c-0.43-2.42-0.43-2.42,3.303-2.06c0,0.69,0,1.407-0.002,2.126
					C91.923,98.432,91.987,98.363,91.987,98.363z"/>
				<path fill="#191919" d="M73.593,131.434c1.13,0,2.261,0,3.551,0c0,1.165,0,2.256,0,3.498c-1.058,0-2.148,0-3.486,0
					c0-1.191,0-2.377,0-3.563C73.658,131.369,73.593,131.434,73.593,131.434z"/>
				<path fill="#191919" d="M121.579,120.428c1.17,0,2.156,0,3.315,0c0,1.13,0,2.225,0,3.478c-1.04,0-2.134,0-3.315,0
					C121.579,122.742,121.579,121.594,121.579,120.428z"/>
				<path fill="#191919" d="M18.663,127.778c3.662,0,7.092,0,10.702,0c0,3.577,0,7.116,0,10.818c-3.483,0-7.022,0-10.702,0
					C18.663,135.05,18.663,131.512,18.663,127.778z"/>
			</g>
			<path fill="#191919" d="M18.672,17.563c3.634,0,7.064,0,10.683,0c0,3.554,0,7.094,0,10.805c-3.454,0-6.993,0-10.683,0
				C18.672,24.851,18.672,21.313,18.672,17.563z"/>
		</g>
	</g>
</g>
<g>
	<path fill="#FFFFFF" d="M63.529,89.645c0,2.75,2.25,5,5,5h21.672c2.75,0,5-2.25,5-5V66.258c0-2.75-2.25-5-5-5H68.529
		c-2.75,0-5,2.25-5,5V89.645z"/>
	<path fill="none" stroke="#191919" stroke-width="0.5" stroke-miterlimit="10" d="M63.529,89.645c0,2.75,2.25,5,5,5h21.672
		c2.75,0,5-2.25,5-5V66.258c0-2.75-2.25-5-5-5H68.529c-2.75,0-5,2.25-5,5V89.645z"/>
</g>
<path fill="#0C74EB" d="M83.752,74.512h1.393l1.393,1.857l1.393-1.857h1.393l-2.229,2.91v2.043l-1.115,0.619v-2.663L83.752,74.512z"
	/>
<path fill="#0C74EB" d="M80.283,74.512l1.115-0.001v4.459h3.963l-0.581,1.114l-4.498,0.001L80.283,74.512L80.283,74.512z"/>
<path fill="#0C74EB" d="M74.092,74.512h5.077l-0.557,1.115h-3.406v1.115h3.778l-0.557,1.115h-3.22v1.61l-1.114,0.619L74.092,74.512
	L74.092,74.512z"/>
<path fill="#0C74EB" d="M70.996,76.307h1.114v3.207l-1.114,0.571V76.307z"/>
<path fill="#0C74EB" d="M71.659,74.333c0.372,0.058,0.625,0.406,0.567,0.778c-0.059,0.371-0.408,0.626-0.78,0.567
	c-0.372-0.058-0.625-0.406-0.567-0.778C70.938,74.53,71.287,74.276,71.659,74.333z"/>
<linearGradient id="SVGID_1_" gradientUnits="userSpaceOnUse" x1="450.095" y1="-478.269" x2="441.8505" y2="-500.9209" gradientTransform="matrix(1 0 0 -1 -366.055 -412.37)">
	<stop  offset="0" style="stop-color:#02D7FD"/>
	<stop  offset="0.5" style="stop-color:#0C7CEF"/>
	<stop  offset="1" style="stop-color:#0754D3"/>
</linearGradient>
<path fill="url(#SVGID_1_)" d="M88.238,68.913c-5.202-5.202-13.147-5.692-17.744-1.095c-4.598,4.597-4.107,12.542,1.095,17.744
	c0.134,0.134,0.275,0.253,0.413,0.378c0.004,0.004,0.007,0.007,0.011,0.01c0.012,0.011,0.025,0.022,0.037,0.034l0.005-0.006
	c0.156,0.136,0.353,0.225,0.575,0.225c0.489,0,0.885-0.396,0.885-0.885c0-0.244-0.099-0.465-0.259-0.625l0.005-0.006
	c-0.147-0.135-0.298-0.261-0.441-0.404c-4.522-4.522-5.012-11.363-1.094-15.281c3.917-3.917,10.758-3.427,15.28,1.094
	c4.522,4.522,5.012,11.363,1.094,15.281c-2.732,2.732-6.884,3.314-10.682,1.886c-0.076-0.023-0.151-0.041-0.228-0.07
	c-1.333-0.513-1.604-0.009-2.241,0c-1.115,0.017-1.736-0.266-2.402-0.792c5.18,4.375,12.459,4.581,16.786,0.253
	C93.931,82.059,93.44,74.115,88.238,68.913z"/>
</svg>
