<?xml version="1.0" encoding="utf-8"?>
<!-- Generator: Adobe Illustrator 17.0.0, SVG Export Plug-In . SVG Version: 6.00 Build 0)  -->
<!DOCTYPE svg PUBLIC "-//W3C//DTD SVG 1.1//EN" "http://www.w3.org/Graphics/SVG/1.1/DTD/svg11.dtd">
<svg version="1.1" id="图层_1" xmlns="http://www.w3.org/2000/svg" xmlns:xlink="http://www.w3.org/1999/xlink" x="0px" y="0px"
	 width="549.778px" height="321px" viewBox="0 0 549.778 321" enable-background="new 0 0 549.778 321" xml:space="preserve">
<path fill="#FFFFFF" stroke="#C4C7CB" stroke-miterlimit="10" d="M419.255-1v276.795c-1.008,37.732-43.143,42.058-43.143,42.058
	c-1.234,0.066-2.644,0.284-4.204,0.348c-16.166,1.175-52.981,0.619-96.693,0.621c-0.002,0-0.006,0-0.006,0s-0.005,0-0.007,0
	c-0.059,0-0.117,0-0.175,0c-44.164,0-83.414,0.65-99.373-0.542c-1.213-0.054-2.36-0.371-3.434-0.427c0,0-41.196-3.099-42.204-40.831
	V-1"/>
<path fill="#D0D8E2" d="M140.038,51h269.16v203h-269.16V51z"/>
<path fill="#FFFFFF" d="M140.038,50h269v36h-269V50L140.038,50z"/>
<g id="按键">
	<g>
		<path fill="#FFFFFF" stroke="#C5CDD6" stroke-width="0.5" stroke-miterlimit="10" d="M148.038,90h36c1.657,0,3,1.343,3,3v154
			c0,1.657-1.343,3-3,3h-36c-1.657,0-3-1.343-3-3V93C145.038,91.343,146.381,90,148.038,90z"/>
		<path fill="#FFFFFF" stroke="#C5CDD6" stroke-width="0.5" stroke-miterlimit="10" d="M195.038,91h46c1.657,0,3,1.343,3,3v31
			c0,1.657-1.343,3-3,3h-46c-1.657,0-3-1.343-3-3V94C192.038,92.343,193.381,91,195.038,91z"/>
		<path fill="#FFFFFF" stroke="#C5CDD6" stroke-width="0.5" stroke-miterlimit="10" d="M252.038,91h46c1.657,0,3,1.343,3,3v31
			c0,1.657-1.343,3-3,3h-46c-1.657,0-3-1.343-3-3V94C249.038,92.343,250.381,91,252.038,91z"/>
		<path fill="#FFFFFF" stroke="#C5CDD6" stroke-width="0.5" stroke-miterlimit="10" d="M309.038,91h47c1.657,0,3,1.343,3,3v31
			c0,1.657-1.343,3-3,3h-47c-1.657,0-3-1.343-3-3V94C306.038,92.343,307.381,91,309.038,91z"/>
		<path fill="#FFFFFF" stroke="#C5CDD6" stroke-width="0.5" stroke-miterlimit="10" d="M195.038,132h46c1.657,0,3,1.343,3,3v31
			c0,1.657-1.343,3-3,3h-46c-1.657,0-3-1.343-3-3v-31C192.038,133.343,193.381,132,195.038,132z"/>
		<path fill="#FFFFFF" stroke="#C5CDD6" stroke-width="0.5" stroke-miterlimit="10" d="M309.038,132h47c1.657,0,3,1.343,3,3v31
			c0,1.657-1.343,3-3,3h-47c-1.657,0-3-1.343-3-3v-31C306.038,133.343,307.381,132,309.038,132z"/>
		<path fill="#FFFFFF" stroke="#C5CDD6" stroke-width="0.5" stroke-miterlimit="10" d="M195.038,173h46c1.657,0,3,1.343,3,3v31
			c0,1.657-1.343,3-3,3h-46c-1.657,0-3-1.343-3-3v-31C192.038,174.343,193.381,173,195.038,173z"/>
		<path fill="#FFFFFF" stroke="#C5CDD6" stroke-width="0.5" stroke-miterlimit="10" d="M252.038,173h46c1.657,0,3,1.343,3,3v31
			c0,1.657-1.343,3-3,3h-46c-1.657,0-3-1.343-3-3v-31C249.038,174.343,250.381,173,252.038,173z"/>
		<path fill="#FFFFFF" stroke="#C5CDD6" stroke-width="0.5" stroke-miterlimit="10" d="M252.038,214h46c1.657,0,3,1.343,3,3v30
			c0,1.657-1.343,3-3,3h-46c-1.657,0-3-1.343-3-3v-30C249.038,215.343,250.381,214,252.038,214z"/>
		<path fill="#FFFFFF" stroke="#C5CDD6" stroke-width="0.5" stroke-miterlimit="10" d="M309.038,173h47c1.657,0,3,1.343,3,3v31
			c0,1.657-1.343,3-3,3h-47c-1.657,0-3-1.343-3-3v-31C306.038,174.343,307.381,173,309.038,173z"/>
		<path opacity="0.3" fill="#FFFFFF" stroke="#C5CDD6" stroke-width="0.5" stroke-miterlimit="10" enable-background="new    " d="
			M367.038,91h34c1.657,0,3,1.308,3,2.921v31.158c0,1.613-1.343,2.921-3,2.921h-34c-1.657,0-3-1.308-3-2.921V93.921
			C364.038,92.308,365.381,91,367.038,91z"/>
		<path opacity="0.3" fill="#FFFFFF" stroke="#C5CDD6" stroke-width="0.5" stroke-miterlimit="10" enable-background="new    " d="
			M367.038,132h34c1.657,0,3,1.343,3,3v31c0,1.657-1.343,3-3,3h-34c-1.657,0-3-1.343-3-3v-31
			C364.038,133.343,365.381,132,367.038,132z"/>
		<path opacity="0.3" fill="#FFFFFF" stroke="#C5CDD6" stroke-width="0.5" stroke-miterlimit="10" enable-background="new    " d="
			M367.038,173h34c1.657,0,3,1.343,3,3v31c0,1.657-1.343,3-3,3h-34c-1.657,0-3-1.343-3-3v-31
			C364.038,174.343,365.381,173,367.038,173z"/>
		<path opacity="0.3" fill="#FFFFFF" stroke="#C5CDD6" stroke-width="0.5" stroke-miterlimit="10" enable-background="new    " d="
			M367.038,214h34c1.657,0,3,1.343,3,3v30c0,1.657-1.343,3-3,3h-34c-1.657,0-3-1.343-3-3v-30
			C364.038,215.343,365.381,214,367.038,214z"/>
		<path opacity="0.3" fill="#FFFFFF" stroke="#C5CDD6" stroke-width="0.5" stroke-miterlimit="10" enable-background="new    " d="
			M309.038,214h47c1.657,0,3,1.343,3,3v30c0,1.657-1.343,3-3,3h-47c-1.657,0-3-1.343-3-3v-30
			C306.038,215.343,307.381,214,309.038,214z"/>
		<path opacity="0.3" fill="#FFFFFF" stroke="#C5CDD6" stroke-width="0.5" stroke-miterlimit="10" enable-background="new    " d="
			M195.038,214h46c1.657,0,3,1.343,3,3v30c0,1.657-1.343,3-3,3h-46c-1.657,0-3-1.343-3-3v-30
			C192.038,215.343,193.381,214,195.038,214z"/>
	</g>
	<path fill="#FFFFFF" stroke="#C5CDD6" stroke-width="0.5" stroke-miterlimit="10" d="M252.038,132h46c1.657,0,3,1.343,3,3v31
		c0,1.657-1.343,3-3,3h-46c-1.657,0-3-1.343-3-3v-31C249.038,133.343,250.381,132,252.038,132z"/>
</g>
<g>
	<g>
		<path d="M166.727,107.214l-0.99,3.123h-0.82l0.721-3.123H166.727z"/>
	</g>
	<g>
		<path d="M166.467,140.615c0.383,0,0.715,0.148,0.996,0.445s0.422,0.643,0.422,1.037c0,0.445-0.143,0.808-0.428,1.087
			s-0.629,0.419-1.031,0.419s-0.749-0.143-1.04-0.428s-0.437-0.641-0.437-1.066c0-0.434,0.154-0.791,0.463-1.072
			S166.073,140.615,166.467,140.615z M166.45,142.748c0.148,0,0.287-0.057,0.416-0.17s0.193-0.26,0.193-0.439
			c0-0.199-0.062-0.358-0.188-0.478s-0.277-0.179-0.457-0.179c-0.168,0-0.312,0.06-0.434,0.179s-0.182,0.276-0.182,0.472
			c0,0.191,0.071,0.342,0.214,0.451S166.301,142.748,166.45,142.748z"/>
	</g>
	<g>
		<path d="M166.437,176.108h-1.02v-0.504c0-0.41,0.082-0.763,0.246-1.058s0.457-0.606,0.879-0.935c0.414-0.32,0.71-0.62,0.888-0.899
			s0.267-0.601,0.267-0.964c0-0.387-0.138-0.705-0.413-0.955s-0.649-0.375-1.122-0.375c-0.746,0-1.402,0.283-1.969,0.85v-1.195
			c0.656-0.41,1.367-0.615,2.133-0.615c0.762,0,1.368,0.2,1.819,0.601s0.677,0.925,0.677,1.573c0,0.453-0.105,0.865-0.316,1.236
			s-0.564,0.762-1.061,1.172c-0.398,0.332-0.666,0.596-0.803,0.791s-0.205,0.469-0.205,0.82L166.437,176.108L166.437,176.108z
			 M165.922,177.333c0.207,0,0.385,0.072,0.533,0.217s0.223,0.32,0.223,0.527c0,0.211-0.074,0.388-0.223,0.53
			s-0.326,0.214-0.533,0.214c-0.199,0-0.373-0.07-0.521-0.211s-0.223-0.318-0.223-0.533c0-0.211,0.073-0.388,0.22-0.53
			S165.719,177.333,165.922,177.333z"/>
	</g>
	<g>
		<path d="M165.593,208.658c0.207,0,0.385,0.072,0.533,0.217s0.223,0.32,0.223,0.527c0,0.211-0.074,0.388-0.223,0.53
			s-0.326,0.214-0.533,0.214s-0.385-0.071-0.533-0.214s-0.223-0.319-0.223-0.53c0-0.207,0.074-0.383,0.223-0.527
			S165.386,208.658,165.593,208.658z M166.167,200.93l-0.129,6.492h-0.926l-0.129-6.492H166.167z"/>
	</g>
	<g>
		<path d="M162.331,239.646c0-0.211,0.072-0.389,0.217-0.533s0.324-0.217,0.539-0.217c0.219,0,0.4,0.073,0.545,0.22
			s0.217,0.323,0.217,0.53c0,0.203-0.072,0.378-0.217,0.524s-0.328,0.22-0.551,0.22c-0.215,0-0.394-0.073-0.536-0.22
			S162.331,239.85,162.331,239.646z"/>
		<path d="M165.22,239.646c0-0.211,0.072-0.389,0.217-0.533s0.324-0.217,0.539-0.217c0.219,0,0.4,0.073,0.545,0.22
			s0.217,0.323,0.217,0.53c0,0.203-0.072,0.378-0.217,0.524s-0.328,0.22-0.551,0.22c-0.215,0-0.394-0.073-0.536-0.22
			S165.22,239.85,165.22,239.646z"/>
		<path d="M168.108,239.646c0-0.211,0.072-0.389,0.217-0.533s0.324-0.217,0.539-0.217c0.219,0,0.4,0.073,0.545,0.22
			s0.217,0.323,0.217,0.53c0,0.203-0.072,0.378-0.217,0.524s-0.328,0.22-0.551,0.22c-0.215,0-0.394-0.073-0.536-0.22
			S168.108,239.85,168.108,239.646z"/>
	</g>
	<g>
		<path fill="#020202" d="M266.029,228.915h0.841v4.197h-0.841V228.915z"/>
		<path fill="#020202" d="M284.527,228.915h0.841v4.197h-0.841V228.915z"/>
		<g>
			<path fill="#020202" d="M266.029,232.273h19.34v0.839h-19.34V232.273z"/>
			<path fill="#020202" d="M391.36,102.99h-11.02c-0.198,0-0.385,0.039-0.56,0.1c-0.254,0.044-0.502,0.141-0.699,0.336l-4.258,4.552
				c-0.507,0.503-0.51,1.315-0.006,1.815l4.226,4.52c0.229,0.227,0.524,0.336,0.825,0.356c0.151,0.044,0.307,0.074,0.473,0.074
				h11.02c0.904,0,1.637-0.7,1.637-1.562v-8.629C392.998,103.689,392.265,102.99,391.36,102.99z M392.157,113.115
				c0,0.435-0.359,0.788-0.803,0.788h-11.007c-0.156,0-0.293-0.055-0.416-0.13c-0.18-0.033-0.356-0.109-0.495-0.264l-3.519-3.928
				c-0.578-0.733-0.565-0.712,0-1.429l3.519-3.928c0.139-0.155,0.314-0.231,0.495-0.264c0.123-0.075,0.26-0.13,0.416-0.13h11.007
				c0.443,0,0.803,0.353,0.803,0.789V113.115z"/>
			<path fill="#020202" d="M387.813,105.484l0.696,0.694l-5.915,5.906l-0.696-0.695L387.813,105.484z"/>
			<path fill="#020202" d="M387.813,112.083l0.696-0.695l-5.915-5.905l-0.696,0.694L387.813,112.083z"/>
			<text transform="matrix(1 0 0 1 262.0222 114.8309)" font-family="'HelveticaNeue'" font-size="11.9237">ABC</text>
			<text transform="matrix(1 0 0 1 209.4022 115.6034)" font-family="'HelveticaNeue'" font-size="15.7934">:-)</text>
			<text transform="matrix(1 0 0 1 205.3794 156.1014)" font-family="'HelveticaNeue'" font-size="11.9237">GHI</text>
			<text transform="matrix(1 0 0 1 319.3628 115.6659)" font-family="'HelveticaNeue'" font-size="11.9237">DEF</text>
			<text transform="matrix(1 0 0 1 263.5791 156.1014)" font-family="'HelveticaNeue'" font-size="11.9237">JKL</text>
			<text transform="matrix(1 0 0 1 316.6555 156.1014)" font-family="'HelveticaNeue'" font-size="11.9237">MNO</text>
			<text transform="matrix(1 0 0 1 375.7318 156.1014)" font-family="'HelveticaNeue'" font-size="11.9237">ab</text>
			<text transform="matrix(1 0 0 1 372.4525 196.6385)" font-family="'HelveticaNeue'" font-size="11.9237">123</text>
			<text transform="matrix(1 0 0 1 371.9553 235.5135)" font-family="'MicrosoftYaHei'" font-size="10.6817">前往</text>
			<text transform="matrix(1 0 0 1 210.4995 235.5135)" font-family="'MicrosoftYaHei'" font-size="10.6817">符</text>
			<text transform="matrix(1 0 0 1 316.6555 235.5135)" font-family="'MicrosoftYaHei'" font-size="10.6817">中</text>
			<text transform="matrix(1 0 0 1 327.4165 236.2303)" font-family="'MicrosoftYaHei'" font-size="13.063">/</text>
			<text transform="matrix(1 0 0 1 333.6499 236.2167)" font-family="'MicrosoftYaHei'" font-size="7.9297">英</text>
			<text transform="matrix(1 0 0 1 201.1445 196.6385)" font-family="'HelveticaNeue'" font-size="11.9237">PQRS</text>
			<text transform="matrix(1 0 0 1 262.0228 196.6385)" font-family="'HelveticaNeue'" font-size="11.9237">TUV</text>
			<text transform="matrix(1 0 0 1 314.8519 196.6385)" font-family="'HelveticaNeue'" font-size="11.9237">WXYZ</text>
		</g>
	</g>
</g>
<text transform="matrix(1 0 0 1 281.3958 245.8569)" opacity="0.5" enable-background="new    " font-family="'FZLTXHK--GBK1-0'" font-size="7.2427">讯飞</text>
<path fill="#F7F7F7" d="M149.15,122.298h33.634v0.839H149.15V122.298z"/>
<path fill="#F7F7F7" d="M149.15,153.36h33.634v0.84H149.15V153.36z"/>
<path fill="#F7F7F7" d="M149.15,186.101h33.634v0.839H149.15V186.101z"/>
<path fill="#F7F7F7" d="M149.15,217.162h33.634v0.84H149.15V217.162z"/>
<path fill="none" stroke="#C4C7CB" stroke-miterlimit="10" d="M409.038,0v254h-269V0"/>
<g>
	<path fill="none" stroke="#FFFFFF" stroke-miterlimit="10" d="M180.038,100h190c5.523,0,10,4.477,10,10v122c0,5.523-4.477,10-10,10
		h-190c-5.523,0-10-4.477-10-10V110C170.038,104.477,174.515,100,180.038,100z"/>
</g>
<g opacity="0.5">
	<g>
		<path fill="#FFFFFF" d="M180.038,100h190c5.523,0,10,4.477,10,10v122c0,5.523-4.477,10-10,10h-190c-5.523,0-10-4.477-10-10V110
			C170.038,104.477,174.515,100,180.038,100z"/>
	</g>
</g>
<g id="蓝色">
	<path fill="#889BA5" d="M395.476,145.805c1.161,0,2.102,0.789,2.102,1.763v43.486c0,0.974-0.941,1.763-2.102,1.763
		c-1.161,0-2.102-0.789-2.102-1.763v-43.486C393.374,146.594,394.315,145.805,395.476,145.805z"/>
	<path fill="#889BA5" d="M471.153,145.805c1.161,0,2.102,0.789,2.102,1.763v43.486c0,0.974-0.941,1.763-2.102,1.763
		c-1.161,0-2.102-0.789-2.102-1.763v-43.486C469.051,146.594,469.992,145.805,471.153,145.805z"/>
	<path fill="#889BA5" d="M433.314,131.533c1.161,0,2.102,0.793,2.102,1.771v72.013c0,0.978-0.941,1.771-2.102,1.771
		c-1.161,0-2.102-0.793-2.102-1.771v-72.013C431.212,132.326,432.153,131.533,433.314,131.533z"/>
	<path fill="#889BA5" d="M78.473,145.805c1.161,0,2.102,0.789,2.102,1.763v43.486c0,0.974-0.941,1.763-2.102,1.763
		c-1.161,0-2.102-0.789-2.102-1.763v-43.486C76.371,146.594,77.312,145.805,78.473,145.805z"/>
	<path fill="#889BA5" d="M154.15,145.805c1.161,0,2.102,0.789,2.102,1.763v43.486c0,0.974-0.941,1.763-2.102,1.763
		c-1.161,0-2.102-0.789-2.102-1.763v-43.486C152.048,146.594,152.989,145.805,154.15,145.805z"/>
	<path fill="#889BA5" d="M116.311,131.533c1.161,0,2.102,0.793,2.102,1.771v72.013c0,0.978-0.941,1.771-2.102,1.771
		c-1.161,0-2.102-0.793-2.102-1.771v-72.013C114.209,132.326,115.15,131.533,116.311,131.533z"/>
</g>
<g>
	<path fill="#889BA5" d="M294.938,168.377c-0.307,12.054-10.161,21.736-22.299,21.736s-21.993-9.682-22.299-21.736h-5.697
		c0.593,15.261,12.882,27.456,27.997,27.456c15.115,0,27.403-12.196,27.996-27.456L294.938,168.377L294.938,168.377z"/>
	<g>
		<path fill="#889BA5" d="M247.488,165.696c1.572,0,2.846,1.273,2.846,2.843s-1.274,2.843-2.846,2.843s-2.846-1.273-2.846-2.843
			S245.916,165.696,247.488,165.696z"/>
		<path fill="#889BA5" d="M269.776,194.689h5.725v12.012h-5.725V194.689z"/>
		<path fill="#889BA5" d="M272.639,206.701c1.581,0,2.863-1.58,2.863,0c0,1.579-1.282,2.86-2.863,2.86s-2.863-1.28-2.863-2.86
			C269.776,205.122,271.058,206.701,272.639,206.701z"/>
		<path fill="#889BA5" d="M272.639,129.481c9.17,0,16.603,7.427,16.603,16.588s-7.433,16.588-16.603,16.588
			c-9.169,0-16.603-7.427-16.603-16.588C256.036,136.907,263.469,129.481,272.639,129.481z"/>
		<path fill="#889BA5" d="M272.639,150.073c9.17,0,16.603,7.427,16.603,16.588s-7.433,16.588-16.603,16.588
			c-9.169,0-16.603-7.427-16.603-16.588S263.469,150.073,272.639,150.073z"/>
		<path fill="#889BA5" d="M256.036,146.641h33.206v20.592h-33.206V146.641z"/>
		<path fill="#889BA5" d="M297.83,166.089c1.581,0,2.863,1.28,2.863,2.86s-1.282,2.86-2.863,2.86s-2.863-1.281-2.863-2.86
			S296.249,166.089,297.83,166.089z"/>
	</g>
</g>
<g id="灰色">
	<path opacity="0.3" fill="#879299" enable-background="new    " d="M545.676,145.805c1.161,0,2.102,0.789,2.102,1.763v43.486
		c0,0.974-0.941,1.763-2.102,1.763s-2.102-0.789-2.102-1.763v-43.486C543.574,146.594,544.515,145.805,545.676,145.805z"/>
	<path opacity="0.3" fill="#879299" enable-background="new    " d="M507.837,131.533c1.161,0,2.102,0.793,2.102,1.771v72.013
		c0,0.978-0.941,1.771-2.102,1.771c-1.161,0-2.102-0.793-2.102-1.771v-72.013C505.735,132.326,506.676,131.533,507.837,131.533z"/>
	<path opacity="0.3" fill="#879299" enable-background="new    " d="M3.324,145.805c1.161,0,2.102,0.789,2.102,1.763v43.486
		c0,0.974-0.941,1.763-2.102,1.763s-2.102-0.789-2.102-1.763v-43.486C1.222,146.594,2.163,145.805,3.324,145.805z"/>
	<path opacity="0.3" fill="#879299" enable-background="new    " d="M41.162,131.533c1.161,0,2.102,0.793,2.102,1.771v72.013
		c0,0.978-0.941,1.771-2.102,1.771s-2.102-0.793-2.102-1.771v-72.013C39.06,132.326,40.001,131.533,41.162,131.533z"/>
</g>
<g>
	<g>
		<g>
			<path fill="none" stroke="#000000" stroke-width="0.6" stroke-miterlimit="10" d="M216.136,73.727c0,0.55-0.45,1-1,1H201.67
				c-0.55,0-1-0.45-1-1V62.782c0-0.55,0.45-1,1-1h13.466c0.55,0,1,0.45,1,1V73.727z"/>
		</g>
		<g>
			<circle fill="#020202" cx="204.228" cy="65.587" r="0.308"/>
			<circle fill="#020202" cx="202.478" cy="65.587" r="0.308"/>
			<rect x="202.478" y="65.287" fill="#020202" width="1.75" height="0.6"/>
		</g>
		<g>
			<circle fill="#020202" cx="207.595" cy="65.587" r="0.308"/>
			<circle fill="#020202" cx="205.845" cy="65.587" r="0.308"/>
			<rect x="205.845" y="65.287" fill="#020202" width="1.75" height="0.6"/>
		</g>
		<g>
			<circle fill="#020202" cx="210.961" cy="65.587" r="0.308"/>
			<circle fill="#020202" cx="209.211" cy="65.587" r="0.308"/>
			<rect x="209.211" y="65.287" fill="#020202" width="1.75" height="0.6"/>
		</g>
		<g>
			<circle fill="#020202" cx="205.912" cy="68.255" r="0.308"/>
			<circle fill="#020202" cx="204.162" cy="68.255" r="0.308"/>
			<rect x="204.162" y="67.955" fill="#020202" width="1.75" height="0.6"/>
		</g>
		<g>
			<circle fill="#020202" cx="209.278" cy="68.255" r="0.308"/>
			<circle fill="#020202" cx="207.528" cy="68.255" r="0.308"/>
			<rect x="207.528" y="67.955" fill="#020202" width="1.75" height="0.6"/>
		</g>
		<circle fill="#020202" cx="212.577" cy="70.922" r="0.308"/>
		<circle fill="#020202" cx="204.162" cy="70.922" r="0.308"/>
		<rect x="204.228" y="70.622" fill="#020202" width="8.349" height="0.6"/>
		<g>
			<circle fill="#020202" cx="212.644" cy="68.255" r="0.308"/>
			<circle fill="#020202" cx="210.894" cy="68.255" r="0.308"/>
			<rect x="210.894" y="67.955" fill="#020202" width="1.75" height="0.6"/>
		</g>
		<g>
			<circle fill="#020202" cx="214.327" cy="65.587" r="0.308"/>
			<circle fill="#020202" cx="212.577" cy="65.587" r="0.308"/>
			<rect x="212.577" y="65.287" fill="#020202" width="1.75" height="0.6"/>
		</g>
	</g>
	<g>
		<path fill="none" stroke="#000000" stroke-width="0.6" stroke-miterlimit="10" d="M165.02,64.098v-0.585
			c0-0.94-0.729-1.701-1.629-1.701h-1.221c-0.9,0-1.629,0.761-1.629,1.701v0.591"/>
		<path fill="none" stroke="#000000" stroke-width="0.6" stroke-miterlimit="10" d="M160.29,64.249l-0.499-0.293
			c-0.8-0.47-1.814-0.209-2.264,0.584l-0.611,1.076c-0.45,0.79-0.166,1.813,0.635,2.282l0.503,0.295"/>
		<path fill="none" stroke="#000000" stroke-width="0.6" stroke-miterlimit="10" d="M167.51,68.189l0.5-0.293
			c0.8-0.47,1.085-1.492,0.635-2.285l-0.611-1.076c-0.45-0.792-1.464-1.053-2.264-0.584l-0.499,0.293"/>
		
			<ellipse transform="matrix(-0.0438 0.999 -0.999 -0.0438 238.1898 -91.3197)" fill="none" stroke="#000000" stroke-width="0.6" stroke-miterlimit="10" cx="162.797" cy="68.328" rx="2.366" ry="2.332"/>
		<path fill="none" stroke="#000000" stroke-width="0.6" stroke-miterlimit="10" d="M165.271,72.428l0.498,0.292
			c0.8,0.47,1.814,0.209,2.264-0.584l0.611-1.076c0.451-0.792,0.166-1.814-0.634-2.284l-0.496-0.291"/>
		<path fill="none" stroke="#000000" stroke-width="0.6" stroke-miterlimit="10" d="M158.057,68.477l-0.507,0.298
			c-0.8,0.47-1.085,1.492-0.635,2.285l0.611,1.076c0.45,0.792,1.464,1.053,2.264,0.584l0.502-0.294"/>
		<path fill="none" stroke="#000000" stroke-width="0.6" stroke-miterlimit="10" d="M160.539,72.569v0.59
			c0,0.94,0.729,1.701,1.629,1.701h1.221c0.9,0,1.629-0.761,1.629-1.701v-0.585"/>
		<g>
			<path fill="none" stroke="#000000" stroke-width="0.6" stroke-miterlimit="10" d="M157.968,68.338"/>
			<path fill="none" stroke="#000000" stroke-width="0.6" stroke-miterlimit="10" d="M167.592,68.337"/>
		</g>
		<path fill="none" stroke="#000000" stroke-width="0.6" stroke-miterlimit="10" d="M160.486,63.94c0.071,0.071,0.071,0.185,0,0.256
			s-0.185,0.071-0.256,0"/>
		<path fill="none" stroke="#000000" stroke-width="0.6" stroke-miterlimit="10" d="M165.34,64.182
			c-0.063,0.077-0.177,0.089-0.254,0.026s-0.089-0.177-0.026-0.254"/>
		<path fill="none" stroke="#000000" stroke-width="0.6" stroke-miterlimit="10" d="M160.23,72.465c0.071-0.071,0.185-0.071,0.256,0
			s0.071,0.185,0,0.256"/>
		<path fill="none" stroke="#000000" stroke-width="0.6" stroke-miterlimit="10" d="M157.967,68.154c0.1,0,0.181,0.081,0.181,0.181
			s-0.081,0.181-0.181,0.181"/>
		<path fill="none" stroke="#000000" stroke-width="0.6" stroke-miterlimit="10" d="M167.591,68.515c-0.1,0-0.181-0.081-0.181-0.181
			s0.081-0.181,0.181-0.181"/>
		<path fill="none" stroke="#000000" stroke-width="0.6" stroke-miterlimit="10" d="M165.073,72.72
			c-0.071-0.071-0.071-0.185,0-0.256s0.185-0.071,0.256,0"/>
	</g>
	<g>
		<path fill="none" stroke="#000000" stroke-width="0.6" stroke-miterlimit="10" d="M258.319,64.439
			c-0.115-1.732-1.732-3.11-3.73-3.11s-3.615,1.377-3.73,3.11h-0.022v3.491c0,1.823,1.68,3.301,3.752,3.301s3.752-1.478,3.752-3.301
			v-3.491H258.319z"/>
		<path fill="none" stroke="#000000" stroke-width="0.6" stroke-linecap="round" stroke-miterlimit="10" d="M249.221,68.632
			c0.272,2.398,2.572,4.27,5.369,4.27c2.794,0,5.091-1.868,5.367-4.261"/>
		<rect x="254.334" y="73.074" width="0.509" height="2.046"/>
		<rect x="252.317" y="74.673" width="4.544" height="0.447"/>
		<ellipse cx="252.317" cy="74.897" rx="0.254" ry="0.224"/>
		<ellipse cx="256.861" cy="74.897" rx="0.254" ry="0.224"/>
	</g>
	<g>
		
			<line fill="none" stroke="#000000" stroke-width="0.6" stroke-linecap="round" stroke-miterlimit="10" x1="384.671" y1="62.015" x2="391.922" y2="62.015"/>
		
			<line fill="none" stroke="#000000" stroke-width="0.6" stroke-linecap="round" stroke-miterlimit="10" x1="384.679" y1="65.59" x2="391.93" y2="65.59"/>
		<g>
			
				<line fill="none" stroke="#000000" stroke-width="0.6" stroke-linecap="round" stroke-miterlimit="10" x1="382.046" y1="68.463" x2="394.498" y2="68.463"/>
			
				<line fill="none" stroke="#000000" stroke-width="0.6" stroke-linecap="round" stroke-miterlimit="10" x1="381.998" y1="68.474" x2="388.305" y2="74.78"/>
			
				<line fill="none" stroke="#000000" stroke-width="0.6" stroke-linecap="round" stroke-miterlimit="10" x1="394.611" y1="68.474" x2="388.305" y2="74.78"/>
		</g>
	</g>
	<g>
		
			<line fill="none" stroke="#000000" stroke-width="0.6" stroke-linecap="round" stroke-miterlimit="10" x1="294.672" y1="61.774" x2="302.712" y2="61.774"/>
		<g>
			
				<line fill="none" stroke="#000000" stroke-width="0.6" stroke-linecap="round" stroke-miterlimit="10" x1="291.797" y1="68.081" x2="294.906" y2="64.973"/>
			
				<line fill="none" stroke="#000000" stroke-width="0.6" stroke-linecap="round" stroke-miterlimit="10" x1="291.797" y1="68.081" x2="294.906" y2="71.189"/>
		</g>
		<g>
			
				<line fill="none" stroke="#000000" stroke-width="0.6" stroke-linecap="round" stroke-miterlimit="10" x1="305.587" y1="68.081" x2="302.478" y2="64.973"/>
			
				<line fill="none" stroke="#000000" stroke-width="0.6" stroke-linecap="round" stroke-miterlimit="10" x1="305.587" y1="68.081" x2="302.478" y2="71.189"/>
		</g>
		
			<line fill="none" stroke="#000000" stroke-width="0.6" stroke-linecap="round" stroke-miterlimit="10" x1="294.922" y1="74.719" x2="302.962" y2="74.719"/>
		
			<line fill="none" stroke="#000000" stroke-width="0.6" stroke-linecap="round" stroke-miterlimit="10" x1="298.692" y1="61.774" x2="298.692" y2="74.719"/>
	</g>
	<g>
		<circle fill="none" stroke="#000000" stroke-width="0.6" stroke-miterlimit="10" cx="342.409" cy="68.246" r="6.473"/>
		<path fill="none" stroke="#000000" stroke-width="0.6" stroke-linecap="round" stroke-miterlimit="10" d="M346.02,69.098
			c-0.3,1.722-1.802,3.032-3.611,3.032c-1.808,0-3.311-1.309-3.611-3.032"/>
		<ellipse fill="#050505" cx="339.18" cy="66.409" rx="0.618" ry="1.182"/>
		
			<line fill="none" stroke="#000000" stroke-width="0.6" stroke-linecap="round" stroke-miterlimit="10" x1="343.857" y1="66.359" x2="345.483" y2="65.476"/>
		
			<line fill="none" stroke="#000000" stroke-width="0.6" stroke-linecap="round" stroke-miterlimit="10" x1="343.857" y1="66.359" x2="345.453" y2="67.341"/>
	</g>
</g>
<rect x="140.038" y="50" fill="#C1C1C1" width="269.16" height="0.688"/>
<rect x="140.038" y="85.656" fill="#C1C1C1" width="269.16" height="0.688"/>
</svg>
