<svg id="图层_1" data-name="图层 1" xmlns="http://www.w3.org/2000/svg" viewBox="0 0 471 35"><defs><style>.cls-1{isolation:isolate;}</style></defs><title>p0-lab1</title><g id="Page-1"><g id="iPhone-6"><g id="_1分钟400字_语音输入带你飞" data-name="1分钟400字，语音输入带你飞" class="cls-1"><g class="cls-1"><path d="M40.32,5.81V29H38.87V8.1a11.39,11.39,0,0,1-2.5,1.81,21.64,21.64,0,0,1-3.05,1.34V9.93a15.46,15.46,0,0,0,1.85-.75,15.5,15.5,0,0,0,1.63-.93,17.41,17.41,0,0,0,1.52-1.12q0.74-.61,1.5-1.31h0.5Z"/></g><g class="cls-1"><path d="M54,17.57A12,12,0,0,0,52.8,16.2,32.39,32.39,0,0,0,63.21,4.82l1.49,0.76A38,38,0,0,1,54,17.57Zm2.58-.22h18.9q-0.16,5.41-.44,9.42-0.18,5.05-5.23,5.05l-2,0H65.42a13.63,13.63,0,0,0-.29-1.77q2.08,0.12,4.56.12,3.59,0.21,3.69-3.66,0.28-4,.34-7.71H63.84q-0.09,9.87-9.1,13.89a11.81,11.81,0,0,0-1-1.41q8.47-3.52,8.45-12.48H56.55V17.35ZM69.34,5l1.55-.57A21.89,21.89,0,0,0,81.05,16l-1.26,1.51A26.66,26.66,0,0,1,69.34,5Z"/><path d="M83.68,14.69q-0.4-.44-1.14-1.14a33.63,33.63,0,0,0,4.56-9.14l1.54,0.47q-0.69,2-1.63,4h6.15v1.44H86.28A45.11,45.11,0,0,1,83.68,14.69ZM83,20h4V15.35H85V13.94h7.19v1.41H88.55V20h4.51v1.44H88.55v7.73Q90.69,28,93,26.48a6.7,6.7,0,0,0,.35,1.6Q91,29.31,88.6,30.83a7,7,0,0,0-1.23,1l-1.11-1.3A2.24,2.24,0,0,0,87,28.71V21.41H83V20ZM101.55,4.46h1.6v5.73h6.65V23.65h-1.55V22.28h-5.1V32.66h-1.6V22.28H96.42v1.38H94.87V10.19h6.68V4.46Zm-5.13,7.22v9.1h5.13v-9.1H96.42Zm11.82,0h-5.1v9.1h5.1v-9.1Z"/></g><g class="cls-1"><path d="M128.09,6.31V21.75h3.54v1.32h-3.54V29h-1.45V23.07H115.81V21.65q1.52-1.73,3.09-3.71t3-4q1.43-2,2.63-4t2-3.63h1.55ZM117.48,21.75h9.16V8.9q-1.16,2-2.4,3.86t-2.45,3.52q-1.21,1.66-2.31,3T117.48,21.75Z"/><path d="M140.38,29.4a5.48,5.48,0,0,1-4.9-2.88q-1.77-2.88-1.77-8.37,0-6.06,1.85-9.14a5.87,5.87,0,0,1,5.31-3.08q6.55,0,6.55,11.63,0,5.79-1.85,8.81A5.79,5.79,0,0,1,140.38,29.4Zm0.37-22.13a4.48,4.48,0,0,0-4.06,2.67q-1.46,2.67-1.46,8a16.25,16.25,0,0,0,1.39,7.49,4.25,4.25,0,0,0,7.87-.05,16.72,16.72,0,0,0,1.4-7.62Q145.89,7.26,140.74,7.26Z"/><path d="M157.06,29.4a5.48,5.48,0,0,1-4.9-2.88q-1.77-2.88-1.77-8.37,0-6.06,1.85-9.14a5.87,5.87,0,0,1,5.31-3.08q6.55,0,6.55,11.63,0,5.79-1.85,8.81A5.79,5.79,0,0,1,157.06,29.4Zm0.37-22.13a4.48,4.48,0,0,0-4.06,2.67q-1.46,2.67-1.46,8a16.25,16.25,0,0,0,1.39,7.49,4.25,4.25,0,0,0,7.87-.05,16.72,16.72,0,0,0,1.4-7.62Q162.57,7.26,157.43,7.26Z"/></g><g class="cls-1"><path d="M183.6,19.61l6.69-4h-15V14.18h17.09v1.71l-7.19,4.41v1.44h13.05v1.48H185.23v5.33q0.21,3.56-3.54,3.66-2.59.06-3.81,0.06a10.71,10.71,0,0,0-.29-1.7l1.55,0.07h2.12a2.43,2.43,0,0,0,1.83-.53,2.42,2.42,0,0,0,.51-1.82v-5.1H170V21.73H183.6V19.61ZM171,8.81h26.19v5.27h-1.6V10.28h-23v3.81H171V8.81Zm11.7-4.12,1.52-.54q0.66,1.35,1.77,4l-1.55.6A33.79,33.79,0,0,0,182.68,4.7Z"/><path d="M212.46,32.93h-1.23l2.37-7.51h1.61Z"/><path d="M234.78,28.91q1.54-1,3.72-2.58,0.07,1,.21,1.8a57,57,0,0,0-5.3,3.81l-1.08-1.42a3.63,3.63,0,0,0,.69-1.1,3.84,3.84,0,0,0,.19-1.32V16h-3.34V14.54h4.92V28.91Zm0.69-18.49q-1.23-1.36-4.26-4.32l1.17-1q2,1.86,4.38,4.23Zm2.8-3.18V5.84H257V7.25H245.86l-0.66,4h9.62v6.27h3.46V19H237.42V17.54h5.11l0.83-4.89H238.9V11.28h4.7l0.66-4h-6Zm1.89,15.25H255.6V32.66H254V30.77H241.74v1.89h-1.58V22.5Zm1.58,1.41v5.46H254V23.9H241.74Zm11.5-11.25H245l-0.83,4.89h9.13V12.65Z"/><path d="M267,10.85l1.29-.83q1.23,1.39,2.49,3.09l-1.23.81h7.56q1.51-2,2.75-4l1.48,0.86q-0.85,1.16-2.4,3.09H288v1.44H260V13.91h9.33Q268.14,12.24,267,10.85Zm5.51-6.06,1.45-.63q1,1.55,1.74,3l-1.26.6h12.2V9.2H261.52V7.76h12.6Q273.56,6.63,272.49,4.79ZM263.7,18.61h20.52V32.55h-1.58V30.77H265.3V32.6h-1.6v-14ZM265.3,20v4h17.34V20H265.3Zm0,5.36v4h17.34v-4H265.3Z"/><path d="M290.05,8.87H293q0.45-1.8,1.05-4.41l1.49,0.29L294.7,8q-0.16.62-.23,0.92h5.3v1.38h-5.7q-1,3.74-2.37,7.92h3.21V13.52h1.45v4.66h2.72v1.38h-2.72v5.21l0.38-.06q1.79-.25,2.74-0.42a11.47,11.47,0,0,0-.13,1.45l-1.41.19-1.58.22v6.49H294.9V26.36q-2.18.32-4.76,0.75l-0.25-1.46,2.37-.31L294.9,25V19.55h-4.64V18.09q1.19-3.52,2.34-7.84h-2.55V8.87Zm27.35,5a22,22,0,0,1-8.88-7.24,27.44,27.44,0,0,1-8.82,7.75,11.71,11.71,0,0,0-1-1.29q6.71-3.6,9.64-8.89L310,4.46l-0.25.41-0.35.54a20.05,20.05,0,0,0,8.89,7.06A12.67,12.67,0,0,0,317.4,13.88ZM302.08,32.63h-1.45V15.89H308v13.8q0.07,2.61-2.64,2.67l-0.85,0h-1a13.13,13.13,0,0,0-.26-1.44l0.82,0h1a1.23,1.23,0,0,0,1.44-1.49V26.06h-4.44v6.58Zm0-15.4V20.3h4.44V17.24h-4.44Zm0,4.38v3.12h4.44V21.62h-4.44Zm1.83-9.84h9.2v1.36h-9.2V11.77Zm6.93,5.2h1.41V27.26h-1.41V17Zm4.41-1.57h1.44V29q0.22,3.28-3.3,3.27l-1.05,0h-1.2a9.22,9.22,0,0,0-.26-1.55q0.47,0.06,1.05.07h1.49a1.8,1.8,0,0,0,1.45-.44,2.4,2.4,0,0,0,.38-1.63V15.41Z"/><path d="M328.3,5.87l1.23-1q3.75,2.86,7,10.12,4.57,10.84,11.73,15a20.83,20.83,0,0,0-1.36,1.64q-7.28-5.08-11.75-15.75-0.81-1.71-1.26-2.61a34.67,34.67,0,0,1-12.61,18.57,14.43,14.43,0,0,0-1.32-1.51q9.58-6.58,12.85-19.1A17.16,17.16,0,0,0,328.3,5.87Z"/><path d="M370.59,4.46h1.51V8.24h6.09V9.68H372.1V13h-1.51V9.68h-5.76V13h-1.49V9.68h-5.73V13H356.1V9.68H350V8.24h6.12V4.46h1.51V8.24h5.73V4.46h1.49V8.24h5.76V4.46ZM351,14.57H377.2v4.78h-1.52V16H352.5v3.34H351V14.57Zm4.78,15.63h-1.54v-10h9.07V17.41h1.55v2.77H374v6.69q0.12,3-3,3-1.79.07-3.06,0.07a9.37,9.37,0,0,0-.29-1.57q1.54,0.09,2.93.09,2,0.12,1.89-1.74V21.59h-7.68v11h-1.55v-11h-7.53V30.2Z"/><path d="M380.58,20.47q-0.38-1.05-.72-1.86a47,47,0,0,0,7-14.21l1.68,0.54a68.11,68.11,0,0,1-2.72,6.71v21h-1.6V14.81A42.2,42.2,0,0,1,380.58,20.47Zm8.07,6.69A67.09,67.09,0,0,0,393,17.6l1.51,0.54q-1.83,4.79-4.29,9.77A11.24,11.24,0,0,0,388.65,27.17Zm15.51-11.76,2-4.79H393.28q-1.45,2.83-3.15,5.51a10.8,10.8,0,0,0-1.39-1,52.47,52.47,0,0,0,5.49-10.59l1.63,0.48Q395,7.13,394,9.11H407.8v1.63l-2,5.16A12.91,12.91,0,0,0,404.16,15.41Zm-6.42-1.95h1.61v15q0.12,3.75-3.62,3.72-1.17,0-3.15,0-0.16-.91-0.37-1.67,1.39,0.09,3.18.09,2.43,0.07,2.34-2.26V13.46Zm9,14.19q-2.15-5.07-4.41-9.48l1.41-.63q2.34,4.61,4.54,9.36Z"/><path d="M436.57,24.33a13.5,13.5,0,0,0,1.55.63,26,26,0,0,1-.83,4.16,3.6,3.6,0,0,1-3.87,2.74,6.39,6.39,0,0,1-3.87-1.29q-4.69-3.08-5-13.11-0.07-2-.06-8.26v-1H410.08V6.56h16.13q0,0.67,0,2.36,0,1.35,0,3.19,0,1.52,0,2.55,4.53-3.16,8.35-6.39l1.38,1.17q-3.52,2.68-8.41,6.11,5.65,2.68,9.18,4.54l-1.05,1.44q-3.22-1.85-9.42-5.07,0,0.16,0,.47,0,0.48,0,.7,0.21,8.7,4,11.4a5,5,0,0,0,3.12,1.11,2.29,2.29,0,0,0,2.4-1.89A35.52,35.52,0,0,0,436.57,24.33Z"/></g></g></g></g></svg>