<?xml version="1.0" encoding="utf-8"?>
<!-- Generator: Adobe Illustrator 17.0.0, SVG Export Plug-In . SVG Version: 6.00 Build 0)  -->
<!DOCTYPE svg PUBLIC "-//W3C//DTD SVG 1.1//EN" "http://www.w3.org/Graphics/SVG/1.1/DTD/svg11.dtd">
<svg version="1.1" id="图层_1" xmlns="http://www.w3.org/2000/svg" xmlns:xlink="http://www.w3.org/1999/xlink" x="0px" y="0px"
	 width="99.67px" height="99.67px" viewBox="0.551 0.165 99.67 99.67" enable-background="new 0.551 0.165 99.67 99.67"
	 xml:space="preserve">
<g display="none">
	<circle display="inline" fill="#F85361" cx="50.386" cy="50" r="49.835"/>
	<g display="inline">
		<g>
			<path fill="#FFFFFF" d="M65.183,74.508c-0.859,0.225-1.379,1.097-1.162,1.95c0.217,0.852,1.089,1.361,1.947,1.137
				c0.859-0.225,1.379-1.098,1.162-1.95C66.914,74.792,66.042,74.283,65.183,74.508z M52.771,78.601
				c-0.892,0.06-1.578,0.826-1.531,1.711c0.046,0.886,0.807,1.555,1.699,1.495c0.892-0.059,1.578-0.826,1.531-1.711
				C54.423,79.211,53.663,78.541,52.771,78.601z M47.001,55.3c-1.062,1.46-5.73,7.178-4.568,8.085
				c1.038,0.811,5.139-3.359,6.201-4.819l1.288-1.772l-2.566-1.992L47.001,55.3z M42.557,77.475
				c-11.481-3.36-19.871-13.893-19.871-26.393c0-15.206,12.402-27.533,27.7-27.533c0.889,0,1.767,0.046,2.635,0.127l0.013-0.07
				c0.442,0.11,0.926,0.041,1.329-0.24c0.739-0.517,0.92-1.533,0.404-2.27c-0.384-0.549-1.048-0.787-1.666-0.66
				c-0.896-0.078-1.799-0.127-2.715-0.127c-17.098,0-30.959,13.777-30.959,30.772c0,14.26,9.761,26.25,23.003,29.741l0.023-0.126
				c0.138,0.006,0.277,0.001,0.419-0.029c0.882-0.189,1.445-1.049,1.258-1.922C43.968,77.995,43.302,77.483,42.557,77.475z
				 M72.454,67.804c-0.762,0.521-0.955,1.557-0.431,2.314s1.566,0.949,2.328,0.428c0.762-0.521,0.954-1.557,0.431-2.314
				C74.258,67.475,73.216,67.284,72.454,67.804z M79.584,41.978c0.259-0.859-0.232-1.765-1.096-2.022
				c-0.864-0.258-1.775,0.23-2.034,1.089s0.231,1.765,1.096,2.022C78.414,43.325,79.325,42.837,79.584,41.978z M79.792,54.287
				c-0.84-0.296-1.761,0.141-2.059,0.976c-0.297,0.834,0.142,1.75,0.982,2.046c0.839,0.295,1.761-0.142,2.058-0.976
				C81.071,55.499,80.631,54.583,79.792,54.287z M71.492,21.008l-2.413,3.378l2.818,2.187l2.86-3.933
				c1.062-1.46,1.763-3.098,0.354-4.198C73.703,17.343,72.553,19.548,71.492,21.008z M49.245,52.158l2.588,2.009l18.153-24.964
				l-2.797-2.17L49.245,52.158z"/>
		</g>
	</g>
	
		<linearGradient id="SVGID_1_" gradientUnits="userSpaceOnUse" x1="-148.889" y1="164.056" x2="-148.889" y2="209.352" gradientTransform="matrix(1 0 0 -1 199.275 214.055)">
		<stop  offset="0.5" style="stop-color:#FFFFFF;stop-opacity:0"/>
		<stop  offset="1" style="stop-color:#FFFFFF"/>
	</linearGradient>
	<path display="inline" opacity="0.5" fill="url(#SVGID_1_)" enable-background="new    " d="M50.386,4.703
		c19.54,0,35.381,10.14,35.381,22.648S69.926,49.999,50.386,49.999s-35.381-10.14-35.381-22.648S30.846,4.703,50.386,4.703z"/>
</g>
<g display="none">
	<circle display="inline" fill="#53D4B8" cx="50.386" cy="50" r="49.835"/>
	
		<linearGradient id="SVGID_2_" gradientUnits="userSpaceOnUse" x1="-148.889" y1="164.056" x2="-148.889" y2="209.352" gradientTransform="matrix(1 0 0 -1 199.275 214.055)">
		<stop  offset="0.5" style="stop-color:#FFFFFF;stop-opacity:0"/>
		<stop  offset="1" style="stop-color:#FFFFFF"/>
	</linearGradient>
	<path display="inline" opacity="0.5" fill="url(#SVGID_2_)" enable-background="new    " d="M50.386,4.703
		c19.54,0,35.381,10.14,35.381,22.648S69.926,49.999,50.386,49.999s-35.381-10.14-35.381-22.648S30.845,4.703,50.386,4.703z"/>
	<g display="inline">
		<g>
			<path fill="#FFFFFF" d="M69.103,33.171L54.014,53.499c-0.495,0.613-3.768,3.649-4.359,3.133s1.723-4.389,2.218-5.002
				l14.132-19.039l-37.883-0.03c-1.258-0.001-2.277,1.019-2.276,2.28l0.027,34.985c0.001,1.26,1.021,2.283,2.279,2.284l39.478,0.031
				c1.258,0.001,2.277-1.019,2.276-2.28l-0.027-34.985C69.88,34.194,69.576,33.59,69.103,33.171z M47.892,58.815
				c0,0.625-0.511,1.132-1.142,1.131c-0.626,0-1.131-0.499-1.141-1.116l-1.493-3.525c-0.012,0.005-0.021,0.013-0.032,0.017v0.077
				h-0.378c-0.001,0-0.001,0-0.001,0h-0.001l-4.553-0.004l0,0l0,0h-0.385v-0.078c-0.2-0.073-0.363-0.202-0.493-0.366l-1.869,4.426
				l-2.136-0.715l5.778-13.685l0.06,0.02c0.143-0.419,0.531-0.725,1.003-0.724c0.472,0,0.861,0.308,1.004,0.728l0.068-0.023
				l5.799,13.694l-0.108,0.036C47.873,58.746,47.891,58.777,47.892,58.815z M58.892,59.956c-0.135,0-0.26-0.034-0.38-0.077v0.086
				l-7.592-0.006v-0.086c-0.12,0.043-0.245,0.077-0.379,0.077c-0.624-0.001-1.13-0.508-1.131-1.133c0-0.625,0.505-1.132,1.129-1.131
				c0.135,0,0.26,0.034,0.38,0.077v-0.086l7.592,0.006v0.085c0.12-0.043,0.245-0.077,0.38-0.077c0.624,0.001,1.13,0.508,1.131,1.133
				C60.021,59.45,59.516,59.956,58.892,59.956z M39.049,53.104l4.136,0.004l-2.072-4.892L39.049,53.104z M74.432,30.316
				c-0.001-1.26-1.022-2.282-2.279-2.283l-39.478-0.031c-1.258-0.001-2.277,1.02-2.276,2.28l0.001,1.264l2.278,0.002v-0.503
				c0-0.42,0.339-0.76,0.758-0.76l34.369,0.027c0.477-0.351,1.111-0.365,1.601,0.001l1.989,0.002c0.419,0,0.76,0.341,0.76,0.761
				l0.025,32.703c0,0.42-0.339,0.76-0.759,0.76h-0.204l0.002,2.282l0.963,0.001c1.258,0.001,2.277-1.02,2.276-2.28L74.432,30.316z"
				/>
		</g>
	</g>
</g>
<g display="none">
	<circle display="inline" fill="#EE5785" cx="50.386" cy="50" r="49.835"/>
	<g display="inline">
		<g>
			<path fill="#FFFFFF" d="M77.885,41.187c-0.012-0.17-0.04-0.333-0.085-0.492C76.1,29.854,67.004,21.56,56.01,21.548
				c-0.001,0-0.001,0-0.002,0c-1.356-0.001-2.453,1.132-2.453,2.529l0.021,32.542c-3.621-1.932-8.753-2.243-13.77-0.452
				C31.984,58.96,27.423,65.784,29.62,71.41c2.196,5.625,10.317,7.922,18.139,5.129c6.231-2.225,10.373-7.006,10.696-11.704
				l-0.02-23.461h0.039l-0.009-14.565c0.248,0.036,0.495,0.058,0.743,0.107c7.243,1.426,12.537,7.368,13.714,14.465h0.023
				c0.012,1.359,1.115,2.458,2.477,2.458c1.361,0,2.464-1.098,2.477-2.456h0.019C77.911,41.318,77.894,41.254,77.885,41.187z
				 M45.549,71.408c-5.341,2.088-10.477,1.519-11.472-1.271c-0.995-2.791,2.528-6.744,7.869-8.833
				c5.341-2.088,10.477-1.519,11.473,1.271c0.116,0.327,0.165,0.67,0.162,1.024v0.107C53.472,66.354,50.202,69.589,45.549,71.408z"
				/>
		</g>
	</g>
	
		<linearGradient id="SVGID_3_" gradientUnits="userSpaceOnUse" x1="-148.889" y1="164.055" x2="-148.889" y2="209.351" gradientTransform="matrix(1 0 0 -1 199.275 214.055)">
		<stop  offset="0.5" style="stop-color:#FFFFFF;stop-opacity:0"/>
		<stop  offset="1" style="stop-color:#FFFFFF"/>
	</linearGradient>
	<path display="inline" opacity="0.5" fill="url(#SVGID_3_)" enable-background="new    " d="M50.386,4.704
		c19.54,0,35.381,10.14,35.381,22.648S69.926,50,50.386,50S15.005,39.86,15.005,27.352C15.006,14.844,30.846,4.704,50.386,4.704z"/>
</g>
<g>
	<circle fill="#00B2CE" cx="50.386" cy="50" r="49.835"/>
	
		<linearGradient id="SVGID_4_" gradientUnits="userSpaceOnUse" x1="-148.889" y1="164.056" x2="-148.889" y2="209.352" gradientTransform="matrix(1 0 0 -1 199.275 214.055)">
		<stop  offset="0.5" style="stop-color:#FFFFFF;stop-opacity:0"/>
		<stop  offset="1" style="stop-color:#FFFFFF"/>
	</linearGradient>
	<path opacity="0.5" fill="url(#SVGID_4_)" enable-background="new    " d="M50.386,4.703c19.54,0,35.381,10.14,35.381,22.648
		S69.926,49.999,50.386,49.999s-35.381-10.14-35.381-22.648S30.846,4.703,50.386,4.703z"/>
	<g>
		<g>
			<path fill="#FFFFFF" d="M53.674,75.636c-0.028-0.048-0.064-0.086-0.095-0.131l-8.865-15.264c-0.018,0.005-0.037,0.005-0.056,0.01
				c-0.026-0.086-0.039-0.174-0.086-0.255c-0.328-0.565-1.056-0.757-1.627-0.43c-0.205,0.118-0.342,0.296-0.444,0.491
				c-0.012-0.006-0.025-0.008-0.037-0.014l-2.745,4.303c-1.472-1.557-2.795-3.297-3.917-5.227
				c-6.23-10.726-4.578-23.826,3.157-32.722c-0.034,0.02-0.07,0.035-0.105,0.054c-13.683,7.855-18.393,25.214-10.518,38.772
				c1.66,2.859,3.753,5.312,6.141,7.343l-2.396,3.756c0.031,0.025,0.057,0.057,0.087,0.083c-0.421,0.349-0.56,0.943-0.277,1.429
				c0.273,0.469,0.828,0.649,1.33,0.494c0.004,0.028,0.015,0.056,0.018,0.084l13.264,0.203c0.122,0.029,0.243,0.063,0.366,0.09
				l0.023-0.084l4.54,0.069c0.005-0.029,0.018-0.055,0.024-0.084c0.483,0.109,1.007,0.05,1.47-0.216
				C53.897,77.832,54.233,76.598,53.674,75.636z"/>
		</g>
	</g>
	<g>
		<g>
			<path fill="#FFFFFF" d="M72.01,36.94c-1.66-2.859-3.753-5.312-6.141-7.343l2.396-3.756c-0.031-0.025-0.057-0.057-0.087-0.083
				c0.421-0.349,0.56-0.943,0.277-1.429c-0.273-0.47-0.828-0.649-1.33-0.494c-0.004-0.028-0.015-0.056-0.018-0.084l-13.264-0.203
				c-0.122-0.029-0.243-0.063-0.366-0.09l-0.023,0.084l-4.54-0.069c-0.005,0.029-0.018,0.055-0.024,0.084
				c-0.483-0.109-1.007-0.05-1.47,0.216c-0.973,0.558-1.308,1.792-0.749,2.754c0.028,0.047,0.064,0.086,0.094,0.13l8.865,15.264
				c0.018-0.005,0.037-0.005,0.056-0.01c0.026,0.086,0.039,0.174,0.086,0.255c0.328,0.565,1.056,0.757,1.626,0.43
				c0.205-0.118,0.342-0.296,0.444-0.491c0.012,0.006,0.025,0.008,0.037,0.014l2.745-4.303c1.472,1.557,2.795,3.297,3.917,5.227
				c6.23,10.726,4.578,23.826-3.157,32.722c0.034-0.02,0.07-0.035,0.105-0.054C75.175,67.858,79.884,50.499,72.01,36.94z"/>
		</g>
	</g>
</g>
<g display="none">
	<circle display="inline" fill="#C5CBCB" cx="50.386" cy="50" r="49.835"/>
	
		<linearGradient id="SVGID_5_" gradientUnits="userSpaceOnUse" x1="-148.889" y1="164.056" x2="-148.889" y2="209.352" gradientTransform="matrix(1 0 0 -1 199.275 214.055)">
		<stop  offset="0.5" style="stop-color:#FFFFFF;stop-opacity:0"/>
		<stop  offset="1" style="stop-color:#FFFFFF"/>
	</linearGradient>
	<path display="inline" opacity="0.5" fill="url(#SVGID_5_)" enable-background="new    " d="M50.386,4.703
		c19.54,0,35.381,10.14,35.381,22.648S69.926,49.999,50.386,49.999s-35.381-10.14-35.381-22.648
		C15.005,14.843,30.845,4.703,50.386,4.703z"/>
	<g display="inline">
		<g>
			<path fill="#FFFFFF" d="M27.103,43.198c0.766-0.004,1.39-0.635,1.394-1.409l0.063-11.291l11.514-0.065
				c0.789-0.004,1.432-0.617,1.436-1.368s-0.632-1.356-1.421-1.352L27.23,27.785c-0.007,0-0.013,0.002-0.02,0.002
				s-0.014-0.002-0.021-0.002c-0.36,0.002-0.685,0.146-0.933,0.374c-0.014,0.013-0.03,0.023-0.044,0.036
				c-0.013,0.013-0.024,0.029-0.037,0.043c-0.232,0.243-0.379,0.562-0.381,0.914c0,0.007,0.002,0.013,0.002,0.02
				s-0.002,0.014-0.002,0.021l-0.069,12.61C25.72,42.579,26.338,43.203,27.103,43.198z M39.829,74.858l-11.514,0.064l0.062-11.292
				c0.004-0.773-0.613-1.398-1.379-1.393c-0.766,0.004-1.39,0.634-1.394,1.409l-0.07,12.61c0,0.007,0.002,0.014,0.002,0.022
				c0,0.007-0.002,0.013-0.002,0.019c-0.002,0.352,0.14,0.668,0.369,0.908c0.013,0.015,0.025,0.031,0.039,0.045
				c0.013,0.012,0.028,0.022,0.041,0.034c0.245,0.227,0.57,0.367,0.931,0.365c0.007,0,0.013-0.002,0.019-0.002
				c0.008,0,0.015,0.002,0.023,0.002l12.859-0.072c0.789-0.005,1.432-0.617,1.436-1.369C41.255,75.458,40.618,74.853,39.829,74.858z
				 M75.997,61.963c-0.766,0.004-1.39,0.635-1.395,1.409L74.54,74.664l-11.515,0.064c-0.789,0.004-1.432,0.617-1.436,1.368
				s0.632,1.356,1.421,1.352l12.859-0.072c0.007,0,0.014-0.002,0.021-0.002s0.014,0.002,0.021,0.002
				c0.359-0.002,0.683-0.145,0.93-0.372c0.015-0.013,0.032-0.025,0.046-0.039c0.013-0.013,0.023-0.027,0.035-0.04
				c0.234-0.243,0.381-0.563,0.383-0.917c0-0.007-0.002-0.013-0.002-0.02c0-0.007,0.002-0.014,0.002-0.021l0.07-12.611
				C77.38,62.582,76.763,61.959,75.997,61.963z M77.566,28.864c0.002-0.353-0.141-0.671-0.371-0.911
				c-0.013-0.014-0.023-0.029-0.036-0.042c-0.014-0.013-0.03-0.024-0.045-0.037c-0.245-0.225-0.568-0.364-0.927-0.362
				c-0.007,0-0.013,0.002-0.019,0.002c-0.008,0-0.015-0.002-0.023-0.002l-12.859,0.072c-0.789,0.005-1.432,0.617-1.436,1.368
				c-0.005,0.752,0.632,1.357,1.421,1.352l11.514-0.064l-0.062,11.291c-0.004,0.774,0.613,1.398,1.379,1.393
				c0.766-0.004,1.39-0.635,1.394-1.409l0.07-12.61c0-0.008-0.002-0.015-0.002-0.022C77.564,28.877,77.566,28.871,77.566,28.864z
				 M33.647,34.097c-0.007,0-0.014-0.002-0.021-0.002c-0.355,0.003-0.677,0.143-0.923,0.367c-0.018,0.016-0.037,0.029-0.054,0.045
				c-0.01,0.01-0.018,0.022-0.028,0.033c-0.237,0.244-0.386,0.567-0.388,0.923c0,0.007,0.002,0.013,0.002,0.02
				s-0.002,0.014-0.002,0.022l-0.069,12.61c0,0.007,0.002,0.014,0.002,0.021s-0.002,0.013-0.002,0.02
				c-0.002,0.354,0.141,0.672,0.372,0.912c0.012,0.013,0.022,0.028,0.035,0.04c0.014,0.014,0.031,0.025,0.046,0.038
				c0.245,0.224,0.568,0.364,0.926,0.361c0.007,0,0.013-0.002,0.019-0.002c0.008,0,0.015,0.002,0.023,0.002l12.859-0.072
				c0.007,0,0.013-0.002,0.021-0.002c0.007,0,0.014,0.002,0.021,0.002c0.359-0.002,0.683-0.145,0.931-0.372
				c0.015-0.013,0.032-0.025,0.046-0.038c0.013-0.013,0.023-0.027,0.035-0.04c0.234-0.243,0.381-0.563,0.383-0.917
				c0-0.007-0.002-0.013-0.002-0.02s0.002-0.014,0.002-0.021l0.07-12.61c0-0.007-0.002-0.013-0.002-0.02
				c0-0.008,0.002-0.015,0.002-0.022c0.002-0.356-0.143-0.677-0.377-0.918c-0.01-0.011-0.019-0.023-0.029-0.034
				c-0.015-0.015-0.033-0.027-0.049-0.041c-0.245-0.223-0.566-0.362-0.923-0.36c-0.008,0-0.015,0.002-0.023,0.003
				c-0.006,0-0.012-0.002-0.019-0.002l-12.859,0.071C33.66,34.095,33.654,34.097,33.647,34.097z M34.997,36.808l10.169-0.056
				l-0.055,9.972l-10.169,0.057L34.997,36.808z M54.803,49.39c0.766-0.005,1.39-0.635,1.395-1.409l0.07-12.611
				c0.004-0.774-0.613-1.398-1.379-1.393c-0.766,0.004-1.39,0.635-1.395,1.409l-0.069,12.61C53.42,48.77,54.038,49.394,54.803,49.39
				z M62.2,49.348c0.766-0.004,1.39-0.635,1.394-1.409l0.069-12.611c0.004-0.773-0.613-1.398-1.379-1.393
				c-0.766,0.005-1.39,0.635-1.395,1.409l-0.07,12.61C60.816,48.729,61.434,49.353,62.2,49.348z M70.99,47.898l0.07-12.611
				c0.004-0.773-0.613-1.398-1.379-1.393c-0.766,0.004-1.39,0.635-1.394,1.409l-0.07,12.61c-0.004,0.774,0.613,1.398,1.379,1.394
				C70.362,49.302,70.986,48.672,70.99,47.898z M27.043,54.078l48.074-0.269c0.766-0.003,1.39-0.616,1.394-1.368
				c0.004-0.751-0.614-1.356-1.379-1.352l-48.074,0.269c-0.766,0.004-1.39,0.617-1.394,1.368
				C25.66,53.477,26.278,54.082,27.043,54.078z M33.475,61.294c-0.766,0.004-1.39,0.646-1.395,1.432l-0.039,7.123
				c-0.005,0.787,0.613,1.422,1.379,1.418c0.766-0.005,1.391-0.646,1.395-1.432l0.039-7.124
				C34.858,61.924,34.241,61.291,33.475,61.294z M33.505,55.854c-0.766,0.005-1.39,0.617-1.394,1.368s0.614,1.356,1.379,1.352
				c0.766-0.004,1.39-0.616,1.394-1.367C34.888,56.455,34.271,55.851,33.505,55.854z M48.231,55.772l-8.189,0.046
				c-0.012,0-0.023,0.003-0.034,0.003s-0.021-0.003-0.032-0.003c-0.445,0.002-0.839,0.221-1.094,0.552
				c-0.019,0.023-0.039,0.044-0.056,0.069c-0.005,0.008-0.009,0.016-0.014,0.024c-0.142,0.21-0.228,0.457-0.23,0.723
				c0,0.006,0.002,0.012,0.002,0.018c0,0.008-0.002,0.015-0.002,0.023l-0.069,12.61c-0.004,0.774,0.613,1.398,1.379,1.393
				c0.766-0.004,1.39-0.635,1.394-1.409l0.027-4.945l5.085-0.028c0.766-0.005,1.39-0.616,1.394-1.368
				c0.004-0.751-0.613-1.356-1.379-1.352l-5.085,0.028l0.02-3.626l6.868-0.039c0.802-0.005,1.456-0.617,1.46-1.368
				C49.68,56.373,49.033,55.768,48.231,55.772z M62.549,69.746c0.004-0.751-0.613-1.356-1.379-1.351l-6.934,0.038l0.062-11.294
				c0.004-0.774-0.613-1.398-1.379-1.394c-0.766,0.005-1.39,0.635-1.395,1.409l-0.069,12.61c0,0.008,0.002,0.014,0.002,0.022
				c0,0.007-0.002,0.014-0.002,0.021c-0.004,0.75,0.613,1.355,1.379,1.35l8.32-0.046C61.921,71.107,62.545,70.496,62.549,69.746z
				 M70.939,57.07c0.005-0.787-0.613-1.421-1.379-1.416c-0.766,0.004-1.39,0.645-1.394,1.432l-0.032,5.829l-2.306,0.013
				c-0.002,0-0.003,0-0.005,0s-0.003,0-0.005,0l-2.307,0.013l0.032-5.828c0.004-0.787-0.613-1.421-1.379-1.417
				c-0.766,0.004-1.39,0.646-1.394,1.432l-0.039,7.123c0,0.011,0.003,0.021,0.003,0.032s-0.004,0.022-0.004,0.033
				c-0.004,0.751,0.614,1.356,1.379,1.352l2.311-0.013l-0.023,4.08c-0.004,0.751,0.613,1.357,1.379,1.352
				c0.766-0.004,1.39-0.617,1.394-1.368l0.023-4.079l2.311-0.013c0.766-0.005,1.39-0.617,1.394-1.368c0-0.01-0.003-0.02-0.003-0.03
				c0-0.012,0.004-0.023,0.004-0.035L70.939,57.07z"/>
		</g>
	</g>
</g>
<g display="none">
	<circle display="inline" fill="#FF8A40" cx="50.386" cy="50" r="49.835"/>
	
		<linearGradient id="SVGID_6_" gradientUnits="userSpaceOnUse" x1="-148.889" y1="164.056" x2="-148.889" y2="209.352" gradientTransform="matrix(1 0 0 -1 199.275 214.055)">
		<stop  offset="0.5" style="stop-color:#FFFFFF;stop-opacity:0"/>
		<stop  offset="1" style="stop-color:#FFFFFF"/>
	</linearGradient>
	<path display="inline" opacity="0.5" fill="url(#SVGID_6_)" enable-background="new    " d="M50.386,4.703
		c19.54,0,35.381,10.14,35.381,22.648S69.926,49.999,50.386,49.999s-35.381-10.14-35.381-22.648
		C15.006,14.843,30.846,4.703,50.386,4.703z"/>
	<g display="inline">
		<g>
			<path fill="#FFFFFF" d="M43.4,33.19c0.517,0.607,1.438,0.669,2.056,0.138c0.051-0.044,0.076-0.103,0.12-0.152l0.034,0.034
				c1.596-1.111,3.522-1.776,5.595-1.798c2.178-0.023,4.176,0.671,5.791,1.852l0.089-0.088c0.031,0.046,0.042,0.1,0.079,0.143
				c0.517,0.606,1.437,0.668,2.055,0.137c0.618-0.531,0.7-1.454,0.183-2.06c-0.085-0.1-0.195-0.162-0.299-0.232l0.016-0.016
				c-2.156-1.697-4.89-2.702-7.882-2.67c-2.89,0.031-5.557,1.03-7.713,2.668l0.028,0.028C42.97,31.708,42.895,32.598,43.4,33.19z
				 M37.809,29.697c0.565,0.563,1.49,0.553,2.067-0.022c0.007-0.007,0.008-0.016,0.015-0.022l0.008,0.008
				c2.515-3.62,6.687-6.024,11.39-6.075c4.935-0.053,9.221,2.505,11.6,6.375l0.051-0.05c0.001,0.001,0.002,0.003,0.003,0.004
				c0.565,0.563,1.49,0.553,2.067-0.022c0.576-0.574,0.586-1.493,0.026-2.057l0.021-0.021c-2.951-4.381-7.987-7.227-13.736-7.165
				c-5.518,0.06-10.426,2.797-13.506,6.947l0.029,0.029c-0.004,0.004-0.009,0.005-0.013,0.008
				C37.255,28.211,37.245,29.134,37.809,29.697z M75.532,49.261c-3.631-11.259-5.286-12.659-10.653-12.6
				c-4.612,0.05-5.907,2.998-13.767,3.082c-7.86,0.085-9.871-2.828-13.703-2.786c-3.831,0.041-6.312,1.546-10.93,12.833
				c-3.111,11.43-2.547,22.524,3.679,22.457c6.219-0.067,8.275-8.892,20.698-9.026c12.421-0.134,14.353,8.648,20.506,8.582
				C77.516,71.736,78.187,59.066,75.532,49.261z M46.07,52.423l-0.001,0.09l-5.886,0.063l-0.059,5.379l0,0l0,0l-0.005,0.489
				l-0.09,0.001c-0.209,0.571-0.752,0.987-1.392,0.993c-0.64,0.007-1.174-0.397-1.371-0.963l-0.09,0.001l0.005-0.489l0,0l0,0
				l0.059-5.38l-5.886,0.063l0.001-0.09c-0.568-0.196-0.973-0.729-0.966-1.367c0.007-0.638,0.424-1.179,0.996-1.388l0.001-0.09
				l0.487-0.005c0.001,0,0.002,0,0.004,0s0.002,0,0.004,0l5.392-0.058l0.064-5.87l0.09-0.001c0.209-0.571,0.752-0.986,1.392-0.993
				s1.175,0.397,1.371,0.964l0.09-0.001l-0.005,0.489l0,0l-0.059,5.38l5.886-0.064l-0.001,0.09c0.568,0.196,0.973,0.729,0.966,1.366
				C47.059,51.673,46.643,52.215,46.07,52.423z M57.842,52.386c-1.083,0.011-1.952-0.854-1.941-1.935
				c0.012-1.08,0.9-1.966,1.984-1.977c1.084-0.012,1.953,0.855,1.941,1.935S58.926,52.374,57.842,52.386z M62.694,57.224
				c-1.084,0.012-1.953-0.855-1.941-1.935c0.012-1.081,0.9-1.966,1.983-1.978c1.084-0.011,1.952,0.854,1.941,1.935
				S63.777,57.212,62.694,57.224z M62.8,47.442c-1.084,0.012-1.952-0.854-1.941-1.935c0.012-1.08,0.9-1.966,1.984-1.977
				s1.952,0.855,1.941,1.935C64.772,46.545,63.884,47.43,62.8,47.442z M67.652,52.281c-1.083,0.011-1.953-0.855-1.941-1.935
				c0.012-1.081,0.9-1.966,1.983-1.978c1.084-0.012,1.952,0.855,1.941,1.935S68.736,52.269,67.652,52.281z"/>
		</g>
	</g>
</g>
<g display="none">
	<circle display="inline" fill="#DCB097" cx="50.386" cy="50" r="49.835"/>
	<g display="inline">
		<g>
			<g>
				<path fill="#FFFFFF" d="M51.73,73.735c-3.756,0.009-6.801,0.484-6.806,2.753c-0.005,2.271,0.318,4.11,4.073,4.102
					c3.755-0.008,9.524-2.709,9.527-4.131C58.529,74.189,55.485,73.727,51.73,73.735z M81.524,51.063l-2.908,0.006
					c-0.347,11.472-8.15,20.239-18.83,23.245c0.042,0.047,0.069,0.102,0.108,0.15c-0.107,0.121-0.177,0.277-0.178,0.451
					c-0.001,0.378,0.303,0.685,0.679,0.684c0.036,0,0.068-0.015,0.102-0.021c0.006,0.02,0.018,0.037,0.024,0.057
					c11.773-2.764,20.976-11.162,21.004-24.509C81.526,51.105,81.524,51.084,81.524,51.063z"/>
			</g>
		</g>
		<g>
			<g>
				<path fill="#FFFFFF" d="M48.088,49.139l1.51-2.983l-11.915,0.026l-0.029,13.466l2.978-1.503l0.006-2.996l7.437-0.016l1.494-3
					l-8.925,0.019l0.006-2.997L48.088,49.139z M50.989,83.614c0.211,0,0.418-0.013,0.627-0.017L50.362,83.6
					C50.571,83.603,50.778,83.615,50.989,83.614z M80.087,44.87c-2.896-13.896-14.165-24.227-28.963-24.195
					S25.013,31.087,22.057,44.997c-3.844,1.011-6.694,4.524-6.702,8.709c-0.009,4.094,2.702,7.539,6.416,8.617
					c0.165,0.079,0.346,0.126,0.538,0.137c0.042,0.009,0.082,0.023,0.124,0.031v-0.028c0.771-0.025,1.39-0.654,1.403-1.434h0.002
					l0.019-9.013h0.004c0-0.023-0.002-0.045-0.002-0.068C23.88,42.423,28.804,35.26,36.228,31.3
					c0.043-0.023,0.085-0.045,0.128-0.067c1.151-0.606,2.36-1.135,3.621-1.584c0.061-0.022,0.122-0.045,0.183-0.066
					c0.603-0.21,1.218-0.402,1.843-0.576c0.096-0.027,0.193-0.052,0.29-0.078c0.636-0.17,1.279-0.327,1.935-0.459
					c0.008-0.002,0.015-0.003,0.023-0.004c0.641-0.128,1.293-0.233,1.951-0.324c0.114-0.016,0.226-0.033,0.341-0.048
					c0.643-0.082,1.293-0.146,1.951-0.193c0.127-0.009,0.254-0.015,0.382-0.023c0.682-0.041,1.368-0.068,2.063-0.07
					s1.381,0.023,2.063,0.061c0.128,0.007,0.255,0.013,0.382,0.021c0.657,0.044,1.307,0.105,1.95,0.184
					c0.115,0.014,0.228,0.031,0.342,0.046c0.66,0.089,1.315,0.191,1.958,0.317c0.005,0.001,0.009,0.002,0.014,0.002
					c0.656,0.129,1.3,0.283,1.935,0.451c0.097,0.026,0.194,0.05,0.29,0.077c0.624,0.171,1.238,0.36,1.841,0.568
					c0.062,0.022,0.124,0.045,0.186,0.067c1.259,0.444,2.466,0.969,3.614,1.57c0.043,0.022,0.085,0.044,0.128,0.067
					c7.403,3.928,12.293,11.067,12.273,20.589c-0.008,3.804-0.801,7.327-2.22,10.47c0.679,0.165,1.384,0.261,2.114,0.26
					c4.929-0.011,8.933-4.045,8.944-9.011C86.761,49.365,83.927,45.864,80.087,44.87z M30.196,59.664l3.014-1.367l0.016-7.643
					l-3.011,0.007L30.196,59.664z M67.422,50.595l-2.965-4.489l-2.974,0.007l4.446,7.483l-0.013,5.994l2.978-1.506l0.01-4.495
					l4.478-7.503l-2.975,0.006L67.422,50.595z M55.532,46.125l-2.975,0.007l-0.029,13.487l8.925-0.02l1.494-3l-7.437,0.016
					L55.532,46.125z M31.966,46.19c-0.827-0.127-1.605,0.437-1.738,1.258c-0.132,0.822,0.431,1.591,1.258,1.717
					c0.827,0.127,1.605-0.437,1.737-1.259C33.357,47.085,32.794,46.316,31.966,46.19z"/>
			</g>
		</g>
	</g>
	
		<linearGradient id="SVGID_7_" gradientUnits="userSpaceOnUse" x1="-148.889" y1="164.055" x2="-148.889" y2="209.351" gradientTransform="matrix(1 0 0 -1 199.275 214.055)">
		<stop  offset="0.5" style="stop-color:#FFFFFF;stop-opacity:0"/>
		<stop  offset="1" style="stop-color:#FFFFFF"/>
	</linearGradient>
	<path display="inline" opacity="0.5" fill="url(#SVGID_7_)" enable-background="new    " d="M50.386,4.704
		c19.54,0,35.381,10.14,35.381,22.648S69.926,50,50.386,50S15.005,39.86,15.005,27.352S30.846,4.704,50.386,4.704z"/>
</g>
</svg>
