<?xml version="1.0" encoding="utf-8"?>
<!-- Generator: Adobe Illustrator 17.0.0, SVG Export Plug-In . SVG Version: 6.00 Build 0)  -->
<!DOCTYPE svg PUBLIC "-//W3C//DTD SVG 1.1//EN" "http://www.w3.org/Graphics/SVG/1.1/DTD/svg11.dtd">
<svg version="1.1" id="图层_1" xmlns="http://www.w3.org/2000/svg" xmlns:xlink="http://www.w3.org/1999/xlink" x="0px" y="0px"
	 width="42px" height="42px" viewBox="0 0 42 42" enable-background="new 0 0 42 42" xml:space="preserve">
<path display="none" fill-rule="evenodd" clip-rule="evenodd" fill="#C0C0C0" d="M-51.207,29.571
	c-0.532,0.701-1.993-0.141-3.038-2.382c-0.291,1.038-0.961,2.623-2.479,4.635c2.54,0.576,3.265,3.067,2.41,4.428
	C-54.917,37.211-56.296,38-58.675,38c-4.231,0-6.099-1.13-6.933-1.917c-0.169-0.171-0.415-0.254-0.727-0.255
	c-0.312,0.001-0.558,0.083-0.727,0.255C-67.896,36.87-69.764,38-73.995,38c-2.379,0-3.758-0.789-4.36-1.748
	c-0.855-1.361-0.131-3.852,2.41-4.428c-1.518-2.012-2.189-3.597-2.479-4.635c-1.045,2.242-2.505,3.084-3.038,2.382
	c-0.437-0.576-0.575-1.87-0.53-2.759c0.247-3.381,2.529-6.213,3.848-7.677c-0.183-0.426-0.629-2.894,1.092-4.576
	c-0.003-0.04-0.003-0.08-0.003-0.12c0-6.64,4.754-11.418,10.72-11.44c5.966,0.022,10.72,4.8,10.72,11.44
	c0,0.039,0.001,0.079-0.003,0.12c1.72,1.682,1.275,4.15,1.092,4.576c1.319,1.464,3.601,4.296,3.848,7.677
	C-50.632,27.701-50.77,28.996-51.207,29.571z"/>
<path display="none" fill-rule="evenodd" clip-rule="evenodd" fill="#A5A5A5" d="M-118.207,29.571
	c-0.532,0.701-1.993-0.141-3.038-2.382c-0.291,1.038-0.961,2.623-2.479,4.635c2.54,0.576,3.265,3.067,2.41,4.428
	c-0.602,0.959-1.981,1.748-4.36,1.748c-4.231,0-6.099-1.13-6.933-1.917c-0.169-0.171-0.415-0.254-0.727-0.255
	c-0.312,0.001-0.558,0.083-0.727,0.255c-0.834,0.787-2.702,1.917-6.933,1.917c-2.379,0-3.758-0.789-4.36-1.748
	c-0.855-1.361-0.131-3.852,2.41-4.428c-1.518-2.012-2.189-3.597-2.479-4.635c-1.045,2.242-2.505,3.084-3.038,2.382
	c-0.437-0.576-0.575-1.87-0.53-2.759c0.247-3.381,2.529-6.213,3.848-7.677c-0.183-0.426-0.629-2.894,1.092-4.576
	c-0.003-0.04-0.003-0.08-0.003-0.12c0-6.64,4.754-11.418,10.72-11.44c5.966,0.022,10.72,4.8,10.72,11.44
	c0,0.039,0.001,0.079-0.003,0.12c1.72,1.682,1.275,4.15,1.092,4.576c1.319,1.464,3.602,4.296,3.848,7.677
	C-117.632,27.701-117.77,28.996-118.207,29.571z"/>
<g display="none">
	<path display="inline" fill-rule="evenodd" clip-rule="evenodd" fill="#C0C0C0" d="M-58.903,14.295c0.46,0,0.915,0.034,1.367,0.084
		c-1.228-5.719-7.342-9.968-14.321-9.968c-7.802,0-14.193,5.318-14.193,12.071c0,3.898,2.126,7.099,5.68,9.582l-1.42,4.27
		l4.962-2.488c1.775,0.351,3.2,0.713,4.972,0.713c0.445,0,0.887-0.022,1.325-0.056c-0.277-0.949-0.438-1.943-0.438-2.974
		C-70.97,19.327-65.645,14.295-58.903,14.295z M-66.535,10.447c1.069,0,1.777,0.703,1.777,1.771c0,1.064-0.708,1.777-1.777,1.777
		c-1.064,0-2.131-0.713-2.131-1.777C-68.666,11.15-67.599,10.447-66.535,10.447z M-76.468,13.994c-1.064,0-2.137-0.713-2.137-1.777
		c0-1.068,1.074-1.771,2.137-1.771c1.064,0,1.772,0.703,1.772,1.771C-74.697,13.282-75.405,13.994-76.468,13.994z"/>
	<path display="inline" fill-rule="evenodd" clip-rule="evenodd" fill="#C0C0C0" d="M-45.949,25.358c0-5.675-5.678-10.3-12.056-10.3
		c-6.753,0-12.072,4.626-12.072,10.3c0,5.684,5.319,10.3,12.072,10.3c1.413,0,2.839-0.356,4.259-0.712l3.893,2.132l-1.067-3.547
		C-48.072,31.393-45.949,28.559-45.949,25.358z M-61.919,23.582c-0.707,0-1.42-0.703-1.42-1.42c0-0.707,0.713-1.419,1.42-1.419
		c1.074,0,1.777,0.712,1.777,1.419C-60.143,22.879-60.846,23.582-61.919,23.582z M-54.112,23.582c-0.702,0-1.41-0.703-1.41-1.42
		c0-0.707,0.708-1.419,1.41-1.419c1.064,0,1.777,0.712,1.777,1.419C-52.335,22.879-53.048,23.582-54.112,23.582z"/>
</g>
<g display="none">
	<path display="inline" fill-rule="evenodd" clip-rule="evenodd" fill="#A5A5A5" d="M-58.903,14.295c0.46,0,0.915,0.034,1.367,0.084
		c-1.228-5.719-7.342-9.968-14.321-9.968c-7.802,0-14.193,5.318-14.193,12.071c0,3.898,2.126,7.099,5.68,9.582l-1.42,4.27
		l4.962-2.488c1.775,0.351,3.2,0.713,4.972,0.713c0.445,0,0.887-0.022,1.325-0.056c-0.277-0.949-0.438-1.943-0.438-2.974
		C-70.97,19.327-65.645,14.295-58.903,14.295z M-66.535,10.447c1.069,0,1.777,0.703,1.777,1.771c0,1.064-0.708,1.777-1.777,1.777
		c-1.064,0-2.131-0.713-2.131-1.777C-68.666,11.15-67.599,10.447-66.535,10.447z M-76.468,13.994c-1.064,0-2.137-0.713-2.137-1.777
		c0-1.068,1.074-1.771,2.137-1.771c1.064,0,1.772,0.703,1.772,1.771C-74.697,13.282-75.405,13.994-76.468,13.994z"/>
	<path display="inline" fill-rule="evenodd" clip-rule="evenodd" fill="#A5A5A5" d="M-45.949,25.358c0-5.675-5.678-10.3-12.056-10.3
		c-6.753,0-12.072,4.626-12.072,10.3c0,5.684,5.319,10.3,12.072,10.3c1.413,0,2.839-0.356,4.259-0.712l3.893,2.132l-1.067-3.547
		C-48.072,31.393-45.949,28.559-45.949,25.358z M-61.919,23.582c-0.707,0-1.42-0.703-1.42-1.42c0-0.707,0.713-1.419,1.42-1.419
		c1.074,0,1.777,0.712,1.777,1.419C-60.143,22.879-60.846,23.582-61.919,23.582z M-54.112,23.582c-0.702,0-1.41-0.703-1.41-1.42
		c0-0.707,0.708-1.419,1.41-1.419c1.064,0,1.777,0.712,1.777,1.419C-52.335,22.879-53.048,23.582-54.112,23.582z"/>
</g>
<g>
	<path fill="#C0C0C0" d="M30.743,20.187c-1.602-0.311-0.823-1.173-0.823-1.173s1.567-2.583-0.31-4.461
		c-2.326-2.326-7.98,0.296-7.98,0.296c-2.159,0.67-1.587-0.306-1.282-1.966c0-1.957-0.67-5.268-6.422-3.312
		c-5.746,1.967-10.679,8.856-10.679,8.856c-3.431,4.578-2.977,8.117-2.977,8.117c0.857,7.812,9.157,9.956,15.613,10.463
		c6.792,0.533,15.958-2.341,18.738-8.245C37.401,22.848,32.35,20.507,30.743,20.187z M16.386,34.805
		C9.644,35.12,4.193,31.739,4.193,27.239c0-4.504,5.451-8.117,12.193-8.428c6.747-0.311,12.208,2.469,12.208,6.964
		C28.594,30.275,23.133,34.498,16.386,34.805z"/>
	<path fill="#C0C0C0" d="M15.041,21.779c-6.782,0.794-5.998,7.146-5.998,7.146s-0.069,2.011,1.818,3.036
		c3.968,2.149,8.053,0.848,10.118-1.818C23.045,27.476,21.832,20.99,15.041,21.779z M13.331,30.694
		c-1.266,0.148-2.286-0.581-2.286-1.641c0-1.055,0.906-2.159,2.173-2.291c1.455-0.138,2.401,0.7,2.401,1.759
		C15.618,29.575,14.592,30.551,13.331,30.694z M17.328,27.288c-0.429,0.321-0.957,0.276-1.183-0.108
		c-0.236-0.375-0.148-0.976,0.286-1.291c0.503-0.374,1.025-0.267,1.252,0.109C17.909,26.381,17.747,26.958,17.328,27.288z"/>
	<path fill="#C0C0C0" d="M34.045,17.436c0.546,0,1.011-0.404,1.089-0.931c0.01-0.039,0.015-0.074,0.015-0.118
		c0.828-7.447-6.102-6.165-6.102-6.165c-0.615,0-1.109,0.498-1.109,1.119c0,0.611,0.493,1.109,1.109,1.109
		c4.978-1.099,3.879,3.879,3.879,3.879C32.926,16.944,33.428,17.436,34.045,17.436z"/>
	<path fill="#C0C0C0" d="M33.237,4.237c-2.396-0.561-4.86,0.024-5.55,0.156c-0.053,0.005-0.103,0.106-0.152,0.116
		c-0.024,0.005-0.039,0.055-0.039,0.055c-0.68,0.193-1.178,0.835-1.178,1.58c0,0.887,0.719,1.623,1.616,1.623
		c0,0,0.872-0.114,1.464-0.345c0.586-0.236,5.549-0.174,8.014,3.965c1.345,3.021,0.591,5.044,0.497,5.369c0,0-0.32,0.786-0.32,1.558
		c0,0.892,0.72,1.251,1.611,1.251c0.745,0,1.371-0.564,1.554-1.564h0.01C43.409,10,37.525,5.237,33.237,4.237z"/>
</g>
</svg>
